{
copyright = "Copyright 2015-2022 Indian Type Foundry. All rights reserved.";
designer = "Shiva Nallaperumal";
designerURL = "https://www.indiantypefoundry.com/designers";
familyName = Roundo;
customParameters = (
{
name = glyphOrder;
value = (
A,
Agrave,
Aacute,
Acircumflex,
Atilde,
Adieresis,
Aring,
Amacron,
Abreve,
Aogonek,
B,
C,
Ccedilla,
Cacute,
Cdotaccent,
Ccaron,
D,
Dcaron,
E,
Egrave,
Eacute,
Ecircumflex,
Edieresis,
Emacron,
Ebreve,
Edotaccent,
Eogonek,
Ecaron,
Etilde,
F,
G,
Gcircumflex,
Gbreve,
Gdotaccent,
Gcommaaccent,
H,
I,
Igrave,
Iacute,
Icircumflex,
Idieresis,
Itilde,
Imacron,
Ibreve,
Iogonek,
Idotaccent,
J,
Jcircumflex,
K,
Kcommaaccent,
L,
Lacute,
Lcommaaccent,
Lcaron,
M,
N,
Ntilde,
Nacute,
Ncommaaccent,
Ncaron,
O,
Ograve,
Oacute,
Ocircumflex,
Otilde,
Odieresis,
Omacron,
Obreve,
Ohungarumlaut,
P,
Q,
R,
Racute,
Rcommaaccent,
Rcaron,
S,
Sacute,
Scircumflex,
Scedilla,
Scaron,
Scommaaccent,
T,
Tcommaaccent,
Tcaron,
U,
Ugrave,
Uacute,
Ucircumflex,
Udieresis,
Utilde,
Umacron,
Ubreve,
Uring,
Uhungarumlaut,
Uogonek,
V,
W,
Wcircumflex,
Wgrave,
Wacute,
Wdieresis,
X,
Y,
Yacute,
Ycircumflex,
Ydieresis,
Ygrave,
Ytilde,
Z,
Zacute,
Zdotaccent,
Zcaron,
AE,
AEacute,
Eth,
Oslash,
Oslashacute,
Thorn,
Dcroat,
Hbar,
IJ,
Ldot,
Lslash,
Eng,
OE,
Tbar,
a,
agrave,
aacute,
acircumflex,
atilde,
adieresis,
aring,
amacron,
abreve,
aogonek,
b,
c,
ccedilla,
cacute,
cdotaccent,
ccaron,
d,
dcaron,
e,
egrave,
eacute,
ecircumflex,
edieresis,
emacron,
ebreve,
edotaccent,
eogonek,
ecaron,
etilde,
f,
f_b,
f_f,
f_f_b,
f_f_h,
f_f_i,
f_f_j,
f_f_k,
f_f_l,
f_h,
fi,
f_j,
f_k,
fl,
f_t,
g,
gcircumflex,
gbreve,
gdotaccent,
gcommaaccent,
h,
hcircumflex,
i,
igrave,
iacute,
icircumflex,
idieresis,
itilde,
imacron,
ibreve,
iogonek,
j,
jcircumflex,
k,
kcommaaccent,
l,
lacute,
lcommaaccent,
lcaron,
m,
n,
ntilde,
nacute,
ncommaaccent,
ncaron,
o,
ograve,
oacute,
ocircumflex,
otilde,
odieresis,
omacron,
obreve,
ohungarumlaut,
p,
q,
r,
racute,
rcommaaccent,
rcaron,
s,
sacute,
scircumflex,
scedilla,
scaron,

glyphs = (
{
glyphname = A;
layers = (
{
layerId = "9C3819CB-81CB-4535-9429-AFFD112764D7";
paths = (
{
closed = 1;
nodes = (
"183 0 LINE",
"385 529 LINE",
"585 0 LINE",
"774 0 LINE",
"500 688 LINE",
"271 688 LINE",
"-3 0 LINE"
);
},
{
closed = 1;
nodes = (
"201 152 LINE",
"554 152 LINE",
"554 302 LINE",
"201 302 LINE"
);
}
);
width = 771;
},
{
layerId = "43C446DC-37EE-4C34-A65A-9E71F2AC18B3";
paths = (
{
closed = 1;
nodes = (
"42 0 LINE",
"330 659 LINE",
"617 0 LINE",
"650 0 LINE",
"346 688 LINE",
"314 688 LINE",
"10 0 LINE"
);
},
{
closed = 1;
nodes = (
"144 253 LINE",
"515 253 LINE",
"515 281 LINE",
"144 281 LINE"
);
}
);
width = 660;
}
);
unicode = 0041;
},
{
glyphname = Agrave;
layers = (
{
layerId = "9C3819CB-81CB-4535-9429-AFFD112764D7";
paths = (
{
closed = 1;
nodes = (
"183 0 LINE",
"385 529 LINE",
"585 0 LINE",
"774 0 LINE",
"500 688 LINE",
"271 688 LINE",
"-3 0 LINE"
);
},
{
closed = 1;
nodes = (
"201 152 LINE",
"554 152 LINE",
"554 302 LINE",
"201 302 LINE"
);
},
{
closed = 1;
nodes = (
"370 874 LINE",
"182 874 LINE",
"322 747 LINE",
"322 747 OFFCURVE",
"468 747 OFFCURVE",
"468 747 CURVE"
);
}
);
width = 771;
},
{
layerId = "43C446DC-37EE-4C34-A65A-9E71F2AC18B3";
paths = (
{
closed = 1;
nodes = (
"42 0 LINE",
"330 659 LINE",
"617 0 LINE",
"650 0 LINE",
"346 688 LINE",
"314 688 LINE",
"10 0 LINE"
);
},
{
closed = 1;
nodes = (
"144 253 LINE",
"515 253 LINE",
"515 281 LINE",
"144 281 LINE"
);
},
{
closed = 1;
nodes = (
"253 874 LINE",
"210 874 LINE",
"320 748 LINE",
"320 748 OFFCURVE",
"351 748 OFFCURVE",
"351 748 CURVE"
);
}
);
width = 660;
}
);
unicode = 00C0;
},
{
glyphname = Aacute;
layers = (
{
layerId = "9C3819CB-81CB-4535-9429-AFFD112764D7";
paths = (
{
closed = 1;
nodes = (
"183 0 LINE",
"385 529 LINE",
"585 0 LINE",
"774 0 LINE",
"500 688 LINE",
"271 688 LINE",
"-3 0 LINE"
);
},
{
closed = 1;
nodes = (
"201 152 LINE",
"554 152 LINE",
"554 302 LINE",
"201 302 LINE"
);
},
{
closed = 1;
nodes = (
"400 874 LINE",
"302 747 LINE",
"302 747 OFFCURVE",
"448 747 OFFCURVE",
"448 747 CURVE",
"588 874 LINE"
);
}
);
width = 771;
},
{
layerId = "43C446DC-37EE-4C34-A65A-9E71F2AC18B3";
paths = (
{
closed = 1;
nodes = (
"42 0 LINE",
"330 659 LINE",
"617 0 LINE",
"650 0 LINE",
"346 688 LINE",
"314 688 LINE",
"10 0 LINE"
);
},
{
closed = 1;
nodes = (
"144 253 LINE",
"515 253 LINE",
"515 281 LINE",
"144 281 LINE"
);
},
{
closed = 1;
nodes = (
"408 874 LINE",
"310 748 LINE",
"310 748 OFFCURVE",
"341 748 OFFCURVE",
"341 748 CURVE",
"451 874 LINE"
);
}
);
width = 660;
}
);
unicode = 00C1;
},
{
glyphname = Acircumflex;
layers = (
{
layerId = "9C3819CB-81CB-4535-9429-AFFD112764D7";
paths = (
{
closed = 1;
nodes = (
"183 0 LINE",
"385 529 LINE",
"585 0 LINE",
"774 0 LINE",
"500 688 LINE",
"271 688 LINE",
"-3 0 LINE"
);
},
{
closed = 1;
nodes = (
"201 152 LINE",
"554 152 LINE",
"554 302 LINE",
"201 302 LINE"
);
},
{
closed = 1;
nodes = (
"196 748 LINE",
"347 748 LINE",
"385 795 LINE",
"423 748 LINE",
"574 748 LINE",
"457 874 LINE",
"313 874 LINE"
);
}
);
width = 771;
},
{
layerId = "43C446DC-37EE-4C34-A65A-9E71F2AC18B3";
paths = (
{
closed = 1;
nodes = (
"42 0 LINE",
"330 659 LINE",
"617 0 LINE",
"650 0 LINE",
"346 688 LINE",
"314 688 LINE",
"10 0 LINE"
);
},
{
closed = 1;
nodes = (
"144 253 LINE",
"515 253 LINE",
"515 281 LINE",
"144 281 LINE"
);
},
{
closed = 1;
nodes = (
"191 748 LINE",
"224 748 LINE",
"330 846 LINE",
"436 748 LINE",
"469 748 LINE",
"347 874 LINE",
"313 874 LINE"
);
}
);
width = 660;
}
);
unicode = 00C2;
},
{
glyphname = Atilde;
layers = (
{
layerId = "9C3819CB-81CB-4535-9429-AFFD112764D7";
paths = (
{
closed = 1;
nodes = (
"183 0 LINE",
"385 529 LINE",
"585 0 LINE",
"774 0 LINE",
"500 688 LINE",
"271 688 LINE",
"-3 0 LINE"
);
},
{
closed = 1;
nodes = (
"201 152 LINE",
"554 152 LINE",
"554 302 LINE",
"201 302 LINE"
);
},
{
closed = 1;
nodes = (
"496 738 OFFCURVE",
"531 759 OFFCURVE",
"563 806 CURVE",
"563 896 LINE",
"540 870 OFFCURVE",
"507 833 OFFCURVE",
"462 833 CURVE SMOOTH",
"415 833 OFFCURVE",
"360 884 OFFCURVE",
"311 884 CURVE SMOOTH",
"274 884 OFFCURVE",
"239 863 OFFCURVE",
"207 816 CURVE",
"207 726 LINE",
"230 752 OFFCURVE",
"263 789 OFFCURVE",
"308 789 CURVE SMOOTH",
"355 789 OFFCURVE",
"410 738 OFFCURVE",
"460 738 CURVE SMOOTH"
);
}
);
width = 771;
},
{
layerId = "43C446DC-37EE-4C34-A65A-9E71F2AC18B3";
paths = (
{
closed = 1;
nodes = (
"42 0 LINE",
"330 659 LINE",
"617 0 LINE",
"650 0 LINE",
"346 688 LINE",
"314 688 LINE",
"10 0 LINE"
);
},
{
closed = 1;
nodes = (
"144 253 LINE",
"515 253 LINE",
"515 281 LINE",
"144 281 LINE"
);
},
{
closed = 1;
nodes = (
"422 767 OFFCURVE",
"444 779 OFFCURVE",
"462 805 CURVE",
"462 848 LINE",
"449 817 OFFCURVE",
"428 797 OFFCURVE",
"399 797 CURVE SMOOTH",
"349 797 OFFCURVE",
"325 855 OFFCURVE",
"266 855 CURVE SMOOTH",
"240 855 OFFCURVE",
"218 842 OFFCURVE",
"199 815 CURVE",
"199 774 LINE",
"214 805 OFFCURVE",
"235 825 OFFCURVE",
"262 825 CURVE SMOOTH",
"312 825 OFFCURVE",
"338 767 OFFCURVE",
"397 767 CURVE SMOOTH"
);
}
);
width = 660;
}
);
unicode = 00C3;
},
{
glyphname = Adieresis;
layers = (
{
layerId = "9C3819CB-81CB-4535-9429-AFFD112764D7";
paths = (
{
closed = 1;
nodes = (
"183 0 LINE",
"385 529 LINE",
"585 0 LINE",
"774 0 LINE",
"500 688 LINE",
"271 688 LINE",
"-3 0 LINE"
);
},
{
closed = 1;
nodes = (
"201 152 LINE",
"554 152 LINE",
"554 302 LINE",
"201 302 LINE"
);
},
{
closed = 1;
nodes = (
"330 738 OFFCURVE",
"367 765 OFFCURVE",
"367 809 CURVE SMOOTH",
"367 855 OFFCURVE",
"330 882 OFFCURVE",
"285 882 CURVE SMOOTH",
"240 882 OFFCURVE",
"204 855 OFFCURVE",
"204 809 CURVE SMOOTH",
"204 765 OFFCURVE",
"240 738 OFFCURVE",
"285 738 CURVE SMOOTH"
);
},
{
closed = 1;
nodes = (
"530 738 OFFCURVE",
"567 765 OFFCURVE",
"567 809 CURVE SMOOTH",
"567 855 OFFCURVE",
"530 882 OFFCURVE",
"485 882 CURVE SMOOTH",
"440 882 OFFCURVE",
"404 855 OFFCURVE",
"404 809 CURVE SMOOTH",
"404 765 OFFCURVE",
"440 738 OFFCURVE",
"485 738 CURVE SMOOTH"
);
}
);
width = 771;
},
{
layerId = "43C446DC-37EE-4C34-A65A-9E71F2AC18B3";
paths = (
{
closed = 1;
nodes = (
"42 0 LINE",
"330 659 LINE",
"617 0 LINE",
"650 0 LINE",
"346 688 LINE",
"314 688 LINE",
"10 0 LINE"
);
},
{
closed = 1;
nodes = (
"144 253 LINE",
"515 253 LINE",
"515 281 LINE",
"144 281 LINE"
);
},
{
closed = 1;
nodes = (
"265 784 OFFCURVE",
"277 796 OFFCURVE",
"277 811 CURVE SMOOTH",
"277 825 OFFCURVE",
"265 838 OFFCURVE",
"250 838 CURVE SMOOTH",
"235 838 OFFCURVE",
"223 825 OFFCURVE",
"223 811 CURVE SMOOTH",
"223 796 OFFCURVE",
"235 784 OFFCURVE",
"250 784 CURVE SMOOTH"
);
},
{
closed = 1;
nodes = (
"425 784 OFFCURVE",
"437 796 OFFCURVE",
"437 811 CURVE SMOOTH",
"437 825 OFFCURVE",
"425 838 OFFCURVE",
"410 838 CURVE SMOOTH",
"395 838 OFFCURVE",
"383 825 OFFCURVE",
"383 811 CURVE SMOOTH",
"383 796 OFFCURVE",
"395 784 OFFCURVE",
"410 784 CURVE SMOOTH"
);
}
);
width = 660;
}
);
unicode = 00C4;
},
{
glyphname = Aring;
layers = (
{
layerId = "9C3819CB-81CB-4535-9429-AFFD112764D7";
paths = (
{
closed = 1;
nodes = (
"458 609 OFFCURVE",
"513 664 OFFCURVE",
"513 732 CURVE SMOOTH",
"513 800 OFFCURVE",
"458 855 OFFCURVE",
"386 855 CURVE SMOOTH",
"314 855 OFFCURVE",
"259 800 OFFCURVE",
"259 732 CURVE SMOOTH",
"259 664 OFFCURVE",
"314 609 OFFCURVE",
"386 609 CURVE SMOOTH"
);
},
{
closed = 1;
nodes = (
"364 688 OFFCURVE",
"345 707 OFFCURVE",
"345 732 CURVE SMOOTH",
"345 757 OFFCURVE",
"364 776 OFFCURVE",
"387 776 CURVE SMOOTH",
"410 776 OFFCURVE",
"429 757 OFFCURVE",
"429 732 CURVE SMOOTH",
"429 707 OFFCURVE",
"410 688 OFFCURVE",
"387 688 CURVE SMOOTH"
);
},
{
closed = 1;
nodes = (
"183 0 LINE",
"385 529 LINE",
"585 0 LINE",
"774 0 LINE",
"500 688 LINE",
"271 688 LINE",
"-3 0 LINE"
);
},
{
closed = 1;
nodes = (
"201 152 LINE",
"554 152 LINE",
"554 302 LINE",
"201 302 LINE"
);
}
);
width = 771;
},
{
layerId = "43C446DC-37EE-4C34-A65A-9E71F2AC18B3";
paths = (
{
closed = 1;
nodes = (
"389 663 OFFCURVE",
"433 708 OFFCURVE",
"433 763 CURVE SMOOTH",
"433 818 OFFCURVE",
"389 863 OFFCURVE",
"330 863 CURVE SMOOTH",
"272 863 OFFCURVE",
"227 818 OFFCURVE",
"227 763 CURVE SMOOTH",
"227 708 OFFCURVE",
"272 663 OFFCURVE",
"330 663 CURVE SMOOTH"
);
},
{
closed = 1;
nodes = (
"291 690 OFFCURVE",
"255 720 OFFCURVE",
"255 763 CURVE SMOOTH",
"255 806 OFFCURVE",
"291 837 OFFCURVE",
"331 837 CURVE SMOOTH",
"371 837 OFFCURVE",
"405 806 OFFCURVE",
"405 763 CURVE SMOOTH",
"405 720 OFFCURVE",
"371 690 OFFCURVE",
"331 690 CURVE SMOOTH"
);
},
{
closed = 1;
nodes = (
"42 0 LINE",
"330 659 LINE",
"617 0 LINE",
"650 0 LINE",
"346 688 LINE",
"314 688 LINE",
"10 0 LINE"
);
},
{
closed = 1;
nodes = (
"144 253 LINE",
"515 253 LINE",
"515 281 LINE",
"144 281 LINE"
);
}
);
width = 660;
}
);
unicode = 00C5;
},
{
glyphname = Amacron;
layers = (
{
layerId = "9C3819CB-81CB-4535-9429-AFFD112764D7";
paths = (
{
closed = 1;
nodes = (
"183 0 LINE",
"385 529 LINE",
"585 0 LINE",
"774 0 LINE",
"500 688 LINE",
"271 688 LINE",
"-3 0 LINE"
);
},
{
closed = 1;
nodes = (
"201 152 LINE",
"554 152 LINE",
"554 302 LINE",
"201 302 LINE"
);
},
{
closed = 1;
nodes = (
"228 864 LINE",
"228 864 OFFCURVE",
"228 759 OFFCURVE",
"228 759 CURVE",
"543 759 LINE",
"543 864 LINE"
);
}
);
width = 771;
},
{
layerId = "43C446DC-37EE-4C34-A65A-9E71F2AC18B3";
paths = (
{
closed = 1;
nodes = (
"42 0 LINE",
"330 659 LINE",
"617 0 LINE",
"650 0 LINE",
"346 688 LINE",
"314 688 LINE",
"10 0 LINE"
);
},
{
closed = 1;
nodes = (
"144 253 LINE",
"515 253 LINE",
"515 281 LINE",
"144 281 LINE"
);
},
{
closed = 1;
nodes = (
"203 826 LINE",
"203 826 OFFCURVE",
"203 796 OFFCURVE",
"203 796 CURVE",
"458 796 LINE",
"458 826 LINE"
);
}
);
width = 660;
}
);
unicode = 0100;
},
{
glyphname = Abreve;
layers = (
{
layerId = "9C3819CB-81CB-4535-9429-AFFD112764D7";
paths = (
{
closed = 1;
nodes = (
"183 0 LINE",
"385 529 LINE",
"585 0 LINE",
"774 0 LINE",
"500 688 LINE",
"271 688 LINE",
"-3 0 LINE"
);
},
{
closed = 1;
nodes = (
"201 152 LINE",
"554 152 LINE",
"554 302 LINE",
"201 302 LINE"
);
},
{
closed = 1;
nodes = (
"478 738 OFFCURVE",
"546 797 OFFCURVE",
"546 874 CURVE",
"436 874 LINE",
"436 851 OFFCURVE",
"423 840 OFFCURVE",
"385 840 CURVE SMOOTH",
"347 840 OFFCURVE",
"334 851 OFFCURVE",
"334 874 CURVE",
"225 874 LINE",
"225 797 OFFCURVE",
"293 738 OFFCURVE",
"385 738 CURVE SMOOTH"
);
}
);
width = 771;
},
{
layerId = "43C446DC-37EE-4C34-A65A-9E71F2AC18B3";
paths = (
{
closed = 1;
nodes = (
"42 0 LINE",
"330 659 LINE",
"617 0 LINE",
"650 0 LINE",
"346 688 LINE",
"314 688 LINE",
"10 0 LINE"
);
},
{
closed = 1;
nodes = (
"144 253 LINE",
"515 253 LINE",
"515 281 LINE",
"144 281 LINE"
);
},
{
closed = 1;
nodes = (
"397 748 OFFCURVE",
"441 793 OFFCURVE",
"441 874 CURVE",
"412 874 LINE",
"412 805 OFFCURVE",
"375 775 OFFCURVE",
"330 775 CURVE SMOOTH",
"285 775 OFFCURVE",
"249 805 OFFCURVE",
"249 874 CURVE",
"220 874 LINE",
"220 793 OFFCURVE",
"264 748 OFFCURVE",
"330 748 CURVE SMOOTH"
);
}
);
width = 660;
}
);
unicode = 0102;
},
{
glyphname = Aogonek;
layers = (
{
layerId = "9C3819CB-81CB-4535-9429-AFFD112764D7";
paths = (
{
closed = 1;
nodes = (
"183 0 LINE",
"385 529 LINE",
"585 0 LINE",
"774 0 LINE",
"500 688 LINE",
"271 688 LINE",
"-3 0 LINE"
);
},
{
closed = 1;
nodes = (
"201 152 LINE",
"554 152 LINE",
"554 302 LINE",
"201 302 LINE"
);
},
{
closed = 1;
nodes = (
"585 0 LINE",
"545 -23 OFFCURVE",
"520 -58 OFFCURVE",
"520 -94 CURVE SMOOTH",
"520 -152 OFFCURVE",
"568 -178 OFFCURVE",
"626 -178 CURVE SMOOTH",
"653 -178 OFFCURVE",
"680 -169 OFFCURVE",
"698 -158 CURVE",
"698 -69 LINE",
"682 -81 OFFCURVE",
"664 -87 OFFCURVE",
"649 -87 CURVE SMOOTH",
"633 -87 OFFCURVE",
"616 -83 OFFCURVE",
"616 -63 CURVE SMOOTH",
"616 -44 OFFCURVE",
"638 -21 OFFCURVE",
"667 0 CURVE"
);
}
);
width = 771;
},
{
layerId = "43C446DC-37EE-4C34-A65A-9E71F2AC18B3";
paths = (
{
closed = 1;
nodes = (
"42 0 LINE",
"330 659 LINE",
"617 0 LINE",
"650 0 LINE",
"346 688 LINE",
"314 688 LINE",
"10 0 LINE"
);
},
{
closed = 1;
nodes = (
"144 253 LINE",
"515 253 LINE",
"515 281 LINE",
"144 281 LINE"
);
},
{
closed = 1;
nodes = (
"619 0 LINE",
"558 -31 OFFCURVE",
"517 -63 OFFCURVE",
"517 -102 CURVE SMOOTH",
"517 -145 OFFCURVE",
"549 -168 OFFCURVE",
"596 -168 CURVE SMOOTH",
"628 -168 OFFCURVE",
"654 -157 OFFCURVE",
"673 -143 CURVE",
"673 -109 LINE",
"650 -130 OFFCURVE",
"623 -138 OFFCURVE",
"598 -138 CURVE SMOOTH",
"569 -138 OFFCURVE",
"549 -121 OFFCURVE",
"549 -98 CURVE",
"549 -67 OFFCURVE",
"589 -36 OFFCURVE",
"647 0 CURVE"
);
}
);
width = 660;
}
);
unicode = 0104;
},
{
glyphname = B;
layers = (
{
guideLines = (
{
position = "{0, 375}";
},
{
position = "{0, 523}";
}
);
layerId = "9C3819CB-81CB-4535-9429-AFFD112764D7";
paths = (
{
closed = 1;
nodes = (
"60 0 LINE",
"432 0 LINE SMOOTH",
"591 0 OFFCURVE",
"680 68 OFFCURVE",
"680 181 CURVE SMOOTH",
"680 279 OFFCURVE",
"610 350 OFFCURVE",
"490 363 CURVE",
"554 363 OFFCURVE",
"640 408 OFFCURVE",
"640 512 CURVE SMOOTH",
"640 635 OFFCURVE",
"531 688 OFFCURVE",
"402 688 CURVE SMOOTH",
"60 688 LINE"
);
},
{
closed = 1;
nodes = (
"384 528 LINE SMOOTH",
"431 528 OFFCURVE",
"453 509 OFFCURVE",
"453 476 CURVE SMOOTH",
"453 441 OFFCURVE",
"431 425 OFFCURVE",
"384 425 CURVE SMOOTH",
"230 425 LINE",
"230 528 LINE"
);
},
{
closed = 1;
nodes = (
"413 285 LINE SMOOTH",
"459 285 OFFCURVE",
"492 265 OFFCURVE",
"492 222 CURVE SMOOTH",
"492 176 OFFCURVE",
"459 160 OFFCURVE",
"413 160 CURVE SMOOTH",
"230 160 LINE",
"230 285 LINE"
);
}
);
width = 710;
},
{
layerId = "43C446DC-37EE-4C34-A65A-9E71F2AC18B3";
paths = (
{
closed = 1;
nodes = (
"104 0 LINE",
"364 0 LINE SMOOTH",
"499 0 OFFCURVE",
"599 54 OFFCURVE",
"599 188 CURVE SMOOTH",
"599 288 OFFCURVE",
"538 350 OFFCURVE",
"425 366 CURVE",
"504 386 OFFCURVE",
"554 443 OFFCURVE",
"554 521 CURVE SMOOTH",
"554 645 OFFCURVE",
"467 688 OFFCURVE",
"349 688 CURVE SMOOTH",
"104 688 LINE"
);
},
{
closed = 1;
nodes = (
"349 660 LINE SMOOTH",
"448 660 OFFCURVE",
"524 628 OFFCURVE",
"524 521 CURVE SMOOTH",
"524 423 OFFCURVE",
"443 376 OFFCURVE",
"339 376 CURVE SMOOTH",
"134 376 LINE",
"134 660 LINE"
);
},
{
closed = 1;
nodes = (
"354 348 LINE SMOOTH",
"476 348 OFFCURVE",
"569 301 OFFCURVE",
"569 188 CURVE SMOOTH",
"569 70 OFFCURVE",
"479 28 OFFCURVE",
"364 28 CURVE SMOOTH",
"134 28 LINE",
"134 348 LINE"
);
}
);
width = 653;
}
);
unicode = 0042;
},
{
glyphname = C;
layers = (
{
anchors = (
{
name = center;
position = "{394, 343}";
}
);
layerId = "9C3819CB-81CB-4535-9429-AFFD112764D7";
paths = (
{
closed = 1;
nodes = (
"503 -12 OFFCURVE",
"564 12 OFFCURVE",
"618 42 CURVE",
"618 216 LINE",
"573 183 OFFCURVE",
"503 148 OFFCURVE",
"411 148 CURVE SMOOTH",
"291 148 OFFCURVE",
"210 223 OFFCURVE",
"210 343 CURVE SMOOTH",
"210 463 OFFCURVE",
"291 538 OFFCURVE",
"411 538 CURVE SMOOTH",
"503 538 OFFCURVE",
"573 503 OFFCURVE",
"618 470 CURVE",
"618 644 LINE",
"564 674 OFFCURVE",
"503 698 OFFCURVE",
"401 698 CURVE SMOOTH",
"187 698 OFFCURVE",
"30 552 OFFCURVE",
"30 343 CURVE SMOOTH",
"30 134 OFFCURVE",
"187 -12 OFFCURVE",
"401 -12 CURVE SMOOTH"
);
}
);
width = 648;
},
{
anchors = (
{
name = center;
position = "{419, 344}";
}
);
guideLines = (
{
angle = 90;
position = "{661, 0}";
}
);
layerId = "43C446DC-37EE-4C34-A65A-9E71F2AC18B3";
paths = (
{
closed = 1;
nodes = (
"510 -10 OFFCURVE",
"590 19 OFFCURVE",
"655 61 CURVE",
"655 97 LINE",
"593 54 OFFCURVE",
"512 18 OFFCURVE",
"410 18 CURVE",
"231 18 OFFCURVE",
"94 153 OFFCURVE",
"94 343 CURVE SMOOTH",
"94 534 OFFCURVE",
"231 670 OFFCURVE",
"410 670 CURVE",
"512 670 OFFCURVE",
"593 634 OFFCURVE",
"655 591 CURVE",
"655 627 LINE",
"590 669 OFFCURVE",
"510 698 OFFCURVE",
"410 698 CURVE",
"215 698 OFFCURVE",
"64 551 OFFCURVE",
"64 343 CURVE SMOOTH",
"64 136 OFFCURVE",
"215 -10 OFFCURVE",
"410 -10 CURVE SMOOTH"
);
}
);
width = 684;
}
);
unicode = 0043;
},
{
glyphname = Ccedilla;
layers = (
{
layerId = "9C3819CB-81CB-4535-9429-AFFD112764D7";
paths = (
{
closed = 1;
nodes = (
"503 -12 OFFCURVE",
"564 12 OFFCURVE",
"618 42 CURVE",
"618 216 LINE",
"573 183 OFFCURVE",
"503 148 OFFCURVE",
"411 148 CURVE SMOOTH",
"291 148 OFFCURVE",
"210 223 OFFCURVE",
"210 343 CURVE SMOOTH",
"210 463 OFFCURVE",
"291 538 OFFCURVE",
"411 538 CURVE SMOOTH",
"503 538 OFFCURVE",
"573 503 OFFCURVE",
"618 470 CURVE",
"618 644 LINE",
"564 674 OFFCURVE",
"503 698 OFFCURVE",
"401 698 CURVE SMOOTH",
"187 698 OFFCURVE",
"30 552 OFFCURVE",
"30 343 CURVE SMOOTH",
"30 134 OFFCURVE",
"187 -12 OFFCURVE",
"401 -12 CURVE SMOOTH"
);
},
{
closed = 1;
nodes = (
"361 0 LINE",
"261 -146 LINE",
"389 -196 LINE",
"464 0 LINE"
);
}
);
width = 648;
},
{
layerId = "43C446DC-37EE-4C34-A65A-9E71F2AC18B3";
paths = (
{
closed = 1;
nodes = (
"510 -10 OFFCURVE",
"590 19 OFFCURVE",
"655 61 CURVE",
"655 97 LINE",
"593 54 OFFCURVE",
"512 18 OFFCURVE",
"410 18 CURVE",
"231 18 OFFCURVE",
"94 153 OFFCURVE",
"94 343 CURVE SMOOTH",
"94 534 OFFCURVE",
"231 670 OFFCURVE",
"410 670 CURVE",
"512 670 OFFCURVE",
"593 634 OFFCURVE",
"655 591 CURVE",
"655 627 LINE",
"590 669 OFFCURVE",
"510 698 OFFCURVE",
"410 698 CURVE",
"215 698 OFFCURVE",
"64 551 OFFCURVE",
"64 343 CURVE SMOOTH",
"64 136 OFFCURVE",
"215 -10 OFFCURVE",
"410 -10 CURVE SMOOTH"
);
},
{
closed = 1;
nodes = (
"447 0 LINE",
"364 -154 LINE",
"396 -168 LINE",
"475 0 LINE"
);
}
);
width = 684;
}
);
unicode = 00C7;
},
{
glyphname = Cacute;
layers = (
{
layerId = "9C3819CB-81CB-4535-9429-AFFD112764D7";
paths = (
{
closed = 1;
nodes = (
"503 -12 OFFCURVE",
"564 12 OFFCURVE",
"618 42 CURVE",
"618 216 LINE",
"573 183 OFFCURVE",
"503 148 OFFCURVE",
"411 148 CURVE SMOOTH",
"291 148 OFFCURVE",
"210 223 OFFCURVE",
"210 343 CURVE SMOOTH",
"210 463 OFFCURVE",
"291 538 OFFCURVE",
"411 538 CURVE SMOOTH",
"503 538 OFFCURVE",
"573 503 OFFCURVE",
"618 470 CURVE",
"618 644 LINE",
"564 674 OFFCURVE",
"503 698 OFFCURVE",
"401 698 CURVE SMOOTH",
"187 698 OFFCURVE",
"30 552 OFFCURVE",
"30 343 CURVE SMOOTH",
"30 134 OFFCURVE",
"187 -12 OFFCURVE",
"401 -12 CURVE SMOOTH"
);
},
{
closed = 1;
nodes = (
"409 874 LINE",
"311 747 LINE",
"311 747 OFFCURVE",
"457 747 OFFCURVE",
"457 747 CURVE",
"597 874 LINE"
);
}
);
width = 648;
},
{
layerId = "43C446DC-37EE-4C34-A65A-9E71F2AC18B3";
paths = (
{
closed = 1;
nodes = (
"510 -10 OFFCURVE",
"590 19 OFFCURVE",
"655 61 CURVE",
"655 97 LINE",
"593 54 OFFCURVE",
"512 18 OFFCURVE",
"410 18 CURVE",
"231 18 OFFCURVE",
"94 153 OFFCURVE",
"94 343 CURVE SMOOTH",
"94 534 OFFCURVE",
"231 670 OFFCURVE",
"410 670 CURVE",
"512 670 OFFCURVE",
"593 634 OFFCURVE",
"655 591 CURVE",
"655 627 LINE",
"590 669 OFFCURVE",
"510 698 OFFCURVE",
"410 698 CURVE",
"215 698 OFFCURVE",
"64 551 OFFCURVE",
"64 343 CURVE SMOOTH",
"64 136 OFFCURVE",
"215 -10 OFFCURVE",
"410 -10 CURVE SMOOTH"
);
},
{
closed = 1;
nodes = (
"497 874 LINE",
"399 748 LINE",
"399 748 OFFCURVE",
"430 748 OFFCURVE",
"430 748 CURVE",
"540 874 LINE"
);
}
);
width = 684;
}
);
unicode = 0106;
},
{
glyphname = Cdotaccent;
layers = (
{
layerId = "9C3819CB-81CB-4535-9429-AFFD112764D7";
paths = (
{
closed = 1;
nodes = (
"503 -12 OFFCURVE",
"564 12 OFFCURVE",
"618 42 CURVE",
"618 216 LINE",
"573 183 OFFCURVE",
"503 148 OFFCURVE",
"411 148 CURVE SMOOTH",
"291 148 OFFCURVE",
"210 223 OFFCURVE",
"210 343 CURVE SMOOTH",
"210 463 OFFCURVE",
"291 538 OFFCURVE",
"411 538 CURVE SMOOTH",
"503 538 OFFCURVE",
"573 503 OFFCURVE",
"618 470 CURVE",
"618 644 LINE",
"564 674 OFFCURVE",
"503 698 OFFCURVE",
"401 698 CURVE SMOOTH",
"187 698 OFFCURVE",
"30 552 OFFCURVE",
"30 343 CURVE SMOOTH",
"30 134 OFFCURVE",
"187 -12 OFFCURVE",
"401 -12 CURVE SMOOTH"
);
},
{
closed = 1;
nodes = (
"454 738 OFFCURVE",
"485 770 OFFCURVE",
"485 810 CURVE SMOOTH",
"485 850 OFFCURVE",
"454 883 OFFCURVE",
"394 883 CURVE SMOOTH",
"334 883 OFFCURVE",
"304 850 OFFCURVE",
"304 810 CURVE SMOOTH",
"304 770 OFFCURVE",
"334 738 OFFCURVE",
"394 738 CURVE SMOOTH"
);
}
);
width = 648;
},
{
layerId = "43C446DC-37EE-4C34-A65A-9E71F2AC18B3";
paths = (
{
closed = 1;
nodes = (
"510 -10 OFFCURVE",
"590 19 OFFCURVE",
"655 61 CURVE",
"655 97 LINE",
"593 54 OFFCURVE",
"512 18 OFFCURVE",
"410 18 CURVE",
"231 18 OFFCURVE",
"94 153 OFFCURVE",
"94 343 CURVE SMOOTH",
"94 534 OFFCURVE",
"231 670 OFFCURVE",
"410 670 CURVE",
"512 670 OFFCURVE",
"593 634 OFFCURVE",
"655 591 CURVE",
"655 627 LINE",
"590 669 OFFCURVE",
"510 698 OFFCURVE",
"410 698 CURVE",
"215 698 OFFCURVE",
"64 551 OFFCURVE",
"64 343 CURVE SMOOTH",
"64 136 OFFCURVE",
"215 -10 OFFCURVE",
"410 -10 CURVE SMOOTH"
);
},
{
closed = 1;
nodes = (
"434 784 OFFCURVE",
"446 796 OFFCURVE",
"446 811 CURVE SMOOTH",
"446 825 OFFCURVE",
"434 838 OFFCURVE",
"419 838 CURVE SMOOTH",
"404 838 OFFCURVE",
"392 825 OFFCURVE",
"392 811 CURVE SMOOTH",
"392 796 OFFCURVE",
"404 784 OFFCURVE",
"419 784 CURVE SMOOTH"
);
}
);
width = 684;
}
);
unicode = 010A;
},
{
glyphname = Ccaron;
layers = (
{
layerId = "9C3819CB-81CB-4535-9429-AFFD112764D7";
paths = (
{
closed = 1;
nodes = (
"503 -12 OFFCURVE",
"564 12 OFFCURVE",
"618 42 CURVE",
"618 216 LINE",
"573 183 OFFCURVE",
"503 148 OFFCURVE",
"411 148 CURVE SMOOTH",
"291 148 OFFCURVE",
"210 223 OFFCURVE",
"210 343 CURVE SMOOTH",
"210 463 OFFCURVE",
"291 538 OFFCURVE",
"411 538 CURVE SMOOTH",
"503 538 OFFCURVE",
"573 503 OFFCURVE",
"618 470 CURVE",
"618 644 LINE",
"564 674 OFFCURVE",
"503 698 OFFCURVE",
"401 698 CURVE SMOOTH",
"187 698 OFFCURVE",
"30 552 OFFCURVE",
"30 343 CURVE SMOOTH",
"30 134 OFFCURVE",
"187 -12 OFFCURVE",
"401 -12 CURVE SMOOTH"
);
},
{
closed = 1;
nodes = (
"466 748 LINE",
"583 874 LINE",
"432 874 LINE",
"394 827 LINE",
"356 874 LINE",
"205 874 LINE",
"322 748 LINE"
);
}
);
width = 648;
},
{
layerId = "43C446DC-37EE-4C34-A65A-9E71F2AC18B3";
paths = (
{
closed = 1;
nodes = (
"510 -10 OFFCURVE",
"590 19 OFFCURVE",
"655 61 CURVE",
"655 97 LINE",
"593 54 OFFCURVE",
"512 18 OFFCURVE",
"410 18 CURVE",
"231 18 OFFCURVE",
"94 153 OFFCURVE",
"94 343 CURVE SMOOTH",
"94 534 OFFCURVE",
"231 670 OFFCURVE",
"410 670 CURVE",
"512 670 OFFCURVE",
"593 634 OFFCURVE",
"655 591 CURVE",
"655 627 LINE",
"590 669 OFFCURVE",
"510 698 OFFCURVE",
"410 698 CURVE",
"215 698 OFFCURVE",
"64 551 OFFCURVE",
"64 343 CURVE SMOOTH",
"64 136 OFFCURVE",
"215 -10 OFFCURVE",
"410 -10 CURVE SMOOTH"
);
},
{
closed = 1;
nodes = (
"436 748 LINE",
"558 874 LINE",
"525 874 LINE",
"419 776 LINE",
"313 874 LINE",
"280 874 LINE",
"402 748 LINE"
);
}
);
width = 684;
}
);
unicode = 010C;
},
{
glyphname = D;
layers = (
{
anchors = (
{
name = center;
position = "{337, 344}";
}
);
layerId = "9C3819CB-81CB-4535-9429-AFFD112764D7";
paths = (
{
closed = 1;
nodes = (
"60 688 LINE",
"60 0 LINE",
"230 0 LINE",
"230 688 LINE"
);
},
{
closed = 1;
nodes = (
"190 160 LINE",
"190 0 LINE",
"340 0 LINE SMOOTH",
"544 0 OFFCURVE",
"695 142 OFFCURVE",
"695 343 CURVE SMOOTH",
"695 546 OFFCURVE",
"544 688 OFFCURVE",
"340 688 CURVE SMOOTH",
"190 688 LINE",
"190 528 LINE",
"340 528 LINE SMOOTH",
"446 528 OFFCURVE",
"525 457 OFFCURVE",
"525 343 CURVE SMOOTH",
"525 230 OFFCURVE",
"446 160 OFFCURVE",
"340 160 CURVE SMOOTH"
);
}
);
width = 725;
},
{
anchors = (
{
name = center;
position = "{356, 344}";
}
);
layerId = "43C446DC-37EE-4C34-A65A-9E71F2AC18B3";
paths = (
{
closed = 1;
nodes = (
"104 688 LINE",
"104 0 LINE",
"134 0 LINE",
"134 688 LINE"
);
},
{
closed = 1;
nodes = (
"122 28 LINE",
"122 0 LINE",
"312 0 LINE SMOOTH",
"539 0 OFFCURVE",
"688 136 OFFCURVE",
"688 343 CURVE SMOOTH",
"688 552 OFFCURVE",
"539 688 OFFCURVE",
"312 688 CURVE SMOOTH",
"122 688 LINE",
"122 660 LINE",
"312 660 LINE SMOOTH",
"521 660 OFFCURVE",
"658 534 OFFCURVE",
"658 343 CURVE SMOOTH",
"658 154 OFFCURVE",
"521 28 OFFCURVE",
"312 28 CURVE SMOOTH"
);
}
);
width = 752;
}
);
unicode = 0044;
},
{
glyphname = Dcaron;
layers = (
{
layerId = "9C3819CB-81CB-4535-9429-AFFD112764D7";
paths = (
{
closed = 1;
nodes = (
"60 688 LINE",
"60 0 LINE",
"230 0 LINE",
"230 688 LINE"
);
},
{
closed = 1;
nodes = (
"190 160 LINE",
"190 0 LINE",
"340 0 LINE SMOOTH",
"544 0 OFFCURVE",
"695 142 OFFCURVE",
"695 343 CURVE SMOOTH",
"695 546 OFFCURVE",
"544 688 OFFCURVE",
"340 688 CURVE SMOOTH",
"190 688 LINE",
"190 528 LINE",
"340 528 LINE SMOOTH",
"446 528 OFFCURVE",
"525 457 OFFCURVE",
"525 343 CURVE SMOOTH",
"525 230 OFFCURVE",
"446 160 OFFCURVE",
"340 160 CURVE SMOOTH"
);
},
{
closed = 1;
nodes = (
"409 748 LINE",
"526 874 LINE",
"375 874 LINE",
"337 827 LINE",
"299 874 LINE",
"148 874 LINE",
"265 748 LINE"
);
}
);
width = 725;
},
{
layerId = "43C446DC-37EE-4C34-A65A-9E71F2AC18B3";
paths = (
{
closed = 1;
nodes = (
"104 688 LINE",
"104 0 LINE",
"134 0 LINE",
"134 688 LINE"
);
},
{
closed = 1;
nodes = (
"122 28 LINE",
"122 0 LINE",
"312 0 LINE SMOOTH",
"539 0 OFFCURVE",
"688 136 OFFCURVE",
"688 343 CURVE SMOOTH",
"688 552 OFFCURVE",
"539 688 OFFCURVE",
"312 688 CURVE SMOOTH",
"122 688 LINE",
"122 660 LINE",
"312 660 LINE SMOOTH",
"521 660 OFFCURVE",
"658 534 OFFCURVE",
"658 343 CURVE SMOOTH",
"658 154 OFFCURVE",
"521 28 OFFCURVE",
"312 28 CURVE SMOOTH"
);
},
{
closed = 1;
nodes = (
"373 748 LINE",
"495 874 LINE",
"462 874 LINE",
"356 776 LINE",
"250 874 LINE",
"217 874 LINE",
"339 748 LINE"
);
}
);
width = 752;
}
);
unicode = 010E;
},
{
glyphname = E;
layers = (
{
layerId = "9C3819CB-81CB-4535-9429-AFFD112764D7";
paths = (
{
closed = 1;
nodes = (
"60 688 LINE",
"60 0 LINE",
"230 0 LINE",
"230 688 LINE"
);
},
{
closed = 1;
nodes = (
"93 528 LINE",
"606 528 LINE",
"606 688 LINE",
"93 688 LINE"
);
},
{
closed = 1;
nodes = (
"93 0 LINE",
"606 0 LINE",
"606 160 LINE",
"93 160 LINE"
);
},
{
closed = 1;
nodes = (
"93 266 LINE",
"556 266 LINE",
"556 426 LINE",
"93 426 LINE"
);
}
);
width = 641;
},
{
layerId = "43C446DC-37EE-4C34-A65A-9E71F2AC18B3";
paths = (
{
closed = 1;
nodes = (
"104 688 LINE",
"104 0 LINE",
"134 0 LINE",
"134 688 LINE"
);
},
{
closed = 1;
nodes = (
"120 660 LINE",
"555 660 LINE",
"555 688 LINE",
"120 688 LINE"
);
},
{
closed = 1;
nodes = (
"120 0 LINE",
"555 0 LINE",
"555 28 LINE",
"120 28 LINE"
);
},
{
closed = 1;
nodes = (
"120 336 LINE",
"505 336 LINE",
"505 364 LINE",
"120 364 LINE"
);
}
);
width = 609;
}
);
unicode = 0045;
},
{
glyphname = Egrave;
layers = (
{
layerId = "9C3819CB-81CB-4535-9429-AFFD112764D7";
paths = (
{
closed = 1;
nodes = (
"60 688 LINE",
"60 0 LINE",
"230 0 LINE",
"230 688 LINE"
);
},
{
closed = 1;
nodes = (
"93 528 LINE",
"606 528 LINE",
"606 688 LINE",
"93 688 LINE"
);
},
{
closed = 1;
nodes = (
"93 0 LINE",
"606 0 LINE",
"606 160 LINE",
"93 160 LINE"
);
},
{
closed = 1;
nodes = (
"93 266 LINE",
"556 266 LINE",
"556 426 LINE",
"93 426 LINE"
);
},
{
closed = 1;
nodes = (
"318 874 LINE",
"130 874 LINE",
"270 747 LINE",
"270 747 OFFCURVE",
"416 747 OFFCURVE",
"416 747 CURVE"
);
}
);
width = 641;
},
{
layerId = "43C446DC-37EE-4C34-A65A-9E71F2AC18B3";
paths = (
{
closed = 1;
nodes = (
"104 688 LINE",
"104 0 LINE",
"134 0 LINE",
"134 688 LINE"
);
},
{
closed = 1;
nodes = (
"120 660 LINE",
"555 660 LINE",
"555 688 LINE",
"120 688 LINE"
);
},
{
closed = 1;
nodes = (
"120 0 LINE",
"555 0 LINE",
"555 28 LINE",
"120 28 LINE"
);
},
{
closed = 1;
nodes = (
"120 336 LINE",
"505 336 LINE",
"505 364 LINE",
"120 364 LINE"
);
},
{
closed = 1;
nodes = (
"252 874 LINE",
"209 874 LINE",
"319 748 LINE",
"319 748 OFFCURVE",
"350 748 OFFCURVE",
"350 748 CURVE"
);
}
);
width = 609;
}
);
unicode = 00C8;
},
{
glyphname = Eacute;
layers = (
{
layerId = "9C3819CB-81CB-4535-9429-AFFD112764D7";
paths = (
{
closed = 1;
nodes = (
"60 688 LINE",
"60 0 LINE",
"230 0 LINE",
"230 688 LINE"
);
},
{
closed = 1;
nodes = (
"93 528 LINE",
"606 528 LINE",
"606 688 LINE",
"93 688 LINE"
);
},
{
closed = 1;
nodes = (
"93 0 LINE",
"606 0 LINE",
"606 160 LINE",
"93 160 LINE"
);
},
{
closed = 1;
nodes = (
"93 266 LINE",
"556 266 LINE",
"556 426 LINE",
"93 426 LINE"
);
},
{
closed = 1;
nodes = (
"348 874 LINE",
"250 747 LINE",
"250 747 OFFCURVE",
"396 747 OFFCURVE",
"396 747 CURVE",
"536 874 LINE"
);
}
);
width = 641;
},
{
layerId = "43C446DC-37EE-4C34-A65A-9E71F2AC18B3";
paths = (
{
closed = 1;
nodes = (
"104 688 LINE",
"104 0 LINE",
"134 0 LINE",
"134 688 LINE"
);
},
{
closed = 1;
nodes = (
"120 660 LINE",
"555 660 LINE",
"555 688 LINE",
"120 688 LINE"
);
},
{
closed = 1;
nodes = (
"120 0 LINE",
"555 0 LINE",
"555 28 LINE",
"120 28 LINE"
);
},
{
closed = 1;
nodes = (
"120 336 LINE",
"505 336 LINE",
"505 364 LINE",
"120 364 LINE"
);
},
{
closed = 1;
nodes = (
"407 874 LINE",
"309 748 LINE",
"309 748 OFFCURVE",
"340 748 OFFCURVE",
"340 748 CURVE",
"450 874 LINE"
);
}
);
width = 609;
}
);
unicode = 00C9;
},
{
glyphname = Ecircumflex;
layers = (
{
layerId = "9C3819CB-81CB-4535-9429-AFFD112764D7";
paths = (
{
closed = 1;
nodes = (
"60 688 LINE",
"60 0 LINE",
"230 0 LINE",
"230 688 LINE"
);
},
{
closed = 1;
nodes = (
"93 528 LINE",
"606 528 LINE",
"606 688 LINE",
"93 688 LINE"
);
},
{
closed = 1;
nodes = (
"93 0 LINE",
"606 0 LINE",
"606 160 LINE",
"93 160 LINE"
);
},
{
closed = 1;
nodes = (
"93 266 LINE",
"556 266 LINE",
"556 426 LINE",
"93 426 LINE"
);
},
{
closed = 1;
nodes = (
"144 748 LINE",
"295 748 LINE",
"333 795 LINE",
"371 748 LINE",
"522 748 LINE",
"405 874 LINE",
"261 874 LINE"
);
}
);
width = 641;
},
{
layerId = "43C446DC-37EE-4C34-A65A-9E71F2AC18B3";
paths = (
{
closed = 1;
nodes = (
"104 688 LINE",
"104 0 LINE",
"134 0 LINE",
"134 688 LINE"
);
},
{
closed = 1;
nodes = (
"120 660 LINE",
"555 660 LINE",
"555 688 LINE",
"120 688 LINE"
);
},
{
closed = 1;
nodes = (
"120 0 LINE",
"555 0 LINE",
"555 28 LINE",
"120 28 LINE"
);
},
{
closed = 1;
nodes = (
"120 336 LINE",
"505 336 LINE",
"505 364 LINE",
"120 364 LINE"
);
},
{
closed = 1;
nodes = (
"190 748 LINE",
"223 748 LINE",
"329 846 LINE",
"435 748 LINE",
"468 748 LINE",
"346 874 LINE",
"312 874 LINE"
);
}
);
width = 609;
}
);
unicode = 00CA;
},
{
glyphname = Edieresis;
layers = (
{
layerId = "9C3819CB-81CB-4535-9429-AFFD112764D7";
paths = (
{
closed = 1;
nodes = (
"60 688 LINE",
"60 0 LINE",
"230 0 LINE",
"230 688 LINE"
);
},
{
closed = 1;
nodes = (
"93 528 LINE",
"606 528 LINE",
"606 688 LINE",
"93 688 LINE"
);
},
{
closed = 1;
nodes = (
"93 0 LINE",
"606 0 LINE",
"606 160 LINE",
"93 160 LINE"
);
},
{
closed = 1;
nodes = (
"93 266 LINE",
"556 266 LINE",
"556 426 LINE",
"93 426 LINE"
);
},
{
closed = 1;
nodes = (
"278 738 OFFCURVE",
"315 765 OFFCURVE",
"315 809 CURVE SMOOTH",
"315 855 OFFCURVE",
"278 882 OFFCURVE",
"233 882 CURVE SMOOTH",
"188 882 OFFCURVE",
"152 855 OFFCURVE",
"152 809 CURVE SMOOTH",
"152 765 OFFCURVE",
"188 738 OFFCURVE",
"233 738 CURVE SMOOTH"
);
},
{
closed = 1;
nodes = (
"478 738 OFFCURVE",
"515 765 OFFCURVE",
"515 809 CURVE SMOOTH",
"515 855 OFFCURVE",
"478 882 OFFCURVE",
"433 882 CURVE SMOOTH",
"388 882 OFFCURVE",
"352 855 OFFCURVE",
"352 809 CURVE SMOOTH",
"352 765 OFFCURVE",
"388 738 OFFCURVE",
"433 738 CURVE SMOOTH"
);
}
);
width = 641;
},
{
layerId = "43C446DC-37EE-4C34-A65A-9E71F2AC18B3";
paths = (
{
closed = 1;
nodes = (
"104 688 LINE",
"104 0 LINE",
"134 0 LINE",
"134 688 LINE"
);
},
{
closed = 1;
nodes = (
"120 660 LINE",
"555 660 LINE",
"555 688 LINE",
"120 688 LINE"
);
},
{
closed = 1;
nodes = (
"120 0 LINE",
"555 0 LINE",
"555 28 LINE",
"120 28 LINE"
);
},
{
closed = 1;
nodes = (
"120 336 LINE",
"505 336 LINE",
"505 364 LINE",
"120 364 LINE"
);
},
{
closed = 1;
nodes = (
"264 784 OFFCURVE",
"276 796 OFFCURVE",
"276 811 CURVE SMOOTH",
"276 825 OFFCURVE",
"264 838 OFFCURVE",
"249 838 CURVE SMOOTH",
"234 838 OFFCURVE",
"222 825 OFFCURVE",
"222 811 CURVE SMOOTH",
"222 796 OFFCURVE",
"234 784 OFFCURVE",
"249 784 CURVE SMOOTH"
);
},
{
closed = 1;
nodes = (
"424 784 OFFCURVE",
"436 796 OFFCURVE",
"436 811 CURVE SMOOTH",
"436 825 OFFCURVE",
"424 838 OFFCURVE",
"409 838 CURVE SMOOTH",
"394 838 OFFCURVE",
"382 825 OFFCURVE",
"382 811 CURVE SMOOTH",
"382 796 OFFCURVE",
"394 784 OFFCURVE",
"409 784 CURVE SMOOTH"
);
}
);
width = 609;
}
);
unicode = 00CB;
},
{
glyphname = Emacron;
layers = (
{
layerId = "9C3819CB-81CB-4535-9429-AFFD112764D7";
paths = (
{
closed = 1;
nodes = (
"60 688 LINE",
"60 0 LINE",
"230 0 LINE",
"230 688 LINE"
);
},
{
closed = 1;
nodes = (
"93 528 LINE",
"606 528 LINE",
"606 688 LINE",
"93 688 LINE"
);
},
{
closed = 1;
nodes = (
"93 0 LINE",
"606 0 LINE",
"606 160 LINE",
"93 160 LINE"
);
},
{
closed = 1;
nodes = (
"93 266 LINE",
"556 266 LINE",
"556 426 LINE",
"93 426 LINE"
);
},
{
closed = 1;
nodes = (
"176 864 LINE",
"176 864 OFFCURVE",
"176 759 OFFCURVE",
"176 759 CURVE",
"491 759 LINE",
"491 864 LINE"
);
}
);
width = 641;
},
{
layerId = "43C446DC-37EE-4C34-A65A-9E71F2AC18B3";
paths = (
{
closed = 1;
nodes = (
"104 688 LINE",
"104 0 LINE",
"134 0 LINE",
"134 688 LINE"
);
},
{
closed = 1;
nodes = (
"120 660 LINE",
"555 660 LINE",
"555 688 LINE",
"120 688 LINE"
);
},
{
closed = 1;
nodes = (
"120 0 LINE",
"555 0 LINE",
"555 28 LINE",
"120 28 LINE"
);
},
{
closed = 1;
nodes = (
"120 336 LINE",
"505 336 LINE",
"505 364 LINE",
"120 364 LINE"
);
},
{
closed = 1;
nodes = (
"202 826 LINE",
"202 826 OFFCURVE",
"202 796 OFFCURVE",
"202 796 CURVE",
"457 796 LINE",
"457 826 LINE"
);
}
);
width = 609;
}
);
unicode = 0112;
},
{
glyphname = Ebreve;
layers = (
{
layerId = "9C3819CB-81CB-4535-9429-AFFD112764D7";
paths = (
{
closed = 1;
nodes = (
"60 688 LINE",
"60 0 LINE",
"230 0 LINE",
"230 688 LINE"
);
},
{
closed = 1;
nodes = (
"93 528 LINE",
"606 528 LINE",
"606 688 LINE",
"93 688 LINE"
);
},
{
closed = 1;
nodes = (
"93 0 LINE",
"606 0 LINE",
"606 160 LINE",
"93 160 LINE"
);
},
{
closed = 1;
nodes = (
"93 266 LINE",
"556 266 LINE",
"556 426 LINE",
"93 426 LINE"
);
},
{
closed = 1;
nodes = (
"426 738 OFFCURVE",
"494 797 OFFCURVE",
"494 874 CURVE",
"384 874 LINE",
"384 851 OFFCURVE",
"371 840 OFFCURVE",
"333 840 CURVE SMOOTH",
"295 840 OFFCURVE",
"282 851 OFFCURVE",
"282 874 CURVE",
"173 874 LINE",
"173 797 OFFCURVE",
"241 738 OFFCURVE",
"333 738 CURVE SMOOTH"
);
}
);
width = 641;
},
{
layerId = "43C446DC-37EE-4C34-A65A-9E71F2AC18B3";
paths = (
{
closed = 1;
nodes = (
"104 688 LINE",
"104 0 LINE",
"134 0 LINE",
"134 688 LINE"
);
},
{
closed = 1;
nodes = (
"120 660 LINE",
"555 660 LINE",
"555 688 LINE",
"120 688 LINE"
);
},
{
closed = 1;
nodes = (
"120 0 LINE",
"555 0 LINE",
"555 28 LINE",
"120 28 LINE"
);
},
{
closed = 1;
nodes = (
"120 336 LINE",
"505 336 LINE",
"505 364 LINE",
"120 364 LINE"
);
},
{
closed = 1;
nodes = (
"396 748 OFFCURVE",
"440 793 OFFCURVE",
"440 874 CURVE",
"411 874 LINE",
"411 805 OFFCURVE",
"374 775 OFFCURVE",
"329 775 CURVE SMOOTH",
"284 775 OFFCURVE",
"248 805 OFFCURVE",
"248 874 CURVE",
"219 874 LINE",
"219 793 OFFCURVE",
"263 748 OFFCURVE",
"329 748 CURVE SMOOTH"
);
}
);
width = 609;
}
);
unicode = 0114;
},
{
glyphname = Edotaccent;
layers = (
{
layerId = "9C3819CB-81CB-4535-9429-AFFD112764D7";
paths = (
{
closed = 1;
nodes = (
"60 688 LINE",
"60 0 LINE",
"230 0 LINE",
"230 688 LINE"
);
},
{
closed = 1;
nodes = (
"93 528 LINE",
"606 528 LINE",
"606 688 LINE",
"93 688 LINE"
);
},
{
closed = 1;
nodes = (
"93 0 LINE",
"606 0 LINE",
"606 160 LINE",
"93 160 LINE"
);
},
{
closed = 1;
nodes = (
"93 266 LINE",
"556 266 LINE",
"556 426 LINE",
"93 426 LINE"
);
},
{
closed = 1;
nodes = (
"393 738 OFFCURVE",
"424 770 OFFCURVE",
"424 810 CURVE SMOOTH",
"424 850 OFFCURVE",
"393 883 OFFCURVE",
"333 883 CURVE SMOOTH",
"273 883 OFFCURVE",
"243 850 OFFCURVE",
"243 810 CURVE SMOOTH",
"243 770 OFFCURVE",
"273 738 OFFCURVE",
"333 738 CURVE SMOOTH"
);
}
);
width = 641;
},
{
layerId = "43C446DC-37EE-4C34-A65A-9E71F2AC18B3";
paths = (
{
closed = 1;
nodes = (
"104 688 LINE",
"104 0 LINE",
"134 0 LINE",
"134 688 LINE"
);
},
{
closed = 1;
nodes = (
"120 660 LINE",
"555 660 LINE",
"555 688 LINE",
"120 688 LINE"
);
},
{
closed = 1;
nodes = (
"120 0 LINE",
"555 0 LINE",
"555 28 LINE",
"120 28 LINE"
);
},
{
closed = 1;
nodes = (
"120 336 LINE",
"505 336 LINE",
"505 364 LINE",
"120 364 LINE"
);
},
{
closed = 1;
nodes = (
"344 784 OFFCURVE",
"356 796 OFFCURVE",
"356 811 CURVE SMOOTH",
"356 825 OFFCURVE",
"344 838 OFFCURVE",
"329 838 CURVE SMOOTH",
"314 838 OFFCURVE",
"302 825 OFFCURVE",
"302 811 CURVE SMOOTH",
"302 796 OFFCURVE",
"314 784 OFFCURVE",
"329 784 CURVE SMOOTH"
);
}
);
width = 609;
}
);
unicode = 0116;
},
{
glyphname = Eogonek;
layers = (
{
layerId = "9C3819CB-81CB-4535-9429-AFFD112764D7";
paths = (
{
closed = 1;
nodes = (
"60 688 LINE",
"60 0 LINE",
"230 0 LINE",
"230 688 LINE"
);
},
{
closed = 1;
nodes = (
"93 528 LINE",
"606 528 LINE",
"606 688 LINE",
"93 688 LINE"
);
},
{
closed = 1;
nodes = (
"93 0 LINE",
"606 0 LINE",
"606 160 LINE",
"93 160 LINE"
);
},
{
closed = 1;
nodes = (
"93 266 LINE",
"556 266 LINE",
"556 426 LINE",
"93 426 LINE"
);
},
{
closed = 1;
nodes = (
"524 0 LINE",
"484 -23 OFFCURVE",
"459 -58 OFFCURVE",
"459 -94 CURVE SMOOTH",
"459 -152 OFFCURVE",
"507 -178 OFFCURVE",
"565 -178 CURVE SMOOTH",
"592 -178 OFFCURVE",
"619 -169 OFFCURVE",
"637 -158 CURVE",
"637 -69 LINE",
"621 -81 OFFCURVE",
"603 -87 OFFCURVE",
"588 -87 CURVE SMOOTH",
"572 -87 OFFCURVE",
"555 -83 OFFCURVE",
"555 -63 CURVE SMOOTH",
"555 -44 OFFCURVE",
"577 -21 OFFCURVE",
"606 0 CURVE"
);
}
);
width = 641;
},
{
layerId = "43C446DC-37EE-4C34-A65A-9E71F2AC18B3";
paths = (
{
closed = 1;
nodes = (
"104 688 LINE",
"104 0 LINE",
"134 0 LINE",
"134 688 LINE"
);
},
{
closed = 1;
nodes = (
"120 660 LINE",
"555 660 LINE",
"555 688 LINE",
"120 688 LINE"
);
},
{
closed = 1;
nodes = (
"120 0 LINE",
"555 0 LINE",
"555 28 LINE",
"120 28 LINE"
);
},
{
closed = 1;
nodes = (
"120 336 LINE",
"505 336 LINE",
"505 364 LINE",
"120 364 LINE"
);
},
{
closed = 1;
nodes = (
"527 0 LINE",
"466 -31 OFFCURVE",
"425 -63 OFFCURVE",
"425 -102 CURVE SMOOTH",
"425 -145 OFFCURVE",
"457 -168 OFFCURVE",
"504 -168 CURVE SMOOTH",
"536 -168 OFFCURVE",
"562 -157 OFFCURVE",
"581 -143 CURVE",
"581 -109 LINE",
"558 -130 OFFCURVE",
"531 -138 OFFCURVE",
"506 -138 CURVE SMOOTH",
"477 -138 OFFCURVE",
"457 -121 OFFCURVE",
"457 -98 CURVE",
"457 -67 OFFCURVE",
"497 -36 OFFCURVE",
"555 0 CURVE"
);
}
);
width = 609;
}
);
unicode = 0118;
},
{
glyphname = Ecaron;
layers = (
{
layerId = "9C3819CB-81CB-4535-9429-AFFD112764D7";
paths = (
{
closed = 1;
nodes = (
"60 688 LINE",
"60 0 LINE",
"230 0 LINE",
"230 688 LINE"
);
},
{
closed = 1;
nodes = (
"93 528 LINE",
"606 528 LINE",
"606 688 LINE",
"93 688 LINE"
);
},
{
closed = 1;
nodes = (
"93 0 LINE",
"606 0 LINE",
"606 160 LINE",
"93 160 LINE"
);
},
{
closed = 1;
nodes = (
"93 266 LINE",
"556 266 LINE",
"556 426 LINE",
"93 426 LINE"
);
},
{
closed = 1;
nodes = (
"405 748 LINE",
"522 874 LINE",
"371 874 LINE",
"333 827 LINE",
"295 874 LINE",
"144 874 LINE",
"261 748 LINE"
);
}
);
width = 641;
},
{
layerId = "43C446DC-37EE-4C34-A65A-9E71F2AC18B3";
paths = (
{
closed = 1;
nodes = (
"104 688 LINE",
"104 0 LINE",
"134 0 LINE",
"134 688 LINE"
);
},
{
closed = 1;
nodes = (
"120 660 LINE",
"555 660 LINE",
"555 688 LINE",
"120 688 LINE"
);
},
{
closed = 1;
nodes = (
"120 0 LINE",
"555 0 LINE",
"555 28 LINE",
"120 28 LINE"
);
},
{
closed = 1;
nodes = (
"120 336 LINE",
"505 336 LINE",
"505 364 LINE",
"120 364 LINE"
);
},
{
closed = 1;
nodes = (
"346 748 LINE",
"468 874 LINE",
"435 874 LINE",
"329 776 LINE",
"223 874 LINE",
"190 874 LINE",
"312 748 LINE"
);
}
);
width = 609;
}
);
unicode = 011A;
},
{
glyphname = Etilde;
layers = (
{
layerId = "9C3819CB-81CB-4535-9429-AFFD112764D7";
paths = (
{
closed = 1;
nodes = (
"60 688 LINE",
"60 0 LINE",
"230 0 LINE",
"230 688 LINE"
);
},
{
closed = 1;
nodes = (
"93 528 LINE",
"606 528 LINE",
"606 688 LINE",
"93 688 LINE"
);
},
{
closed = 1;
nodes = (
"93 0 LINE",
"606 0 LINE",
"606 160 LINE",
"93 160 LINE"
);
},
{
closed = 1;
nodes = (
"93 266 LINE",
"556 266 LINE",
"556 426 LINE",
"93 426 LINE"
);
},
{
closed = 1;
nodes = (
"444 738 OFFCURVE",
"479 759 OFFCURVE",
"511 806 CURVE",
"511 896 LINE",
"488 870 OFFCURVE",
"455 833 OFFCURVE",
"410 833 CURVE SMOOTH",
"363 833 OFFCURVE",
"308 884 OFFCURVE",
"259 884 CURVE SMOOTH",
"222 884 OFFCURVE",
"187 863 OFFCURVE",
"155 816 CURVE",
"155 726 LINE",
"178 752 OFFCURVE",
"211 789 OFFCURVE",
"256 789 CURVE SMOOTH",
"303 789 OFFCURVE",
"358 738 OFFCURVE",
"408 738 CURVE SMOOTH"
);
}
);
width = 641;
},
{
layerId = "43C446DC-37EE-4C34-A65A-9E71F2AC18B3";
paths = (
{
closed = 1;
nodes = (
"104 688 LINE",
"104 0 LINE",
"134 0 LINE",
"134 688 LINE"
);
},
{
closed = 1;
nodes = (
"120 660 LINE",
"555 660 LINE",
"555 688 LINE",
"120 688 LINE"
);
},
{
closed = 1;
nodes = (
"120 0 LINE",
"555 0 LINE",
"555 28 LINE",
"120 28 LINE"
);
},
{
closed = 1;
nodes = (
"120 336 LINE",
"505 336 LINE",
"505 364 LINE",
"120 364 LINE"
);
},
{
closed = 1;
nodes = (
"421 767 OFFCURVE",
"443 779 OFFCURVE",
"461 805 CURVE",
"461 848 LINE",
"448 817 OFFCURVE",
"427 797 OFFCURVE",
"398 797 CURVE SMOOTH",
"348 797 OFFCURVE",
"324 855 OFFCURVE",
"265 855 CURVE SMOOTH",
"239 855 OFFCURVE",
"217 842 OFFCURVE",
"198 815 CURVE",
"198 774 LINE",
"213 805 OFFCURVE",
"234 825 OFFCURVE",
"261 825 CURVE SMOOTH",
"311 825 OFFCURVE",
"337 767 OFFCURVE",
"396 767 CURVE SMOOTH"
);
}
);
width = 609;
}
);
unicode = 1EBC;
},
{
glyphname = F;
layers = (
{
layerId = "9C3819CB-81CB-4535-9429-AFFD112764D7";
paths = (
{
closed = 1;
nodes = (
"60 688 LINE",
"60 0 LINE",
"230 0 LINE",
"230 688 LINE"
);
},
{
closed = 1;
nodes = (
"93 528 LINE",
"596 528 LINE",
"596 688 LINE",
"93 688 LINE"
);
},
{
closed = 1;
nodes = (
"93 249 LINE",
"546 249 LINE",
"546 409 LINE",
"93 409 LINE"
);
}
);
width = 621;
},
{
layerId = "43C446DC-37EE-4C34-A65A-9E71F2AC18B3";
paths = (
{
closed = 1;
nodes = (
"104 688 LINE",
"104 0 LINE",
"134 0 LINE",
"134 688 LINE"
);
},
{
closed = 1;
nodes = (
"120 660 LINE",
"555 660 LINE",
"555 688 LINE",
"120 688 LINE"
);
},
{
closed = 1;
nodes = (
"120 316 LINE",
"505 316 LINE",
"505 344 LINE",
"120 344 LINE"
);
}
);
width = 594;
}
);
unicode = 0046;
},
{
glyphname = G;
layers = (
{
anchors = (
{
name = center;
position = "{402, 343}";
}
);
layerId = "9C3819CB-81CB-4535-9429-AFFD112764D7";
paths = (
{
closed = 1;
nodes = (
"513 148 OFFCURVE",
"588 182 OFFCURVE",
"635 216 CURVE",
"635 42 LINE",
"581 12 OFFCURVE",
"520 -12 OFFCURVE",
"418 -12 CURVE SMOOTH",
"194 -12 OFFCURVE",
"30 134 OFFCURVE",
"30 343 CURVE SMOOTH",
"30 552 OFFCURVE",
"194 698 OFFCURVE",
"408 698 CURVE SMOOTH",
"510 698 OFFCURVE",
"581 674 OFFCURVE",
"635 644 CURVE",
"635 470 LINE",
"588 504 OFFCURVE",
"514 538 OFFCURVE",
"417 538 CURVE SMOOTH",
"294 538 OFFCURVE",
"210 463 OFFCURVE",
"210 343 CURVE SMOOTH",
"210 223 OFFCURVE",
"293 148 OFFCURVE",
"416 148 CURVE SMOOTH"
);
},
{
closed = 1;
nodes = (
"465 90 LINE",
"465 259 LINE",
"316 259 LINE",
"316 397 LINE",
"635 397 LINE",
"635 90 LINE"
);
}
);
width = 680;
},
{
anchors = (
{
name = center;
position = "{414, 344}";
}
);
guideLines = (
{
angle = 90;
position = "{671, 0}";
}
);
layerId = "43C446DC-37EE-4C34-A65A-9E71F2AC18B3";
paths = (
{
closed = 1;
nodes = (
"522 18 OFFCURVE",
"603 54 OFFCURVE",
"665 97 CURVE",
"665 61 LINE",
"600 19 OFFCURVE",
"520 -10 OFFCURVE",
"420 -10 CURVE",
"212 -10 OFFCURVE",
"64 136 OFFCURVE",
"64 343 CURVE SMOOTH",
"64 552 OFFCURVE",
"212 698 OFFCURVE",
"420 698 CURVE",
"520 698 OFFCURVE",
"600 669 OFFCURVE",
"665 627 CURVE",
"665 591 LINE",
"603 634 OFFCURVE",
"522 670 OFFCURVE",
"420 670 CURVE",
"228 670 OFFCURVE",
"94 535 OFFCURVE",
"94 343 CURVE SMOOTH",
"94 153 OFFCURVE",
"228 18 OFFCURVE",
"420 18 CURVE SMOOTH"
);
},
{
closed = 1;
nodes = (
"635 61 LINE",
"635 331 LINE",
"355 331 LINE",
"355 359 LINE",
"665 359 LINE",
"665 75 LINE"
);
}
);
width = 739;
}
);
unicode = 0047;
},
{
glyphname = Gcircumflex;
layers = (
{
layerId = "9C3819CB-81CB-4535-9429-AFFD112764D7";
paths = (
{
closed = 1;
nodes = (
"513 148 OFFCURVE",
"588 182 OFFCURVE",
"635 216 CURVE",
"635 42 LINE",
"581 12 OFFCURVE",
"520 -12 OFFCURVE",
"418 -12 CURVE SMOOTH",
"194 -12 OFFCURVE",
"30 134 OFFCURVE",
"30 343 CURVE SMOOTH",
"30 552 OFFCURVE",
"194 698 OFFCURVE",
"408 698 CURVE SMOOTH",
"510 698 OFFCURVE",
"581 674 OFFCURVE",
"635 644 CURVE",
"635 470 LINE",
"588 504 OFFCURVE",
"514 538 OFFCURVE",
"417 538 CURVE SMOOTH",
"294 538 OFFCURVE",
"210 463 OFFCURVE",
"210 343 CURVE SMOOTH",
"210 223 OFFCURVE",
"293 148 OFFCURVE",
"416 148 CURVE SMOOTH"
);
},
{
closed = 1;
nodes = (
"465 90 LINE",
"465 259 LINE",
"316 259 LINE",
"316 397 LINE",
"635 397 LINE",
"635 90 LINE"
);
},
{
closed = 1;
nodes = (
"339 874 LINE",
"483 874 LINE",
"600 748 LINE",
"449 748 LINE",
"411 795 LINE",
"373 748 LINE",
"222 748 LINE"
);
}
);
width = 680;
},
{
layerId = "43C446DC-37EE-4C34-A65A-9E71F2AC18B3";
paths = (
{
closed = 1;
nodes = (
"522 18 OFFCURVE",
"603 54 OFFCURVE",
"665 97 CURVE",
"665 61 LINE",
"600 19 OFFCURVE",
"520 -10 OFFCURVE",
"420 -10 CURVE",
"212 -10 OFFCURVE",
"64 136 OFFCURVE",
"64 343 CURVE SMOOTH",
"64 552 OFFCURVE",
"212 698 OFFCURVE",
"420 698 CURVE",
"520 698 OFFCURVE",
"600 669 OFFCURVE",
"665 627 CURVE",
"665 591 LINE",
"603 634 OFFCURVE",
"522 670 OFFCURVE",
"420 670 CURVE",
"228 670 OFFCURVE",
"94 535 OFFCURVE",
"94 343 CURVE SMOOTH",
"94 153 OFFCURVE",
"228 18 OFFCURVE",
"420 18 CURVE SMOOTH"
);
},
{
closed = 1;
nodes = (
"635 61 LINE",
"635 331 LINE",
"355 331 LINE",
"355 359 LINE",
"665 359 LINE",
"665 75 LINE"
);
},
{
closed = 1;
nodes = (
"386 874 LINE",
"420 874 LINE",
"542 748 LINE",
"509 748 LINE",
"403 846 LINE",
"297 748 LINE",
"264 748 LINE"
);
}
);
width = 739;
}
);
unicode = 011C;
},
{
glyphname = Gbreve;
layers = (
{
layerId = "9C3819CB-81CB-4535-9429-AFFD112764D7";
paths = (
{
closed = 1;
nodes = (
"513 148 OFFCURVE",
"588 182 OFFCURVE",
"635 216 CURVE",
"635 42 LINE",
"581 12 OFFCURVE",
"520 -12 OFFCURVE",
"418 -12 CURVE SMOOTH",
"194 -12 OFFCURVE",
"30 134 OFFCURVE",
"30 343 CURVE SMOOTH",
"30 552 OFFCURVE",
"194 698 OFFCURVE",
"408 698 CURVE SMOOTH",
"510 698 OFFCURVE",
"581 674 OFFCURVE",
"635 644 CURVE",
"635 470 LINE",
"588 504 OFFCURVE",
"514 538 OFFCURVE",
"417 538 CURVE SMOOTH",
"294 538 OFFCURVE",
"210 463 OFFCURVE",
"210 343 CURVE SMOOTH",
"210 223 OFFCURVE",
"293 148 OFFCURVE",
"416 148 CURVE SMOOTH"
);
},
{
closed = 1;
nodes = (
"465 90 LINE",
"465 259 LINE",
"316 259 LINE",
"316 397 LINE",
"635 397 LINE",
"635 90 LINE"
);
},
{
closed = 1;
nodes = (
"310 738 OFFCURVE",
"242 797 OFFCURVE",
"242 874 CURVE",
"351 874 LINE",
"351 851 OFFCURVE",
"364 840 OFFCURVE",
"402 840 CURVE SMOOTH",
"440 840 OFFCURVE",
"453 851 OFFCURVE",
"453 874 CURVE",
"563 874 LINE",
"563 797 OFFCURVE",
"495 738 OFFCURVE",
"402 738 CURVE SMOOTH"
);
}
);
width = 680;
},
{
layerId = "43C446DC-37EE-4C34-A65A-9E71F2AC18B3";
paths = (
{
closed = 1;
nodes = (
"522 18 OFFCURVE",
"603 54 OFFCURVE",
"665 97 CURVE",
"665 61 LINE",
"600 19 OFFCURVE",
"520 -10 OFFCURVE",
"420 -10 CURVE",
"212 -10 OFFCURVE",
"64 136 OFFCURVE",
"64 343 CURVE SMOOTH",
"64 552 OFFCURVE",
"212 698 OFFCURVE",
"420 698 CURVE",
"520 698 OFFCURVE",
"600 669 OFFCURVE",
"665 627 CURVE",
"665 591 LINE",
"603 634 OFFCURVE",
"522 670 OFFCURVE",
"420 670 CURVE",
"228 670 OFFCURVE",
"94 535 OFFCURVE",
"94 343 CURVE SMOOTH",
"94 153 OFFCURVE",
"228 18 OFFCURVE",
"420 18 CURVE SMOOTH"
);
},
{
closed = 1;
nodes = (
"635 61 LINE",
"635 331 LINE",
"355 331 LINE",
"355 359 LINE",
"665 359 LINE",
"665 75 LINE"
);
},
{
closed = 1;
nodes = (
"348 748 OFFCURVE",
"304 793 OFFCURVE",
"304 874 CURVE",
"333 874 LINE",
"333 805 OFFCURVE",
"369 775 OFFCURVE",
"414 775 CURVE SMOOTH",
"459 775 OFFCURVE",
"496 805 OFFCURVE",
"496 874 CURVE",
"525 874 LINE",
"525 793 OFFCURVE",
"481 748 OFFCURVE",
"414 748 CURVE SMOOTH"
);
}
);
width = 739;
}
);
unicode = 011E;
},
{
glyphname = Gdotaccent;
layers = (
{
layerId = "9C3819CB-81CB-4535-9429-AFFD112764D7";
paths = (
{
closed = 1;
nodes = (
"513 148 OFFCURVE",
"588 182 OFFCURVE",
"635 216 CURVE",
"635 42 LINE",
"581 12 OFFCURVE",
"520 -12 OFFCURVE",
"418 -12 CURVE SMOOTH",
"194 -12 OFFCURVE",
"30 134 OFFCURVE",
"30 343 CURVE SMOOTH",
"30 552 OFFCURVE",
"194 698 OFFCURVE",
"408 698 CURVE SMOOTH",
"510 698 OFFCURVE",
"581 674 OFFCURVE",
"635 644 CURVE",
"635 470 LINE",
"588 504 OFFCURVE",
"514 538 OFFCURVE",
"417 538 CURVE SMOOTH",
"294 538 OFFCURVE",
"210 463 OFFCURVE",
"210 343 CURVE SMOOTH",
"210 223 OFFCURVE",
"293 148 OFFCURVE",
"416 148 CURVE SMOOTH"
);
},
{
closed = 1;
nodes = (
"465 90 LINE",
"465 259 LINE",
"316 259 LINE",
"316 397 LINE",
"635 397 LINE",
"635 90 LINE"
);
},
{
closed = 1;
nodes = (
"342 738 OFFCURVE",
"312 770 OFFCURVE",
"312 810 CURVE SMOOTH",
"312 850 OFFCURVE",
"342 883 OFFCURVE",
"402 883 CURVE SMOOTH",
"462 883 OFFCURVE",
"493 850 OFFCURVE",
"493 810 CURVE SMOOTH",
"493 770 OFFCURVE",
"462 738 OFFCURVE",
"402 738 CURVE SMOOTH"
);
}
);
width = 680;
},
{
layerId = "43C446DC-37EE-4C34-A65A-9E71F2AC18B3";
paths = (
{
closed = 1;
nodes = (
"522 18 OFFCURVE",
"603 54 OFFCURVE",
"665 97 CURVE",
"665 61 LINE",
"600 19 OFFCURVE",
"520 -10 OFFCURVE",
"420 -10 CURVE",
"212 -10 OFFCURVE",
"64 136 OFFCURVE",
"64 343 CURVE SMOOTH",
"64 552 OFFCURVE",
"212 698 OFFCURVE",
"420 698 CURVE",
"520 698 OFFCURVE",
"600 669 OFFCURVE",
"665 627 CURVE",
"665 591 LINE",
"603 634 OFFCURVE",
"522 670 OFFCURVE",
"420 670 CURVE",
"228 670 OFFCURVE",
"94 535 OFFCURVE",
"94 343 CURVE SMOOTH",
"94 153 OFFCURVE",
"228 18 OFFCURVE",
"420 18 CURVE SMOOTH"
);
},
{
closed = 1;
nodes = (
"635 61 LINE",
"635 331 LINE",
"355 331 LINE",
"355 359 LINE",
"665 359 LINE",
"665 75 LINE"
);
},
{
closed = 1;
nodes = (
"399 784 OFFCURVE",
"387 796 OFFCURVE",
"387 811 CURVE SMOOTH",
"387 825 OFFCURVE",
"399 838 OFFCURVE",
"414 838 CURVE SMOOTH",
"429 838 OFFCURVE",
"441 825 OFFCURVE",
"441 811 CURVE SMOOTH",
"441 796 OFFCURVE",
"429 784 OFFCURVE",
"414 784 CURVE SMOOTH"
);
}
);
width = 739;
}
);
unicode = 0120;
},
{
glyphname = Gcommaaccent;
layers = (
{
layerId = "9C3819CB-81CB-4535-9429-AFFD112764D7";
paths = (
{
closed = 1;
nodes = (
"513 148 OFFCURVE",
"588 182 OFFCURVE",
"635 216 CURVE",
"635 42 LINE",
"581 12 OFFCURVE",
"520 -12 OFFCURVE",
"418 -12 CURVE SMOOTH",
"194 -12 OFFCURVE",
"30 134 OFFCURVE",
"30 343 CURVE SMOOTH",
"30 552 OFFCURVE",
"194 698 OFFCURVE",
"408 698 CURVE SMOOTH",
"510 698 OFFCURVE",
"581 674 OFFCURVE",
"635 644 CURVE",
"635 470 LINE",
"588 504 OFFCURVE",
"514 538 OFFCURVE",
"417 538 CURVE SMOOTH",
"294 538 OFFCURVE",
"210 463 OFFCURVE",
"210 343 CURVE SMOOTH",
"210 223 OFFCURVE",
"293 148 OFFCURVE",
"416 148 CURVE SMOOTH"
);
},
{
closed = 1;
nodes = (
"465 90 LINE",
"465 259 LINE",
"316 259 LINE",
"316 397 LINE",
"635 397 LINE",
"635 90 LINE"
);
},
{
closed = 1;
nodes = (
"415 -211 LINE",
"290 -211 LINE",
"320 -51 LINE",
"475 -51 LINE"
);
}
);
width = 680;
},
{
layerId = "43C446DC-37EE-4C34-A65A-9E71F2AC18B3";
paths = (
{
closed = 1;
nodes = (
"522 18 OFFCURVE",
"603 54 OFFCURVE",
"665 97 CURVE",
"665 61 LINE",
"600 19 OFFCURVE",
"520 -10 OFFCURVE",
"420 -10 CURVE",
"212 -10 OFFCURVE",
"64 136 OFFCURVE",
"64 343 CURVE SMOOTH",
"64 552 OFFCURVE",
"212 698 OFFCURVE",
"420 698 CURVE",
"520 698 OFFCURVE",
"600 669 OFFCURVE",
"665 627 CURVE",
"665 591 LINE",
"603 634 OFFCURVE",
"522 670 OFFCURVE",
"420 670 CURVE",
"228 670 OFFCURVE",
"94 535 OFFCURVE",
"94 343 CURVE SMOOTH",
"94 153 OFFCURVE",
"228 18 OFFCURVE",
"420 18 CURVE SMOOTH"
);
},
{
closed = 1;
nodes = (
"635 61 LINE",
"635 331 LINE",
"355 331 LINE",
"355 359 LINE",
"665 359 LINE",
"665 75 LINE"
);
},
{
closed = 1;
nodes = (
"393 -178 LINE",
"366 -178 LINE",
"404 -51 LINE",
"443 -51 LINE"
);
}
);
width = 739;
}
);
unicode = 0122;
},
{
glyphname = H;
layers = (
{
layerId = "9C3819CB-81CB-4535-9429-AFFD112764D7";
paths = (
{
closed = 1;
nodes = (
"60 688 LINE",
"60 0 LINE",
"230 0 LINE",
"230 688 LINE"
);
},
{
closed = 1;
nodes = (
"510 688 LINE",
"510 0 LINE",
"680 0 LINE",
"680 688 LINE"
);
},
{
closed = 1;
nodes = (
"123 266 LINE",
"586 266 LINE",
"586 426 LINE",
"123 426 LINE"
);
}
);
width = 740;
},
{
layerId = "43C446DC-37EE-4C34-A65A-9E71F2AC18B3";
paths = (
{
closed = 1;
nodes = (
"104 688 LINE",
"104 0 LINE",
"134 0 LINE",
"134 688 LINE"
);
},
{
closed = 1;
nodes = (
"601 688 LINE",
"601 0 LINE",
"631 0 LINE",
"631 688 LINE"
);
},
{
closed = 1;
nodes = (
"122 339 LINE",
"615 339 LINE",
"615 367 LINE",
"122 367 LINE"
);
}
);
width = 735;
}
);
unicode = 0048;
},
{
glyphname = I;
layers = (
{
layerId = "9C3819CB-81CB-4535-9429-AFFD112764D7";
paths = (
{
closed = 1;
nodes = (
"60 688 LINE",
"60 0 LINE",
"230 0 LINE",
"230 688 LINE"
);
}
);
width = 290;
},
{
layerId = "43C446DC-37EE-4C34-A65A-9E71F2AC18B3";
paths = (
{
closed = 1;
nodes = (
"104 688 LINE",
"104 0 LINE",
"134 0 LINE",
"134 688 LINE"
);
}
);
width = 238;
}
);
unicode = 0049;
},
{
glyphname = Igrave;
layers = (
{
layerId = "9C3819CB-81CB-4535-9429-AFFD112764D7";
paths = (
{
closed = 1;
nodes = (
"60 688 LINE",
"60 0 LINE",
"230 0 LINE",
"230 688 LINE"
);
},
{
closed = 1;
nodes = (
"130 874 LINE",
"-58 874 LINE",
"82 747 LINE",
"82 747 OFFCURVE",
"228 747 OFFCURVE",
"228 747 CURVE"
);
}
);
width = 290;
},
{
layerId = "43C446DC-37EE-4C34-A65A-9E71F2AC18B3";
paths = (
{
closed = 1;
nodes = (
"104 688 LINE",
"104 0 LINE",
"134 0 LINE",
"134 688 LINE"
);
},
{
closed = 1;
nodes = (
"42 874 LINE",
"-1 874 LINE",
"109 748 LINE",
"109 748 OFFCURVE",
"140 748 OFFCURVE",
"140 748 CURVE"
);
}
);
width = 238;
}
);
unicode = 00CC;
},
{
glyphname = Iacute;
layers = (
{
layerId = "9C3819CB-81CB-4535-9429-AFFD112764D7";
paths = (
{
closed = 1;
nodes = (
"60 688 LINE",
"60 0 LINE",
"230 0 LINE",
"230 688 LINE"
);
},
{
closed = 1;
nodes = (
"160 874 LINE",
"62 747 LINE",
"62 747 OFFCURVE",
"208 747 OFFCURVE",
"208 747 CURVE",
"348 874 LINE"
);
}
);
width = 290;
},
{
layerId = "43C446DC-37EE-4C34-A65A-9E71F2AC18B3";
paths = (
{
closed = 1;
nodes = (
"104 688 LINE",
"104 0 LINE",
"134 0 LINE",
"134 688 LINE"
);
},
{
closed = 1;
nodes = (
"197 874 LINE",
"99 748 LINE",
"99 748 OFFCURVE",
"130 748 OFFCURVE",
"130 748 CURVE",
"240 874 LINE"
);
}
);
width = 238;
}
);
unicode = 00CD;
},
{
glyphname = Icircumflex;
layers = (
{
layerId = "9C3819CB-81CB-4535-9429-AFFD112764D7";
paths = (
{
closed = 1;
nodes = (
"60 688 LINE",
"60 0 LINE",
"230 0 LINE",
"230 688 LINE"
);
},
{
closed = 1;
nodes = (
"-44 748 LINE",
"107 748 LINE",
"145 795 LINE",
"183 748 LINE",
"334 748 LINE",
"217 874 LINE",
"73 874 LINE"
);
}
);
width = 290;
},
{
layerId = "43C446DC-37EE-4C34-A65A-9E71F2AC18B3";
paths = (
{
closed = 1;
nodes = (
"104 688 LINE",
"104 0 LINE",
"134 0 LINE",
"134 688 LINE"
);
},
{
closed = 1;
nodes = (
"-20 748 LINE",
"13 748 LINE",
"119 846 LINE",
"225 748 LINE",
"258 748 LINE",
"136 874 LINE",
"102 874 LINE"
);
}
);
width = 238;
}
);
unicode = 00CE;
},
{
glyphname = Idieresis;
layers = (
{
layerId = "9C3819CB-81CB-4535-9429-AFFD112764D7";
paths = (
{
closed = 1;
nodes = (
"60 688 LINE",
"60 0 LINE",
"230 0 LINE",
"230 688 LINE"
);
},
{
closed = 1;
nodes = (
"90 738 OFFCURVE",
"127 765 OFFCURVE",
"127 809 CURVE SMOOTH",
"127 855 OFFCURVE",
"90 882 OFFCURVE",
"45 882 CURVE SMOOTH",
"0 882 OFFCURVE",
"-36 855 OFFCURVE",
"-36 809 CURVE SMOOTH",
"-36 765 OFFCURVE",
"0 738 OFFCURVE",
"45 738 CURVE SMOOTH"
);
},
{
closed = 1;
nodes = (
"290 738 OFFCURVE",
"327 765 OFFCURVE",
"327 809 CURVE SMOOTH",
"327 855 OFFCURVE",
"290 882 OFFCURVE",
"245 882 CURVE SMOOTH",
"200 882 OFFCURVE",
"164 855 OFFCURVE",
"164 809 CURVE SMOOTH",
"164 765 OFFCURVE",
"200 738 OFFCURVE",
"245 738 CURVE SMOOTH"
);
}
);
width = 290;
},
{
layerId = "43C446DC-37EE-4C34-A65A-9E71F2AC18B3";
paths = (
{
closed = 1;
nodes = (
"104 688 LINE",
"104 0 LINE",
"134 0 LINE",
"134 688 LINE"
);
},
{
closed = 1;
nodes = (
"54 784 OFFCURVE",
"66 796 OFFCURVE",
"66 811 CURVE SMOOTH",
"66 825 OFFCURVE",
"54 838 OFFCURVE",
"39 838 CURVE SMOOTH",
"24 838 OFFCURVE",
"12 825 OFFCURVE",
"12 811 CURVE SMOOTH",
"12 796 OFFCURVE",
"24 784 OFFCURVE",
"39 784 CURVE SMOOTH"
);
},
{
closed = 1;
nodes = (
"214 784 OFFCURVE",
"226 796 OFFCURVE",
"226 811 CURVE SMOOTH",
"226 825 OFFCURVE",
"214 838 OFFCURVE",
"199 838 CURVE SMOOTH",
"184 838 OFFCURVE",
"172 825 OFFCURVE",
"172 811 CURVE SMOOTH",
"172 796 OFFCURVE",
"184 784 OFFCURVE",
"199 784 CURVE SMOOTH"
);
}
);
width = 238;
}
);
unicode = 00CF;
},
{
glyphname = Itilde;
layers = (
{
layerId = "9C3819CB-81CB-4535-9429-AFFD112764D7";
paths = (
{
closed = 1;
nodes = (
"60 688 LINE",
"60 0 LINE",
"230 0 LINE",
"230 688 LINE"
);
},
{
closed = 1;
nodes = (
"256 738 OFFCURVE",
"291 759 OFFCURVE",
"323 806 CURVE",
"323 896 LINE",
"300 870 OFFCURVE",
"267 833 OFFCURVE",
"222 833 CURVE SMOOTH",
"175 833 OFFCURVE",
"120 884 OFFCURVE",
"71 884 CURVE SMOOTH",
"34 884 OFFCURVE",
"-1 863 OFFCURVE",
"-33 816 CURVE",
"-33 726 LINE",
"-10 752 OFFCURVE",
"23 789 OFFCURVE",
"68 789 CURVE SMOOTH",
"115 789 OFFCURVE",
"170 738 OFFCURVE",
"220 738 CURVE SMOOTH"
);
}
);
width = 290;
},
{
layerId = "43C446DC-37EE-4C34-A65A-9E71F2AC18B3";
paths = (
{
closed = 1;
nodes = (
"104 688 LINE",
"104 0 LINE",
"134 0 LINE",
"134 688 LINE"
);
},
{
closed = 1;
nodes = (
"211 767 OFFCURVE",
"233 779 OFFCURVE",
"251 805 CURVE",
"251 848 LINE",
"238 817 OFFCURVE",
"217 797 OFFCURVE",
"188 797 CURVE SMOOTH",
"138 797 OFFCURVE",
"114 855 OFFCURVE",
"55 855 CURVE SMOOTH",
"29 855 OFFCURVE",
"7 842 OFFCURVE",
"-12 815 CURVE",
"-12 774 LINE",
"3 805 OFFCURVE",
"24 825 OFFCURVE",
"51 825 CURVE SMOOTH",
"101 825 OFFCURVE",
"127 767 OFFCURVE",
"186 767 CURVE SMOOTH"
);
}
);
width = 238;
}
);
unicode = 0128;
},
{
glyphname = Imacron;
layers = (
{
layerId = "9C3819CB-81CB-4535-9429-AFFD112764D7";
paths = (
{
closed = 1;
nodes = (
"60 688 LINE",
"60 0 LINE",
"230 0 LINE",
"230 688 LINE"
);
},
{
closed = 1;
nodes = (
"-12 864 LINE",
"-12 864 OFFCURVE",
"-12 759 OFFCURVE",
"-12 759 CURVE",
"303 759 LINE",
"303 864 LINE"
);
}
);
width = 290;
},
{
layerId = "43C446DC-37EE-4C34-A65A-9E71F2AC18B3";
paths = (
{
closed = 1;
nodes = (
"104 688 LINE",
"104 0 LINE",
"134 0 LINE",
"134 688 LINE"
);
},
{
closed = 1;
nodes = (
"-8 826 LINE",
"-8 826 OFFCURVE",
"-8 796 OFFCURVE",
"-8 796 CURVE",
"247 796 LINE",
"247 826 LINE"
);
}
);
width = 238;
}
);
unicode = 012A;
},
{
glyphname = Ibreve;
layers = (
{
layerId = "9C3819CB-81CB-4535-9429-AFFD112764D7";
paths = (
{
closed = 1;
nodes = (
"60 688 LINE",
"60 0 LINE",
"230 0 LINE",
"230 688 LINE"
);
},
{
closed = 1;
nodes = (
"238 738 OFFCURVE",
"306 797 OFFCURVE",
"306 874 CURVE",
"196 874 LINE",
"196 851 OFFCURVE",
"183 840 OFFCURVE",
"145 840 CURVE SMOOTH",
"107 840 OFFCURVE",
"94 851 OFFCURVE",
"94 874 CURVE",
"-15 874 LINE",
"-15 797 OFFCURVE",
"53 738 OFFCURVE",
"145 738 CURVE SMOOTH"
);
}
);
width = 290;
},
{
layerId = "43C446DC-37EE-4C34-A65A-9E71F2AC18B3";
paths = (
{
closed = 1;
nodes = (
"104 688 LINE",
"104 0 LINE",
"134 0 LINE",
"134 688 LINE"
);
},
{
closed = 1;
nodes = (
"186 748 OFFCURVE",
"230 793 OFFCURVE",
"230 874 CURVE",
"201 874 LINE",
"201 805 OFFCURVE",
"164 775 OFFCURVE",
"119 775 CURVE SMOOTH",
"74 775 OFFCURVE",
"38 805 OFFCURVE",
"38 874 CURVE",
"9 874 LINE",
"9 793 OFFCURVE",
"53 748 OFFCURVE",
"119 748 CURVE SMOOTH"
);
}
);
width = 238;
}
);
unicode = 012C;
},
{
glyphname = Iogonek;
layers = (
{
layerId = "9C3819CB-81CB-4535-9429-AFFD112764D7";
paths = (
{
closed = 1;
nodes = (
"60 688 LINE",
"60 0 LINE",
"230 0 LINE",
"230 688 LINE"
);
},
{
closed = 1;
nodes = (
"60 0 LINE",
"20 -23 OFFCURVE",
"-5 -58 OFFCURVE",
"-5 -94 CURVE SMOOTH",
"-5 -152 OFFCURVE",
"43 -178 OFFCURVE",
"101 -178 CURVE SMOOTH",
"128 -178 OFFCURVE",
"155 -169 OFFCURVE",
"173 -158 CURVE",
"173 -69 LINE",
"157 -81 OFFCURVE",
"139 -87 OFFCURVE",
"124 -87 CURVE SMOOTH",
"108 -87 OFFCURVE",
"91 -83 OFFCURVE",
"91 -63 CURVE SMOOTH",
"91 -44 OFFCURVE",
"113 -21 OFFCURVE",
"142 0 CURVE"
);
}
);
width = 290;
},
{
layerId = "43C446DC-37EE-4C34-A65A-9E71F2AC18B3";
paths = (
{
closed = 1;
nodes = (
"104 688 LINE",
"104 0 LINE",
"134 0 LINE",
"134 688 LINE"
);
},
{
closed = 1;
nodes = (
"106 0 LINE",
"45 -31 OFFCURVE",
"4 -63 OFFCURVE",
"4 -102 CURVE SMOOTH",
"4 -145 OFFCURVE",
"36 -168 OFFCURVE",
"83 -168 CURVE SMOOTH",
"115 -168 OFFCURVE",
"141 -157 OFFCURVE",
"160 -143 CURVE",
"160 -109 LINE",
"137 -130 OFFCURVE",
"110 -138 OFFCURVE",
"85 -138 CURVE SMOOTH",
"56 -138 OFFCURVE",
"36 -121 OFFCURVE",
"36 -98 CURVE",
"36 -67 OFFCURVE",
"76 -36 OFFCURVE",
"134 0 CURVE"
);
}
);
width = 238;
}
);
unicode = 012E;
},
{
glyphname = Idotaccent;
layers = (
{
layerId = "9C3819CB-81CB-4535-9429-AFFD112764D7";
paths = (
{
closed = 1;
nodes = (
"60 688 LINE",
"60 0 LINE",
"230 0 LINE",
"230 688 LINE"
);
},
{
closed = 1;
nodes = (
"205 738 OFFCURVE",
"236 770 OFFCURVE",
"236 810 CURVE SMOOTH",
"236 850 OFFCURVE",
"205 883 OFFCURVE",
"145 883 CURVE SMOOTH",
"85 883 OFFCURVE",
"55 850 OFFCURVE",
"55 810 CURVE SMOOTH",
"55 770 OFFCURVE",
"85 738 OFFCURVE",
"145 738 CURVE SMOOTH"
);
}
);
width = 290;
},
{
layerId = "43C446DC-37EE-4C34-A65A-9E71F2AC18B3";
paths = (
{
closed = 1;
nodes = (
"104 688 LINE",
"104 0 LINE",
"134 0 LINE",
"134 688 LINE"
);
},
{
closed = 1;
nodes = (
"134 784 OFFCURVE",
"146 796 OFFCURVE",
"146 811 CURVE SMOOTH",
"146 825 OFFCURVE",
"134 838 OFFCURVE",
"119 838 CURVE SMOOTH",
"104 838 OFFCURVE",
"92 825 OFFCURVE",
"92 811 CURVE SMOOTH",
"92 796 OFFCURVE",
"104 784 OFFCURVE",
"119 784 CURVE SMOOTH"
);
}
);
width = 238;
}
);
unicode = 0130;
},
{
glyphname = J;
layers = (
{
layerId = "9C3819CB-81CB-4535-9429-AFFD112764D7";
paths = (
{
closed = 1;
nodes = (
"10 236 LINE",
"77 177 OFFCURVE",
"157 148 OFFCURVE",
"226 148 CURVE SMOOTH",
"282 148 OFFCURVE",
"321 171 OFFCURVE",
"321 236 CURVE SMOOTH",
"321 688 LINE",
"491 688 LINE",
"491 230 LINE SMOOTH",
"491 89 OFFCURVE",
"403 -12 OFFCURVE",
"230 -12 CURVE SMOOTH",
"119 -12 OFFCURVE",
"53 31 OFFCURVE",
"10 61 CURVE"
);
}
);
width = 546;
},
{
guideLines = (
{
angle = 90;
position = "{32, 0}";
}
);
layerId = "43C446DC-37EE-4C34-A65A-9E71F2AC18B3";
paths = (
{
closed = 1;
nodes = (
"19 102 LINE",
"57 65 OFFCURVE",
"138 20 OFFCURVE",
"229 20 CURVE SMOOTH",
"324 20 OFFCURVE",
"400 68 OFFCURVE",
"400 191 CURVE",
"400 688 LINE",
"430 688 LINE",
"430 193 LINE",
"430 45 OFFCURVE",
"335 -10 OFFCURVE",
"229 -10 CURVE SMOOTH",
"145 -10 OFFCURVE",
"67 26 OFFCURVE",
"19 65 CURVE"
);
}
);
width = 524;
}
);
unicode = 004A;
},
{
glyphname = Jcircumflex;
layers = (
{
layerId = "9C3819CB-81CB-4535-9429-AFFD112764D7";
paths = (
{
closed = 1;
nodes = (
"10 236 LINE",
"77 177 OFFCURVE",
"157 148 OFFCURVE",
"226 148 CURVE SMOOTH",
"282 148 OFFCURVE",
"321 171 OFFCURVE",
"321 236 CURVE SMOOTH",
"321 688 LINE",
"491 688 LINE",
"491 230 LINE SMOOTH",
"491 89 OFFCURVE",
"403 -12 OFFCURVE",
"230 -12 CURVE SMOOTH",
"119 -12 OFFCURVE",
"53 31 OFFCURVE",
"10 61 CURVE"
);
},
{
closed = 1;
nodes = (
"339 874 LINE",
"483 874 LINE",
"600 748 LINE",
"449 748 LINE",
"411 795 LINE",
"373 748 LINE",
"222 748 LINE"
);
}
);
width = 556;
},
{
layerId = "43C446DC-37EE-4C34-A65A-9E71F2AC18B3";
paths = (
{
closed = 1;
nodes = (
"19 102 LINE",
"57 65 OFFCURVE",
"138 20 OFFCURVE",
"229 20 CURVE SMOOTH",
"324 20 OFFCURVE",
"400 68 OFFCURVE",
"400 191 CURVE",
"400 688 LINE",
"430 688 LINE",
"430 193 LINE",
"430 45 OFFCURVE",
"335 -10 OFFCURVE",
"229 -10 CURVE SMOOTH",
"145 -10 OFFCURVE",
"67 26 OFFCURVE",
"19 65 CURVE"
);
},
{
closed = 1;
nodes = (
"388 874 LINE",
"422 874 LINE",
"544 748 LINE",
"511 748 LINE",
"405 846 LINE",
"299 748 LINE",
"266 748 LINE"
);
}
);
width = 524;
}
);
unicode = 0134;
},
{
glyphname = K;
layers = (
{
anchors = (
{
name = center;
position = "{357, 344}";
}
);
layerId = "9C3819CB-81CB-4535-9429-AFFD112764D7";
paths = (
{
closed = 1;
nodes = (
"60 688 LINE",
"60 0 LINE",
"230 0 LINE",
"230 688 LINE"
);
},
{
closed = 1;
nodes = (
"694 0 LINE",
"469 361 LINE",
"680 688 LINE",
"488 688 LINE",
"288 350 LINE",
"491 0 LINE"
);
},
{
closed = 1;
nodes = (
"157 266 LINE",
"389 266 LINE",
"389 416 LINE",
"157 416 LINE"
);
}
);
width = 699;
},
{
anchors = (
{
name = center;
position = "{307, 344}";
}
);
layerId = "43C446DC-37EE-4C34-A65A-9E71F2AC18B3";
paths = (
{
closed = 1;
nodes = (
"104 688 LINE",
"104 0 LINE",
"134 0 LINE",
"134 688 LINE"
);
},
{
closed = 1;
nodes = (
"590 0 LINE",
"333 355 LINE",
"571 688 LINE",
"535 688 LINE",
"298 354 LINE",
"556 0 LINE"
);
},
{
closed = 1;
nodes = (
"111 340 LINE",
"328 340 LINE",
"328 368 LINE",
"111 368 LINE"
);
}
);
width = 600;
}
);
unicode = 004B;
},
{
glyphname = Kcommaaccent;
layers = (
{
layerId = "9C3819CB-81CB-4535-9429-AFFD112764D7";
paths = (
{
closed = 1;
nodes = (
"60 688 LINE",
"60 0 LINE",
"230 0 LINE",
"230 688 LINE"
);
},
{
closed = 1;
nodes = (
"694 0 LINE",
"469 361 LINE",
"680 688 LINE",
"488 688 LINE",
"288 350 LINE",
"491 0 LINE"
);
},
{
closed = 1;
nodes = (
"157 266 LINE",
"389 266 LINE",
"389 416 LINE",
"157 416 LINE"
);
},
{
closed = 1;
nodes = (
"430 -51 LINE",
"275 -51 LINE",
"245 -211 LINE",
"370 -211 LINE"
);
}
);
width = 699;
},
{
layerId = "43C446DC-37EE-4C34-A65A-9E71F2AC18B3";
paths = (
{
closed = 1;
nodes = (
"104 688 LINE",
"104 0 LINE",
"134 0 LINE",
"134 688 LINE"
);
},
{
closed = 1;
nodes = (
"590 0 LINE",
"333 355 LINE",
"571 688 LINE",
"535 688 LINE",
"298 354 LINE",
"556 0 LINE"
);
},
{
closed = 1;
nodes = (
"111 340 LINE",
"328 340 LINE",
"328 368 LINE",
"111 368 LINE"
);
},
{
closed = 1;
nodes = (
"336 -51 LINE",
"297 -51 LINE",
"259 -178 LINE",
"286 -178 LINE"
);
}
);
width = 600;
}
);
unicode = 0136;
},
{
glyphname = L;
layers = (
{
layerId = "9C3819CB-81CB-4535-9429-AFFD112764D7";
paths = (
{
closed = 1;
nodes = (
"60 688 LINE",
"60 0 LINE",
"230 0 LINE",
"230 688 LINE"
);
},
{
closed = 1;
nodes = (
"93 0 LINE",
"566 0 LINE",
"566 160 LINE",
"93 160 LINE"
);
}
);
width = 586;
},
{
layerId = "43C446DC-37EE-4C34-A65A-9E71F2AC18B3";
paths = (
{
closed = 1;
nodes = (
"104 688 LINE",
"104 0 LINE",
"134 0 LINE",
"134 688 LINE"
);
},
{
closed = 1;
nodes = (
"120 0 LINE",
"555 0 LINE",
"555 28 LINE",
"120 28 LINE"
);
}
);
width = 574;
}
);
unicode = 004C;
},
{
glyphname = Lacute;
layers = (
{
layerId = "9C3819CB-81CB-4535-9429-AFFD112764D7";
paths = (
{
closed = 1;
nodes = (
"60 688 LINE",
"60 0 LINE",
"230 0 LINE",
"230 688 LINE"
);
},
{
closed = 1;
nodes = (
"93 0 LINE",
"566 0 LINE",
"566 160 LINE",
"93 160 LINE"
);
},
{
closed = 1;
nodes = (
"162 874 LINE",
"64 747 LINE",
"64 747 OFFCURVE",
"210 747 OFFCURVE",
"210 747 CURVE",
"350 874 LINE"
);
}
);
width = 586;
},
{
layerId = "43C446DC-37EE-4C34-A65A-9E71F2AC18B3";
paths = (
{
closed = 1;
nodes = (
"104 688 LINE",
"104 0 LINE",
"134 0 LINE",
"134 688 LINE"
);
},
{
closed = 1;
nodes = (
"120 0 LINE",
"555 0 LINE",
"555 28 LINE",
"120 28 LINE"
);
},
{
closed = 1;
nodes = (
"207 874 LINE",
"109 748 LINE",
"109 748 OFFCURVE",
"140 748 OFFCURVE",
"140 748 CURVE",
"250 874 LINE"
);
}
);
width = 574;
}
);
unicode = 0139;
},
{
glyphname = Lcommaaccent;
layers = (
{
layerId = "9C3819CB-81CB-4535-9429-AFFD112764D7";
paths = (
{
closed = 1;
nodes = (
"60 688 LINE",
"60 0 LINE",
"230 0 LINE",
"230 688 LINE"
);
},
{
closed = 1;
nodes = (
"93 0 LINE",
"566 0 LINE",
"566 160 LINE",
"93 160 LINE"
);
},
{
closed = 1;
nodes = (
"386 -51 LINE",
"231 -51 LINE",
"201 -211 LINE",
"326 -211 LINE"
);
}
);
width = 586;
},
{
layerId = "43C446DC-37EE-4C34-A65A-9E71F2AC18B3";
paths = (
{
closed = 1;
nodes = (
"104 688 LINE",
"104 0 LINE",
"134 0 LINE",
"134 688 LINE"
);
},
{
closed = 1;
nodes = (
"120 0 LINE",
"555 0 LINE",
"555 28 LINE",
"120 28 LINE"
);
},
{
closed = 1;
nodes = (
"358 -51 LINE",
"319 -51 LINE",
"281 -178 LINE",
"308 -178 LINE"
);
}
);
width = 574;
}
);
unicode = 013B;
},
{
glyphname = Lcaron;
layers = (
{
layerId = "9C3819CB-81CB-4535-9429-AFFD112764D7";
paths = (
{
closed = 1;
nodes = (
"60 688 LINE",
"60 0 LINE",
"230 0 LINE",
"230 688 LINE"
);
},
{
closed = 1;
nodes = (
"93 0 LINE",
"566 0 LINE",
"566 160 LINE",
"93 160 LINE"
);
},
{
closed = 1;
nodes = (
"536 688 LINE",
"381 688 LINE",
"351 528 LINE",
"476 528 LINE"
);
}
);
width = 586;
},
{
layerId = "43C446DC-37EE-4C34-A65A-9E71F2AC18B3";
paths = (
{
closed = 1;
nodes = (
"104 688 LINE",
"104 0 LINE",
"134 0 LINE",
"134 688 LINE"
);
},
{
closed = 1;
nodes = (
"120 0 LINE",
"555 0 LINE",
"555 28 LINE",
"120 28 LINE"
);
},
{
closed = 1;
nodes = (
"475 688 LINE",
"436 688 LINE",
"398 561 LINE",
"425 561 LINE"
);
}
);
width = 574;
}
);
unicode = 013D;
},
{
glyphname = M;
layers = (
{
layerId = "9C3819CB-81CB-4535-9429-AFFD112764D7";
paths = (
{
closed = 1;
nodes = (
"380 0 LINE",
"570 0 LINE",
"720 417 LINE",
"720 0 LINE",
"890 0 LINE",
"890 688 LINE",
"656 688 LINE",
"475 162 LINE",
"294 688 LINE",
"60 688 LINE",
"60 0 LINE",
"230 0 LINE",
"230 417 LINE"
);
}
);
width = 950;
},
{
layerId = "43C446DC-37EE-4C34-A65A-9E71F2AC18B3";
paths = (
{
closed = 1;
nodes = (
"463 0 LINE",
"495 0 LINE",
"824 636 LINE",
"824 0 LINE",
"854 0 LINE",
"854 688 LINE",
"816 688 LINE",
"479 34 LINE",
"142 688 LINE",
"104 688 LINE",
"104 0 LINE",
"134 0 LINE",
"134 636 LINE"
);
}
);
width = 958;
}
);
unicode = 004D;
},
{
glyphname = N;
layers = (
{
layerId = "9C3819CB-81CB-4535-9429-AFFD112764D7";
paths = (
{
closed = 1;
nodes = (
"220 688 LINE",
"50 688 LINE",
"50 0 LINE",
"220 0 LINE",
"220 394 LINE",
"506 0 LINE",
"667 0 LINE",
"667 688 LINE",
"497 688 LINE",
"497 284 LINE"
);
}
);
width = 727;
},
{
layerId = "43C446DC-37EE-4C34-A65A-9E71F2AC18B3";
paths = (
{
closed = 1;
nodes = (
"127 688 LINE",
"99 688 LINE",
"99 0 LINE",
"129 0 LINE",
"129 634 LINE",
"598 0 LINE",
"626 0 LINE",
"626 688 LINE",
"596 688 LINE",
"596 54 LINE"
);
}
);
width = 725;
}
);
unicode = 004E;
},
{
glyphname = Ntilde;
layers = (
{
layerId = "9C3819CB-81CB-4535-9429-AFFD112764D7";
paths = (
{
closed = 1;
nodes = (
"220 688 LINE",
"50 688 LINE",
"50 0 LINE",
"220 0 LINE",
"220 394 LINE",
"506 0 LINE",
"667 0 LINE",
"667 688 LINE",
"497 688 LINE",
"497 284 LINE"
);
},
{
closed = 1;
nodes = (
"469 738 OFFCURVE",
"504 759 OFFCURVE",
"536 806 CURVE",
"536 896 LINE",
"513 870 OFFCURVE",
"480 833 OFFCURVE",
"435 833 CURVE SMOOTH",
"388 833 OFFCURVE",
"333 884 OFFCURVE",
"284 884 CURVE SMOOTH",
"247 884 OFFCURVE",
"212 863 OFFCURVE",
"180 816 CURVE",
"180 726 LINE",
"203 752 OFFCURVE",
"236 789 OFFCURVE",
"281 789 CURVE SMOOTH",
"328 789 OFFCURVE",
"383 738 OFFCURVE",
"433 738 CURVE SMOOTH"
);
}
);
width = 727;
},
{
layerId = "43C446DC-37EE-4C34-A65A-9E71F2AC18B3";
paths = (
{
closed = 1;
nodes = (
"127 688 LINE",
"99 688 LINE",
"99 0 LINE",
"129 0 LINE",
"129 634 LINE",
"598 0 LINE",
"626 0 LINE",
"626 688 LINE",
"596 688 LINE",
"596 54 LINE"
);
},
{
closed = 1;
nodes = (
"454 767 OFFCURVE",
"476 779 OFFCURVE",
"494 805 CURVE",
"494 848 LINE",
"481 817 OFFCURVE",
"460 797 OFFCURVE",
"431 797 CURVE SMOOTH",
"381 797 OFFCURVE",
"357 855 OFFCURVE",
"298 855 CURVE SMOOTH",
"272 855 OFFCURVE",
"250 842 OFFCURVE",
"231 815 CURVE",
"231 774 LINE",
"246 805 OFFCURVE",
"267 825 OFFCURVE",
"294 825 CURVE SMOOTH",
"344 825 OFFCURVE",
"370 767 OFFCURVE",
"429 767 CURVE SMOOTH"
);
}
);
width = 725;
}
);
unicode = 00D1;
},
{
glyphname = Nacute;
layers = (
{
layerId = "9C3819CB-81CB-4535-9429-AFFD112764D7";
paths = (
{
closed = 1;
nodes = (
"220 688 LINE",
"50 688 LINE",
"50 0 LINE",
"220 0 LINE",
"220 394 LINE",
"506 0 LINE",
"667 0 LINE",
"667 688 LINE",
"497 688 LINE",
"497 284 LINE"
);
},
{
closed = 1;
nodes = (
"373 874 LINE",
"275 747 LINE",
"275 747 OFFCURVE",
"421 747 OFFCURVE",
"421 747 CURVE",
"561 874 LINE"
);
}
);
width = 727;
},
{
layerId = "43C446DC-37EE-4C34-A65A-9E71F2AC18B3";
paths = (
{
closed = 1;
nodes = (
"127 688 LINE",
"99 688 LINE",
"99 0 LINE",
"129 0 LINE",
"129 634 LINE",
"598 0 LINE",
"626 0 LINE",
"626 688 LINE",
"596 688 LINE",
"596 54 LINE"
);
},
{
closed = 1;
nodes = (
"440 874 LINE",
"342 748 LINE",
"342 748 OFFCURVE",
"373 748 OFFCURVE",
"373 748 CURVE",
"483 874 LINE"
);
}
);
width = 725;
}
);
unicode = 0143;
},
{
glyphname = Ncommaaccent;
layers = (
{
layerId = "9C3819CB-81CB-4535-9429-AFFD112764D7";
paths = (
{
closed = 1;
nodes = (
"220 688 LINE",
"50 688 LINE",
"50 0 LINE",
"220 0 LINE",
"220 394 LINE",
"506 0 LINE",
"667 0 LINE",
"667 688 LINE",
"497 688 LINE",
"497 284 LINE"
);
},
{
closed = 1;
nodes = (
"441 -51 LINE",
"286 -51 LINE",
"256 -211 LINE",
"381 -211 LINE"
);
}
);
width = 727;
},
{
layerId = "43C446DC-37EE-4C34-A65A-9E71F2AC18B3";
paths = (
{
closed = 1;
nodes = (
"127 688 LINE",
"99 688 LINE",
"99 0 LINE",
"129 0 LINE",
"129 634 LINE",
"598 0 LINE",
"626 0 LINE",
"626 688 LINE",
"596 688 LINE",
"596 54 LINE"
);
},
{
closed = 1;
nodes = (
"391 -51 LINE",
"352 -51 LINE",
"314 -178 LINE",
"341 -178 LINE"
);
}
);
width = 725;
}
);
unicode = 0145;
},
{
glyphname = Ncaron;
layers = (
{
layerId = "9C3819CB-81CB-4535-9429-AFFD112764D7";
paths = (
{
closed = 1;
nodes = (
"220 688 LINE",
"50 688 LINE",
"50 0 LINE",
"220 0 LINE",
"220 394 LINE",
"506 0 LINE",
"667 0 LINE",
"667 688 LINE",
"497 688 LINE",
"497 284 LINE"
);
},
{
closed = 1;
nodes = (
"430 748 LINE",
"547 874 LINE",
"396 874 LINE",
"358 827 LINE",
"320 874 LINE",
"169 874 LINE",
"286 748 LINE"
);
}
);
width = 727;
},
{
layerId = "43C446DC-37EE-4C34-A65A-9E71F2AC18B3";
paths = (
{
closed = 1;
nodes = (
"127 688 LINE",
"99 688 LINE",
"99 0 LINE",
"129 0 LINE",
"129 634 LINE",
"598 0 LINE",
"626 0 LINE",
"626 688 LINE",
"596 688 LINE",
"596 54 LINE"
);
},
{
closed = 1;
nodes = (
"379 748 LINE",
"501 874 LINE",
"468 874 LINE",
"362 776 LINE",
"256 874 LINE",
"223 874 LINE",
"345 748 LINE"
);
}
);
width = 725;
}
);
unicode = 0147;
},
{
glyphname = O;
layers = (
{
layerId = "9C3819CB-81CB-4535-9429-AFFD112764D7";
paths = (
{
closed = 1;
nodes = (
"181 -10 OFFCURVE",
"30 136 OFFCURVE",
"30 343 CURVE SMOOTH",
"30 552 OFFCURVE",
"181 698 OFFCURVE",
"386 698 CURVE SMOOTH",
"590 698 OFFCURVE",
"741 552 OFFCURVE",
"741 343 CURVE SMOOTH",
"741 136 OFFCURVE",
"590 -10 OFFCURVE",
"386 -10 CURVE SMOOTH"
);
},
{
closed = 1;
nodes = (
"486 160 OFFCURVE",
"561 230 OFFCURVE",
"561 343 CURVE SMOOTH",
"561 457 OFFCURVE",
"486 528 OFFCURVE",
"386 528 CURVE SMOOTH",
"285 528 OFFCURVE",
"210 457 OFFCURVE",
"210 343 CURVE SMOOTH",
"210 230 OFFCURVE",
"286 160 OFFCURVE",
"386 160 CURVE SMOOTH"
);
}
);
width = 771;
},
{
guideLines = (
{
position = "{0, 669}";
},
{
position = "{0, 81}";
},
{
angle = 90;
position = "{429, 0}";
},
{
position = "{0, 375}";
}
);
layerId = "43C446DC-37EE-4C34-A65A-9E71F2AC18B3";
paths = (
{
closed = 1;
nodes = (
"214 -10 OFFCURVE",
"64 136 OFFCURVE",
"64 343 CURVE SMOOTH",
"64 552 OFFCURVE",
"214 698 OFFCURVE",
"410 698 CURVE SMOOTH",
"605 698 OFFCURVE",
"755 552 OFFCURVE",
"755 343 CURVE SMOOTH",
"755 136 OFFCURVE",
"605 -10 OFFCURVE",
"410 -10 CURVE SMOOTH"
);
},
{
closed = 1;
nodes = (
"589 20 OFFCURVE",
"725 154 OFFCURVE",
"725 343 CURVE SMOOTH",
"725 534 OFFCURVE",
"589 668 OFFCURVE",
"410 668 CURVE SMOOTH",
"230 668 OFFCURVE",
"94 534 OFFCURVE",
"94 343 CURVE SMOOTH",
"94 154 OFFCURVE",
"230 20 OFFCURVE",
"410 20 CURVE SMOOTH"
);
}
);
width = 819;
}
);
unicode = 004F;
},
{
glyphname = Ograve;
layers = (
{
layerId = "9C3819CB-81CB-4535-9429-AFFD112764D7";
paths = (
{
closed = 1;
nodes = (
"181 -10 OFFCURVE",
"30 136 OFFCURVE",
"30 343 CURVE SMOOTH",
"30 552 OFFCURVE",
"181 698 OFFCURVE",
"386 698 CURVE SMOOTH",
"590 698 OFFCURVE",
"741 552 OFFCURVE",
"741 343 CURVE SMOOTH",
"741 136 OFFCURVE",
"590 -10 OFFCURVE",
"386 -10 CURVE SMOOTH"
);
},
{
closed = 1;
nodes = (
"486 160 OFFCURVE",
"561 230 OFFCURVE",
"561 343 CURVE SMOOTH",
"561 457 OFFCURVE",
"486 528 OFFCURVE",
"386 528 CURVE SMOOTH",
"285 528 OFFCURVE",
"210 457 OFFCURVE",
"210 343 CURVE SMOOTH",
"210 230 OFFCURVE",
"286 160 OFFCURVE",
"386 160 CURVE SMOOTH"
);
},
{
closed = 1;
nodes = (
"468 747 LINE",
"468 747 OFFCURVE",
"322 747 OFFCURVE",
"322 747 CURVE",
"182 874 LINE",
"370 874 LINE"
);
}
);
width = 771;
},
{
layerId = "43C446DC-37EE-4C34-A65A-9E71F2AC18B3";
paths = (
{
closed = 1;
nodes = (
"214 -10 OFFCURVE",
"64 136 OFFCURVE",
"64 343 CURVE SMOOTH",
"64 552 OFFCURVE",
"214 698 OFFCURVE",
"410 698 CURVE SMOOTH",
"605 698 OFFCURVE",
"755 552 OFFCURVE",
"755 343 CURVE SMOOTH",
"755 136 OFFCURVE",
"605 -10 OFFCURVE",
"410 -10 CURVE SMOOTH"
);
},
{
closed = 1;
nodes = (
"589 20 OFFCURVE",
"725 154 OFFCURVE",
"725 343 CURVE SMOOTH",
"725 534 OFFCURVE",
"589 668 OFFCURVE",
"410 668 CURVE SMOOTH",
"230 668 OFFCURVE",
"94 534 OFFCURVE",
"94 343 CURVE SMOOTH",
"94 154 OFFCURVE",
"230 20 OFFCURVE",
"410 20 CURVE SMOOTH"
);
},
{
closed = 1;
nodes = (
"430 748 LINE",
"430 748 OFFCURVE",
"399 748 OFFCURVE",
"399 748 CURVE",
"289 874 LINE",
"332 874 LINE"
);
}
);
width = 819;
}
);
unicode = 00D2;
},
{
glyphname = Oacute;
layers = (
{
layerId = "9C3819CB-81CB-4535-9429-AFFD112764D7";
paths = (
{
closed = 1;
nodes = (
"181 -10 OFFCURVE",
"30 136 OFFCURVE",
"30 343 CURVE SMOOTH",
"30 552 OFFCURVE",
"181 698 OFFCURVE",
"386 698 CURVE SMOOTH",
"590 698 OFFCURVE",
"741 552 OFFCURVE",
"741 343 CURVE SMOOTH",
"741 136 OFFCURVE",
"590 -10 OFFCURVE",
"386 -10 CURVE SMOOTH"
);
},
{
closed = 1;
nodes = (
"486 160 OFFCURVE",
"561 230 OFFCURVE",
"561 343 CURVE SMOOTH",
"561 457 OFFCURVE",
"486 528 OFFCURVE",
"386 528 CURVE SMOOTH",
"285 528 OFFCURVE",
"210 457 OFFCURVE",
"210 343 CURVE SMOOTH",
"210 230 OFFCURVE",
"286 160 OFFCURVE",
"386 160 CURVE SMOOTH"
);
},
{
closed = 1;
nodes = (
"588 874 LINE",
"448 747 LINE",
"448 747 OFFCURVE",
"302 747 OFFCURVE",
"302 747 CURVE",
"400 874 LINE"
);
}
);
width = 771;
},
{
layerId = "43C446DC-37EE-4C34-A65A-9E71F2AC18B3";
paths = (
{
closed = 1;
nodes = (
"214 -10 OFFCURVE",
"64 136 OFFCURVE",
"64 343 CURVE SMOOTH",
"64 552 OFFCURVE",
"214 698 OFFCURVE",
"410 698 CURVE SMOOTH",
"605 698 OFFCURVE",
"755 552 OFFCURVE",
"755 343 CURVE SMOOTH",
"755 136 OFFCURVE",
"605 -10 OFFCURVE",
"410 -10 CURVE SMOOTH"
);
},
{
closed = 1;
nodes = (
"589 20 OFFCURVE",
"725 154 OFFCURVE",
"725 343 CURVE SMOOTH",
"725 534 OFFCURVE",
"589 668 OFFCURVE",
"410 668 CURVE SMOOTH",
"230 668 OFFCURVE",
"94 534 OFFCURVE",
"94 343 CURVE SMOOTH",
"94 154 OFFCURVE",
"230 20 OFFCURVE",
"410 20 CURVE SMOOTH"
);
},
{
closed = 1;
nodes = (
"530 874 LINE",
"420 748 LINE",
"420 748 OFFCURVE",
"389 748 OFFCURVE",
"389 748 CURVE",
"487 874 LINE"
);
}
);
width = 819;
}
);
unicode = 00D3;
},
{
glyphname = Ocircumflex;
layers = (
{
layerId = "9C3819CB-81CB-4535-9429-AFFD112764D7";
paths = (
{
closed = 1;
nodes = (
"181 -10 OFFCURVE",
"30 136 OFFCURVE",
"30 343 CURVE SMOOTH",
"30 552 OFFCURVE",
"181 698 OFFCURVE",
"386 698 CURVE SMOOTH",
"590 698 OFFCURVE",
"741 552 OFFCURVE",
"741 343 CURVE SMOOTH",
"741 136 OFFCURVE",
"590 -10 OFFCURVE",
"386 -10 CURVE SMOOTH"
);
},
{
closed = 1;
nodes = (
"486 160 OFFCURVE",
"561 230 OFFCURVE",
"561 343 CURVE SMOOTH",
"561 457 OFFCURVE",
"486 528 OFFCURVE",
"386 528 CURVE SMOOTH",
"285 528 OFFCURVE",
"210 457 OFFCURVE",
"210 343 CURVE SMOOTH",
"210 230 OFFCURVE",
"286 160 OFFCURVE",
"386 160 CURVE SMOOTH"
);
},
{
closed = 1;
nodes = (
"313 874 LINE",
"457 874 LINE",
"574 748 LINE",
"423 748 LINE",
"385 795 LINE",
"347 748 LINE",
"196 748 LINE"
);
}
);
width = 771;
},
{
layerId = "43C446DC-37EE-4C34-A65A-9E71F2AC18B3";
paths = (
{
closed = 1;
nodes = (
"214 -10 OFFCURVE",
"64 136 OFFCURVE",
"64 343 CURVE SMOOTH",
"64 552 OFFCURVE",
"214 698 OFFCURVE",
"410 698 CURVE SMOOTH",
"605 698 OFFCURVE",
"755 552 OFFCURVE",
"755 343 CURVE SMOOTH",
"755 136 OFFCURVE",
"605 -10 OFFCURVE",
"410 -10 CURVE SMOOTH"
);
},
{
closed = 1;
nodes = (
"589 20 OFFCURVE",
"725 154 OFFCURVE",
"725 343 CURVE SMOOTH",
"725 534 OFFCURVE",
"589 668 OFFCURVE",
"410 668 CURVE SMOOTH",
"230 668 OFFCURVE",
"94 534 OFFCURVE",
"94 343 CURVE SMOOTH",
"94 154 OFFCURVE",
"230 20 OFFCURVE",
"410 20 CURVE SMOOTH"
);
},
{
closed = 1;
nodes = (
"392 874 LINE",
"426 874 LINE",
"548 748 LINE",
"515 748 LINE",
"409 846 LINE",
"303 748 LINE",
"270 748 LINE"
);
}
);
width = 819;
}
);
unicode = 00D4;
},
{
glyphname = Otilde;
layers = (
{
layerId = "9C3819CB-81CB-4535-9429-AFFD112764D7";
paths = (
{
closed = 1;
nodes = (
"181 -10 OFFCURVE",
"30 136 OFFCURVE",
"30 343 CURVE SMOOTH",
"30 552 OFFCURVE",
"181 698 OFFCURVE",
"386 698 CURVE SMOOTH",
"590 698 OFFCURVE",
"741 552 OFFCURVE",
"741 343 CURVE SMOOTH",
"741 136 OFFCURVE",
"590 -10 OFFCURVE",
"386 -10 CURVE SMOOTH"
);
},
{
closed = 1;
nodes = (
"486 160 OFFCURVE",
"561 230 OFFCURVE",
"561 343 CURVE SMOOTH",
"561 457 OFFCURVE",
"486 528 OFFCURVE",
"386 528 CURVE SMOOTH",
"285 528 OFFCURVE",
"210 457 OFFCURVE",
"210 343 CURVE SMOOTH",
"210 230 OFFCURVE",
"286 160 OFFCURVE",
"386 160 CURVE SMOOTH"
);
},
{
closed = 1;
nodes = (
"410 738 OFFCURVE",
"355 789 OFFCURVE",
"308 789 CURVE SMOOTH",
"263 789 OFFCURVE",
"230 752 OFFCURVE",
"207 726 CURVE",
"207 816 LINE",
"239 863 OFFCURVE",
"274 884 OFFCURVE",
"311 884 CURVE SMOOTH",
"360 884 OFFCURVE",
"415 833 OFFCURVE",
"462 833 CURVE SMOOTH",
"507 833 OFFCURVE",
"540 870 OFFCURVE",
"563 896 CURVE",
"563 806 LINE",
"531 759 OFFCURVE",
"496 738 OFFCURVE",
"460 738 CURVE SMOOTH"
);
}
);
width = 771;
},
{
layerId = "43C446DC-37EE-4C34-A65A-9E71F2AC18B3";
paths = (
{
closed = 1;
nodes = (
"214 -10 OFFCURVE",
"64 136 OFFCURVE",
"64 343 CURVE SMOOTH",
"64 552 OFFCURVE",
"214 698 OFFCURVE",
"410 698 CURVE SMOOTH",
"605 698 OFFCURVE",
"755 552 OFFCURVE",
"755 343 CURVE SMOOTH",
"755 136 OFFCURVE",
"605 -10 OFFCURVE",
"410 -10 CURVE SMOOTH"
);
},
{
closed = 1;
nodes = (
"589 20 OFFCURVE",
"725 154 OFFCURVE",
"725 343 CURVE SMOOTH",
"725 534 OFFCURVE",
"589 668 OFFCURVE",
"410 668 CURVE SMOOTH",
"230 668 OFFCURVE",
"94 534 OFFCURVE",
"94 343 CURVE SMOOTH",
"94 154 OFFCURVE",
"230 20 OFFCURVE",
"410 20 CURVE SMOOTH"
);
},
{
closed = 1;
nodes = (
"417 767 OFFCURVE",
"391 825 OFFCURVE",
"341 825 CURVE SMOOTH",
"314 825 OFFCURVE",
"293 805 OFFCURVE",
"278 774 CURVE",
"278 815 LINE",
"297 842 OFFCURVE",
"319 855 OFFCURVE",
"345 855 CURVE SMOOTH",
"404 855 OFFCURVE",
"428 797 OFFCURVE",
"478 797 CURVE SMOOTH",
"507 797 OFFCURVE",
"528 817 OFFCURVE",
"541 848 CURVE",
"541 805 LINE",
"523 779 OFFCURVE",
"501 767 OFFCURVE",
"476 767 CURVE SMOOTH"
);
}
);
width = 819;
}
);
unicode = 00D5;
},
{
glyphname = Odieresis;
layers = (
{
layerId = "9C3819CB-81CB-4535-9429-AFFD112764D7";
paths = (
{
closed = 1;
nodes = (
"181 -10 OFFCURVE",
"30 136 OFFCURVE",
"30 343 CURVE SMOOTH",
"30 552 OFFCURVE",
"181 698 OFFCURVE",
"386 698 CURVE SMOOTH",
"590 698 OFFCURVE",
"741 552 OFFCURVE",
"741 343 CURVE SMOOTH",
"741 136 OFFCURVE",
"590 -10 OFFCURVE",
"386 -10 CURVE SMOOTH"
);
},
{
closed = 1;
nodes = (
"486 160 OFFCURVE",
"561 230 OFFCURVE",
"561 343 CURVE SMOOTH",
"561 457 OFFCURVE",
"486 528 OFFCURVE",
"386 528 CURVE SMOOTH",
"285 528 OFFCURVE",
"210 457 OFFCURVE",
"210 343 CURVE SMOOTH",
"210 230 OFFCURVE",
"286 160 OFFCURVE",
"386 160 CURVE SMOOTH"
);
},
{
closed = 1;
nodes = (
"240 738 OFFCURVE",
"204 765 OFFCURVE",
"204 809 CURVE SMOOTH",
"204 855 OFFCURVE",
"240 882 OFFCURVE",
"285 882 CURVE SMOOTH",
"330 882 OFFCURVE",
"367 855 OFFCURVE",
"367 809 CURVE SMOOTH",
"367 765 OFFCURVE",
"330 738 OFFCURVE",
"285 738 CURVE SMOOTH"
);
},
{
closed = 1;
nodes = (
"440 738 OFFCURVE",
"404 765 OFFCURVE",
"404 809 CURVE SMOOTH",
"404 855 OFFCURVE",
"440 882 OFFCURVE",
"485 882 CURVE SMOOTH",
"530 882 OFFCURVE",
"567 855 OFFCURVE",
"567 809 CURVE SMOOTH",
"567 765 OFFCURVE",
"530 738 OFFCURVE",
"485 738 CURVE SMOOTH"
);
}
);
width = 771;
},
{
layerId = "43C446DC-37EE-4C34-A65A-9E71F2AC18B3";
paths = (
{
closed = 1;
nodes = (
"214 -10 OFFCURVE",
"64 136 OFFCURVE",
"64 343 CURVE SMOOTH",
"64 552 OFFCURVE",
"214 698 OFFCURVE",
"410 698 CURVE SMOOTH",
"605 698 OFFCURVE",
"755 552 OFFCURVE",
"755 343 CURVE SMOOTH",
"755 136 OFFCURVE",
"605 -10 OFFCURVE",
"410 -10 CURVE SMOOTH"
);
},
{
closed = 1;
nodes = (
"589 20 OFFCURVE",
"725 154 OFFCURVE",
"725 343 CURVE SMOOTH",
"725 534 OFFCURVE",
"589 668 OFFCURVE",
"410 668 CURVE SMOOTH",
"230 668 OFFCURVE",
"94 534 OFFCURVE",
"94 343 CURVE SMOOTH",
"94 154 OFFCURVE",
"230 20 OFFCURVE",
"410 20 CURVE SMOOTH"
);
},
{
closed = 1;
nodes = (
"314 784 OFFCURVE",
"302 796 OFFCURVE",
"302 811 CURVE SMOOTH",
"302 825 OFFCURVE",
"314 838 OFFCURVE",
"329 838 CURVE SMOOTH",
"344 838 OFFCURVE",
"356 825 OFFCURVE",
"356 811 CURVE SMOOTH",
"356 796 OFFCURVE",
"344 784 OFFCURVE",
"329 784 CURVE SMOOTH"
);
},
{
closed = 1;
nodes = (
"474 784 OFFCURVE",
"462 796 OFFCURVE",
"462 811 CURVE SMOOTH",
"462 825 OFFCURVE",
"474 838 OFFCURVE",
"489 838 CURVE SMOOTH",
"504 838 OFFCURVE",
"516 825 OFFCURVE",
"516 811 CURVE SMOOTH",
"516 796 OFFCURVE",
"504 784 OFFCURVE",
"489 784 CURVE SMOOTH"
);
}
);
width = 819;
}
);
unicode = 00D6;
},
{
glyphname = Omacron;
layers = (
{
layerId = "9C3819CB-81CB-4535-9429-AFFD112764D7";
paths = (
{
closed = 1;
nodes = (
"181 -10 OFFCURVE",
"30 136 OFFCURVE",
"30 343 CURVE SMOOTH",
"30 552 OFFCURVE",
"181 698 OFFCURVE",
"386 698 CURVE SMOOTH",
"590 698 OFFCURVE",
"741 552 OFFCURVE",
"741 343 CURVE SMOOTH",
"741 136 OFFCURVE",
"590 -10 OFFCURVE",
"386 -10 CURVE SMOOTH"
);
},
{
closed = 1;
nodes = (
"486 160 OFFCURVE",
"561 230 OFFCURVE",
"561 343 CURVE SMOOTH",
"561 457 OFFCURVE",
"486 528 OFFCURVE",
"386 528 CURVE SMOOTH",
"285 528 OFFCURVE",
"210 457 OFFCURVE",
"210 343 CURVE SMOOTH",
"210 230 OFFCURVE",
"286 160 OFFCURVE",
"386 160 CURVE SMOOTH"
);
},
{
closed = 1;
nodes = (
"543 864 LINE",
"543 759 LINE",
"228 759 LINE",
"228 759 OFFCURVE",
"228 864 OFFCURVE",
"228 864 CURVE"
);
}
);
width = 771;
},
{
layerId = "43C446DC-37EE-4C34-A65A-9E71F2AC18B3";
paths = (
{
closed = 1;
nodes = (
"214 -10 OFFCURVE",
"64 136 OFFCURVE",
"64 343 CURVE SMOOTH",
"64 552 OFFCURVE",
"214 698 OFFCURVE",
"410 698 CURVE SMOOTH",
"605 698 OFFCURVE",
"755 552 OFFCURVE",
"755 343 CURVE SMOOTH",
"755 136 OFFCURVE",
"605 -10 OFFCURVE",
"410 -10 CURVE SMOOTH"
);
},
{
closed = 1;
nodes = (
"589 20 OFFCURVE",
"725 154 OFFCURVE",
"725 343 CURVE SMOOTH",
"725 534 OFFCURVE",
"589 668 OFFCURVE",
"410 668 CURVE SMOOTH",
"230 668 OFFCURVE",
"94 534 OFFCURVE",
"94 343 CURVE SMOOTH",
"94 154 OFFCURVE",
"230 20 OFFCURVE",
"410 20 CURVE SMOOTH"
);
},
{
closed = 1;
nodes = (
"537 826 LINE",
"537 796 LINE",
"282 796 LINE",
"282 796 OFFCURVE",
"282 826 OFFCURVE",
"282 826 CURVE"
);
}
);
width = 819;
}
);
unicode = 014C;
},
{
glyphname = Obreve;
layers = (
{
layerId = "9C3819CB-81CB-4535-9429-AFFD112764D7";
paths = (
{
closed = 1;
nodes = (
"181 -10 OFFCURVE",
"30 136 OFFCURVE",
"30 343 CURVE SMOOTH",
"30 552 OFFCURVE",
"181 698 OFFCURVE",
"386 698 CURVE SMOOTH",
"590 698 OFFCURVE",
"741 552 OFFCURVE",
"741 343 CURVE SMOOTH",
"741 136 OFFCURVE",
"590 -10 OFFCURVE",
"386 -10 CURVE SMOOTH"
);
},
{
closed = 1;
nodes = (
"486 160 OFFCURVE",
"561 230 OFFCURVE",
"561 343 CURVE SMOOTH",
"561 457 OFFCURVE",
"486 528 OFFCURVE",
"386 528 CURVE SMOOTH",
"285 528 OFFCURVE",
"210 457 OFFCURVE",
"210 343 CURVE SMOOTH",
"210 230 OFFCURVE",
"286 160 OFFCURVE",
"386 160 CURVE SMOOTH"
);
},
{
closed = 1;
nodes = (
"293 738 OFFCURVE",
"225 797 OFFCURVE",
"225 874 CURVE",
"334 874 LINE",
"334 851 OFFCURVE",
"347 840 OFFCURVE",
"385 840 CURVE SMOOTH",
"423 840 OFFCURVE",
"436 851 OFFCURVE",
"436 874 CURVE",
"546 874 LINE",
"546 797 OFFCURVE",
"478 738 OFFCURVE",
"385 738 CURVE SMOOTH"
);
}
);
width = 771;
},
{
layerId = "43C446DC-37EE-4C34-A65A-9E71F2AC18B3";
paths = (
{
closed = 1;
nodes = (
"214 -10 OFFCURVE",
"64 136 OFFCURVE",
"64 343 CURVE SMOOTH",
"64 552 OFFCURVE",
"214 698 OFFCURVE",
"410 698 CURVE SMOOTH",
"605 698 OFFCURVE",
"755 552 OFFCURVE",
"755 343 CURVE SMOOTH",
"755 136 OFFCURVE",
"605 -10 OFFCURVE",
"410 -10 CURVE SMOOTH"
);
},
{
closed = 1;
nodes = (
"589 20 OFFCURVE",
"725 154 OFFCURVE",
"725 343 CURVE SMOOTH",
"725 534 OFFCURVE",
"589 668 OFFCURVE",
"410 668 CURVE SMOOTH",
"230 668 OFFCURVE",
"94 534 OFFCURVE",
"94 343 CURVE SMOOTH",
"94 154 OFFCURVE",
"230 20 OFFCURVE",
"410 20 CURVE SMOOTH"
);
},
{
closed = 1;
nodes = (
"343 748 OFFCURVE",
"299 793 OFFCURVE",
"299 874 CURVE",
"328 874 LINE",
"328 805 OFFCURVE",
"364 775 OFFCURVE",
"409 775 CURVE SMOOTH",
"454 775 OFFCURVE",
"491 805 OFFCURVE",
"491 874 CURVE",
"520 874 LINE",
"520 793 OFFCURVE",
"476 748 OFFCURVE",
"409 748 CURVE SMOOTH"
);
}
);
width = 819;
}
);
unicode = 014E;
},
{
glyphname = Ohungarumlaut;
layers = (
{
layerId = "9C3819CB-81CB-4535-9429-AFFD112764D7";
paths = (
{
closed = 1;
nodes = (
"181 -10 OFFCURVE",
"30 136 OFFCURVE",
"30 343 CURVE SMOOTH",
"30 552 OFFCURVE",
"181 698 OFFCURVE",
"386 698 CURVE SMOOTH",
"590 698 OFFCURVE",
"741 552 OFFCURVE",
"741 343 CURVE SMOOTH",
"741 136 OFFCURVE",
"590 -10 OFFCURVE",
"386 -10 CURVE SMOOTH"
);
},
{
closed = 1;
nodes = (
"486 160 OFFCURVE",
"561 230 OFFCURVE",
"561 343 CURVE SMOOTH",
"561 457 OFFCURVE",
"486 528 OFFCURVE",
"386 528 CURVE SMOOTH",
"285 528 OFFCURVE",
"210 457 OFFCURVE",
"210 343 CURVE SMOOTH",
"210 230 OFFCURVE",
"286 160 OFFCURVE",
"386 160 CURVE SMOOTH"
);
},
{
closed = 1;
nodes = (
"465 874 LINE",
"335 747 LINE",
"335 747 OFFCURVE",
"214 747 OFFCURVE",
"214 747 CURVE",
"312 874 LINE"
);
},
{
closed = 1;
nodes = (
"676 874 LINE",
"536 747 LINE",
"536 747 OFFCURVE",
"415 747 OFFCURVE",
"415 747 CURVE",
"513 874 LINE"
);
}
);
width = 771;
},
{
layerId = "43C446DC-37EE-4C34-A65A-9E71F2AC18B3";
paths = (
{
closed = 1;
nodes = (
"214 -10 OFFCURVE",
"64 136 OFFCURVE",
"64 343 CURVE SMOOTH",
"64 552 OFFCURVE",
"214 698 OFFCURVE",
"410 698 CURVE SMOOTH",
"605 698 OFFCURVE",
"755 552 OFFCURVE",
"755 343 CURVE SMOOTH",
"755 136 OFFCURVE",
"605 -10 OFFCURVE",
"410 -10 CURVE SMOOTH"
);
},
{
closed = 1;
nodes = (
"589 20 OFFCURVE",
"725 154 OFFCURVE",
"725 343 CURVE SMOOTH",
"725 534 OFFCURVE",
"589 668 OFFCURVE",
"410 668 CURVE SMOOTH",
"230 668 OFFCURVE",
"94 534 OFFCURVE",
"94 343 CURVE SMOOTH",
"94 154 OFFCURVE",
"230 20 OFFCURVE",
"410 20 CURVE SMOOTH"
);
},
{
closed = 1;
nodes = (
"459 874 LINE",
"349 748 LINE",
"349 748 OFFCURVE",
"318 748 OFFCURVE",
"318 748 CURVE",
"416 874 LINE"
);
},
{
closed = 1;
nodes = (
"580 874 LINE",
"470 748 LINE",
"470 748 OFFCURVE",
"439 748 OFFCURVE",
"439 748 CURVE",
"537 874 LINE"
);
}
);
width = 819;
}
);
unicode = 0150;
},
{
glyphname = P;
layers = (
{
guideLines = (
{
position = "{0, 487}";
}
);
layerId = "9C3819CB-81CB-4535-9429-AFFD112764D7";
paths = (
{
closed = 1;
nodes = (
"60 688 LINE",
"60 0 LINE",
"230 0 LINE",
"230 688 LINE"
);
},
{
closed = 1;
nodes = (
"190 353 LINE",
"190 193 LINE",
"366 193 LINE SMOOTH",
"535 193 OFFCURVE",
"650 280 OFFCURVE",
"650 440 CURVE SMOOTH",
"650 604 OFFCURVE",
"535 688 OFFCURVE",
"366 688 CURVE SMOOTH",
"190 688 LINE",
"190 528 LINE",
"351 528 LINE SMOOTH",
"424 528 OFFCURVE",
"470 503 OFFCURVE",
"470 440 CURVE SMOOTH",
"470 379 OFFCURVE",
"424 353 OFFCURVE",
"351 353 CURVE SMOOTH"
);
}
);
width = 670;
},
{
layerId = "43C446DC-37EE-4C34-A65A-9E71F2AC18B3";
paths = (
{
closed = 1;
nodes = (
"104 688 LINE",
"104 0 LINE",
"134 0 LINE",
"134 688 LINE"
);
},
{
closed = 1;
nodes = (
"124 301 LINE",
"124 273 LINE",
"358 273 LINE SMOOTH",
"493 273 OFFCURVE",
"593 342 OFFCURVE",
"593 478 CURVE SMOOTH",
"593 623 OFFCURVE",
"493 688 OFFCURVE",
"358 688 CURVE SMOOTH",
"124 688 LINE",
"124 660 LINE",
"358 660 LINE SMOOTH",
"477 660 OFFCURVE",
"563 607 OFFCURVE",
"563 478 CURVE SMOOTH",
"563 358 OFFCURVE",
"476 301 OFFCURVE",
"358 301 CURVE SMOOTH"
);
}
);
width = 637;
}
);
unicode = 0050;
},
{
glyphname = Q;
layers = (
{
guideLines = (
{
position = "{0, 29}";
}
);
layerId = "9C3819CB-81CB-4535-9429-AFFD112764D7";
paths = (
{
closed = 1;
nodes = (
"590 -10 OFFCURVE",
"741 136 OFFCURVE",
"741 343 CURVE SMOOTH",
"741 552 OFFCURVE",
"590 698 OFFCURVE",
"386 698 CURVE SMOOTH",
"181 698 OFFCURVE",
"30 552 OFFCURVE",
"30 343 CURVE SMOOTH",
"30 136 OFFCURVE",
"181 -10 OFFCURVE",
"386 -10 CURVE SMOOTH"
);
},
{
closed = 1;
nodes = (
"286 160 OFFCURVE",
"210 230 OFFCURVE",
"210 343 CURVE SMOOTH",
"210 457 OFFCURVE",
"285 528 OFFCURVE",
"386 528 CURVE SMOOTH",
"486 528 OFFCURVE",
"561 457 OFFCURVE",
"561 343 CURVE SMOOTH",
"561 230 OFFCURVE",
"486 160 OFFCURVE",
"386 160 CURVE SMOOTH"
);
},
{
closed = 1;
nodes = (
"292 324 LINE",
"609 0 LINE",
"799 0 LINE",
"482 324 LINE"
);
}
);
width = 771;
},
{
layerId = "43C446DC-37EE-4C34-A65A-9E71F2AC18B3";
paths = (
{
closed = 1;
nodes = (
"605 -10 OFFCURVE",
"755 136 OFFCURVE",
"755 343 CURVE SMOOTH",
"755 552 OFFCURVE",
"605 698 OFFCURVE",
"410 698 CURVE SMOOTH",
"214 698 OFFCURVE",
"64 552 OFFCURVE",
"64 343 CURVE SMOOTH",
"64 136 OFFCURVE",
"214 -10 OFFCURVE",
"410 -10 CURVE SMOOTH"
);
},
{
closed = 1;
nodes = (
"230 20 OFFCURVE",
"94 154 OFFCURVE",
"94 343 CURVE SMOOTH",
"94 534 OFFCURVE",
"230 668 OFFCURVE",
"410 668 CURVE SMOOTH",
"589 668 OFFCURVE",
"725 534 OFFCURVE",
"725 343 CURVE SMOOTH",
"725 154 OFFCURVE",
"589 20 OFFCURVE",
"410 20 CURVE SMOOTH"
);
},
{
closed = 1;
nodes = (
"375 305 LINE",
"745 0 LINE",
"789 0 LINE",
"419 305 LINE"
);
}
);
width = 819;
}
);
unicode = 0051;
},
{
glyphname = R;
layers = (
{
anchors = (
{
name = center;
position = "{348, 344}";
}
);
layerId = "9C3819CB-81CB-4535-9429-AFFD112764D7";
paths = (
{
closed = 1;
nodes = (
"60 688 LINE",
"60 0 LINE",
"230 0 LINE",
"230 688 LINE"
);
},
{
closed = 1;
nodes = (
"220 242 LINE",
"432 242 LINE SMOOTH",
"562 242 OFFCURVE",
"664 321 OFFCURVE",
"664 453 CURVE SMOOTH",
"664 614 OFFCURVE",
"553 688 OFFCURVE",
"386 688 CURVE SMOOTH",
"190 688 LINE",
"190 528 LINE",
"380 528 LINE SMOOTH",
"446 528 OFFCURVE",
"486 504 OFFCURVE",
"486 451 CURVE SMOOTH",
"486 395 OFFCURVE",
"446 371 OFFCURVE",
"380 371 CURVE SMOOTH",
"220 371 LINE"
);
},
{
closed = 1;
nodes = (
"285 246 LINE",
"463 0 LINE",
"676 0 LINE",
"475 246 LINE"
);
}
);
width = 691;
},
{
anchors = (
{
name = center;
position = "{321, 344}";
}
);
layerId = "43C446DC-37EE-4C34-A65A-9E71F2AC18B3";
paths = (
{
closed = 1;
nodes = (
"104 688 LINE",
"104 0 LINE",
"134 0 LINE",
"134 688 LINE"
);
},
{
closed = 1;
nodes = (
"128 313 LINE",
"363 313 LINE SMOOTH",
"505 313 OFFCURVE",
"593 375 OFFCURVE",
"593 498 CURVE SMOOTH",
"593 629 OFFCURVE",
"505 688 OFFCURVE",
"363 688 CURVE SMOOTH",
"124 688 LINE",
"124 660 LINE",
"363 660 LINE SMOOTH",
"486 660 OFFCURVE",
"563 613 OFFCURVE",
"563 498 CURVE SMOOTH",
"563 392 OFFCURVE",
"485 341 OFFCURVE",
"363 341 CURVE SMOOTH",
"128 341 LINE"
);
},
{
closed = 1;
nodes = (
"278 317 LINE",
"561 0 LINE",
"599 0 LINE",
"313 317 LINE"
);
}
);
width = 660;
}
);
unicode = 0052;
},
{
glyphname = Racute;
layers = (
{
layerId = "9C3819CB-81CB-4535-9429-AFFD112764D7";
paths = (
{
closed = 1;
nodes = (
"60 688 LINE",
"60 0 LINE",
"230 0 LINE",
"230 688 LINE"
);
},
{
closed = 1;
nodes = (
"220 242 LINE",
"432 242 LINE SMOOTH",
"562 242 OFFCURVE",
"664 321 OFFCURVE",
"664 453 CURVE SMOOTH",
"664 614 OFFCURVE",
"553 688 OFFCURVE",
"386 688 CURVE SMOOTH",
"190 688 LINE",
"190 528 LINE",
"380 528 LINE SMOOTH",
"446 528 OFFCURVE",
"486 504 OFFCURVE",
"486 451 CURVE SMOOTH",
"486 395 OFFCURVE",
"446 371 OFFCURVE",
"380 371 CURVE SMOOTH",
"220 371 LINE"
);
},
{
closed = 1;
nodes = (
"285 246 LINE",
"463 0 LINE",
"676 0 LINE",
"475 246 LINE"
);
},
{
closed = 1;
nodes = (
"363 874 LINE",
"265 747 LINE",
"265 747 OFFCURVE",
"411 747 OFFCURVE",
"411 747 CURVE",
"551 874 LINE"
);
}
);
width = 703;
},
{
layerId = "43C446DC-37EE-4C34-A65A-9E71F2AC18B3";
paths = (
{
closed = 1;
nodes = (
"104 688 LINE",
"104 0 LINE",
"134 0 LINE",
"134 688 LINE"
);
},
{
closed = 1;
nodes = (
"128 313 LINE",
"363 313 LINE SMOOTH",
"505 313 OFFCURVE",
"593 375 OFFCURVE",
"593 498 CURVE SMOOTH",
"593 629 OFFCURVE",
"505 688 OFFCURVE",
"363 688 CURVE SMOOTH",
"124 688 LINE",
"124 660 LINE",
"363 660 LINE SMOOTH",
"486 660 OFFCURVE",
"563 613 OFFCURVE",
"563 498 CURVE SMOOTH",
"563 392 OFFCURVE",
"485 341 OFFCURVE",
"363 341 CURVE SMOOTH",
"128 341 LINE"
);
},
{
closed = 1;
nodes = (
"278 317 LINE",
"561 0 LINE",
"599 0 LINE",
"313 317 LINE"
);
},
{
closed = 1;
nodes = (
"399 874 LINE",
"301 748 LINE",
"301 748 OFFCURVE",
"332 748 OFFCURVE",
"332 748 CURVE",
"442 874 LINE"
);
}
);
width = 660;
}
);
unicode = 0154;
},
{
glyphname = Rcommaaccent;
layers = (
{
layerId = "9C3819CB-81CB-4535-9429-AFFD112764D7";
paths = (
{
closed = 1;
nodes = (
"60 688 LINE",
"60 0 LINE",
"230 0 LINE",
"230 688 LINE"
);
},
{
closed = 1;
nodes = (
"220 242 LINE",
"432 242 LINE SMOOTH",
"562 242 OFFCURVE",
"664 321 OFFCURVE",
"664 453 CURVE SMOOTH",
"664 614 OFFCURVE",
"553 688 OFFCURVE",
"386 688 CURVE SMOOTH",
"190 688 LINE",
"190 528 LINE",
"380 528 LINE SMOOTH",
"446 528 OFFCURVE",
"486 504 OFFCURVE",
"486 451 CURVE SMOOTH",
"486 395 OFFCURVE",
"446 371 OFFCURVE",
"380 371 CURVE SMOOTH",
"220 371 LINE"
);
},
{
closed = 1;
nodes = (
"285 246 LINE",
"463 0 LINE",
"676 0 LINE",
"475 246 LINE"
);
},
{
closed = 1;
nodes = (
"421 -51 LINE",
"266 -51 LINE",
"236 -211 LINE",
"361 -211 LINE"
);
}
);
width = 703;
},
{
layerId = "43C446DC-37EE-4C34-A65A-9E71F2AC18B3";
paths = (
{
closed = 1;
nodes = (
"104 688 LINE",
"104 0 LINE",
"134 0 LINE",
"134 688 LINE"
);
},
{
closed = 1;
nodes = (
"128 313 LINE",
"363 313 LINE SMOOTH",
"505 313 OFFCURVE",
"593 375 OFFCURVE",
"593 498 CURVE SMOOTH",
"593 629 OFFCURVE",
"505 688 OFFCURVE",
"363 688 CURVE SMOOTH",
"124 688 LINE",
"124 660 LINE",
"363 660 LINE SMOOTH",
"486 660 OFFCURVE",
"563 613 OFFCURVE",
"563 498 CURVE SMOOTH",
"563 392 OFFCURVE",
"485 341 OFFCURVE",
"363 341 CURVE SMOOTH",
"128 341 LINE"
);
},
{
closed = 1;
nodes = (
"278 317 LINE",
"561 0 LINE",
"599 0 LINE",
"313 317 LINE"
);
},
{
closed = 1;
nodes = (
"350 -51 LINE",
"311 -51 LINE",
"273 -178 LINE",
"300 -178 LINE"
);
}
);
width = 660;
}
);
unicode = 0156;
},
{
glyphname = Rcaron;
layers = (
{
layerId = "9C3819CB-81CB-4535-9429-AFFD112764D7";
paths = (
{
closed = 1;
nodes = (
"60 688 LINE",
"60 0 LINE",
"230 0 LINE",
"230 688 LINE"
);
},
{
closed = 1;
nodes = (
"220 242 LINE",
"432 242 LINE SMOOTH",
"562 242 OFFCURVE",
"664 321 OFFCURVE",
"664 453 CURVE SMOOTH",
"664 614 OFFCURVE",
"553 688 OFFCURVE",
"386 688 CURVE SMOOTH",
"190 688 LINE",
"190 528 LINE",
"380 528 LINE SMOOTH",
"446 528 OFFCURVE",
"486 504 OFFCURVE",
"486 451 CURVE SMOOTH",
"486 395 OFFCURVE",
"446 371 OFFCURVE",
"380 371 CURVE SMOOTH",
"220 371 LINE"
);
},
{
closed = 1;
nodes = (
"285 246 LINE",
"463 0 LINE",
"676 0 LINE",
"475 246 LINE"
);
},
{
closed = 1;
nodes = (
"420 748 LINE",
"537 874 LINE",
"386 874 LINE",
"348 827 LINE",
"310 874 LINE",
"159 874 LINE",
"276 748 LINE"
);
}
);
width = 703;
},
{
layerId = "43C446DC-37EE-4C34-A65A-9E71F2AC18B3";
paths = (
{
closed = 1;
nodes = (
"104 688 LINE",
"104 0 LINE",
"134 0 LINE",
"134 688 LINE"
);
},
{
closed = 1;
nodes = (
"128 313 LINE",
"363 313 LINE SMOOTH",
"505 313 OFFCURVE",
"593 375 OFFCURVE",
"593 498 CURVE SMOOTH",
"593 629 OFFCURVE",
"505 688 OFFCURVE",
"363 688 CURVE SMOOTH",
"124 688 LINE",
"124 660 LINE",
"363 660 LINE SMOOTH",
"486 660 OFFCURVE",
"563 613 OFFCURVE",
"563 498 CURVE SMOOTH",
"563 392 OFFCURVE",
"485 341 OFFCURVE",
"363 341 CURVE SMOOTH",
"128 341 LINE"
);
},
{
closed = 1;
nodes = (
"278 317 LINE",
"561 0 LINE",
"599 0 LINE",
"313 317 LINE"
);
},
{
closed = 1;
nodes = (
"338 748 LINE",
"460 874 LINE",
"427 874 LINE",
"321 776 LINE",
"215 874 LINE",
"182 874 LINE",
"304 748 LINE"
);
}
);
width = 660;
}
);
unicode = 0158;
},
{
glyphname = S;
layers = (
{
layerId = "9C3819CB-81CB-4535-9429-AFFD112764D7";
paths = (
{
closed = 1;
nodes = (
"433 162 OFFCURVE",
"411 147 OFFCURVE",
"341 147 CURVE SMOOTH",
"250 147 OFFCURVE",
"126 188 OFFCURVE",
"58 238 CURVE",
"58 63 LINE",
"104 30 OFFCURVE",
"205 -10 OFFCURVE",
"330 -10 CURVE SMOOTH",
"489 -10 OFFCURVE",
"608 64 OFFCURVE",
"608 200 CURVE SMOOTH",
"608 344 OFFCURVE",
"498 382 OFFCURVE",
"394 410 CURVE SMOOTH",
"320 430 LINE SMOOTH",
"252 448 OFFCURVE",
"211 459 OFFCURVE",
"211 494 CURVE SMOOTH",
"211 524 OFFCURVE",
"242 537 OFFCURVE",
"294 537 CURVE SMOOTH",
"382 537 OFFCURVE",
"492 498 OFFCURVE",
"559 456 CURVE",
"559 637 LINE",
"514 663 OFFCURVE",
"431 700 OFFCURVE",
"300 700 CURVE SMOOTH",
"152 700 OFFCURVE",
"29 622 OFFCURVE",
"29 481 CURVE SMOOTH",
"29 341 OFFCURVE",
"133 299 OFFCURVE",
"249 270 CURVE SMOOTH",
"334 249 LINE SMOOTH",
"393 234 OFFCURVE",
"433 223 OFFCURVE",
"433 189 CURVE SMOOTH"
);
}
);
width = 633;
},
{
layerId = "43C446DC-37EE-4C34-A65A-9E71F2AC18B3";
paths = (
{
closed = 1;
nodes = (
"487 75 OFFCURVE",
"429 18 OFFCURVE",
"305 18 CURVE",
"204 18 OFFCURVE",
"114 58 OFFCURVE",
"54 98 CURVE",
"54 65 LINE",
"116 24 OFFCURVE",
"209 -10 OFFCURVE",
"308 -10 CURVE",
"429 -10 OFFCURVE",
"517 47 OFFCURVE",
"517 157 CURVE",
"517 267 OFFCURVE",
"452 303 OFFCURVE",
"327 346 CURVE SMOOTH",
"252 372 LINE SMOOTH",
"160 404 OFFCURVE",
"86 434 OFFCURVE",
"86 529 CURVE",
"86 608 OFFCURVE",
"149 670 OFFCURVE",
"272 670 CURVE",
"369 670 OFFCURVE",
"446 630 OFFCURVE",
"489 597 CURVE",
"489 633 LINE",
"449 665 OFFCURVE",
"369 698 OFFCURVE",
"272 698 CURVE",
"154 698 OFFCURVE",
"56 640 OFFCURVE",
"56 527 CURVE",
"56 419 OFFCURVE",
"142 381 OFFCURVE",
"225 352 CURVE SMOOTH",
"320 319 LINE SMOOTH",
"431 281 OFFCURVE",
"487 247 OFFCURVE",
"487 157 CURVE SMOOTH"
);
}
);
width = 571;
}
);
unicode = 0053;
},
{
glyphname = Sacute;
layers = (
{
layerId = "9C3819CB-81CB-4535-9429-AFFD112764D7";
paths = (
{
closed = 1;
nodes = (
"433 162 OFFCURVE",
"411 147 OFFCURVE",
"341 147 CURVE SMOOTH",
"250 147 OFFCURVE",
"126 188 OFFCURVE",
"58 238 CURVE",
"58 63 LINE",
"104 30 OFFCURVE",
"205 -10 OFFCURVE",
"330 -10 CURVE SMOOTH",
"489 -10 OFFCURVE",
"608 64 OFFCURVE",
"608 200 CURVE SMOOTH",
"608 344 OFFCURVE",
"498 382 OFFCURVE",
"394 410 CURVE SMOOTH",
"320 430 LINE SMOOTH",
"252 448 OFFCURVE",
"211 459 OFFCURVE",
"211 494 CURVE SMOOTH",
"211 524 OFFCURVE",
"242 537 OFFCURVE",
"294 537 CURVE SMOOTH",
"382 537 OFFCURVE",
"492 498 OFFCURVE",
"559 456 CURVE",
"559 637 LINE",
"514 663 OFFCURVE",
"431 700 OFFCURVE",
"300 700 CURVE SMOOTH",
"152 700 OFFCURVE",
"29 622 OFFCURVE",
"29 481 CURVE SMOOTH",
"29 341 OFFCURVE",
"133 299 OFFCURVE",
"249 270 CURVE SMOOTH",
"334 249 LINE SMOOTH",
"393 234 OFFCURVE",
"433 223 OFFCURVE",
"433 189 CURVE SMOOTH"
);
},
{
closed = 1;
nodes = (
"333 874 LINE",
"235 747 LINE",
"235 747 OFFCURVE",
"381 747 OFFCURVE",
"381 747 CURVE",
"521 874 LINE"
);
}
);
width = 633;
},
{
layerId = "43C446DC-37EE-4C34-A65A-9E71F2AC18B3";
paths = (
{
closed = 1;
nodes = (
"487 75 OFFCURVE",
"429 18 OFFCURVE",
"305 18 CURVE",
"204 18 OFFCURVE",
"114 58 OFFCURVE",
"54 98 CURVE",
"54 65 LINE",
"116 24 OFFCURVE",
"209 -10 OFFCURVE",
"308 -10 CURVE",
"429 -10 OFFCURVE",
"517 47 OFFCURVE",
"517 157 CURVE",
"517 267 OFFCURVE",
"452 303 OFFCURVE",
"327 346 CURVE SMOOTH",
"252 372 LINE SMOOTH",
"160 404 OFFCURVE",
"86 434 OFFCURVE",
"86 529 CURVE",
"86 608 OFFCURVE",
"149 670 OFFCURVE",
"272 670 CURVE",
"369 670 OFFCURVE",
"446 630 OFFCURVE",
"489 597 CURVE",
"489 633 LINE",
"449 665 OFFCURVE",
"369 698 OFFCURVE",
"272 698 CURVE",
"154 698 OFFCURVE",
"56 640 OFFCURVE",
"56 527 CURVE",
"56 419 OFFCURVE",
"142 381 OFFCURVE",
"225 352 CURVE SMOOTH",
"320 319 LINE SMOOTH",
"431 281 OFFCURVE",
"487 247 OFFCURVE",
"487 157 CURVE SMOOTH"
);
},
{
closed = 1;
nodes = (
"363 874 LINE",
"265 748 LINE",
"265 748 OFFCURVE",
"296 748 OFFCURVE",
"296 748 CURVE",
"406 874 LINE"
);
}
);
width = 571;
}
);
unicode = 015A;
},
{
glyphname = Scircumflex;
layers = (
{
layerId = "9C3819CB-81CB-4535-9429-AFFD112764D7";
paths = (
{
closed = 1;
nodes = (
"253 874 LINE",
"397 874 LINE",
"514 748 LINE",
"363 748 LINE",
"325 795 LINE",
"287 748 LINE",
"136 748 LINE"
);
},
{
closed = 1;
nodes = (
"433 223 OFFCURVE",
"393 234 OFFCURVE",
"334 249 CURVE SMOOTH",
"249 270 LINE SMOOTH",
"133 299 OFFCURVE",
"29 341 OFFCURVE",
"29 481 CURVE SMOOTH",
"29 622 OFFCURVE",
"152 700 OFFCURVE",
"300 700 CURVE SMOOTH",
"431 700 OFFCURVE",
"514 663 OFFCURVE",
"559 637 CURVE",
"559 456 LINE",
"492 498 OFFCURVE",
"382 537 OFFCURVE",
"294 537 CURVE SMOOTH",
"242 537 OFFCURVE",
"211 524 OFFCURVE",
"211 494 CURVE SMOOTH",
"211 459 OFFCURVE",
"252 448 OFFCURVE",
"320 430 CURVE SMOOTH",
"394 410 LINE SMOOTH",
"498 382 OFFCURVE",
"608 344 OFFCURVE",
"608 200 CURVE SMOOTH",
"608 64 OFFCURVE",
"489 -10 OFFCURVE",
"330 -10 CURVE SMOOTH",
"205 -10 OFFCURVE",
"104 30 OFFCURVE",
"58 63 CURVE",
"58 238 LINE",
"126 188 OFFCURVE",
"250 147 OFFCURVE",
"341 147 CURVE SMOOTH",
"411 147 OFFCURVE",
"433 162 OFFCURVE",
"433 189 CURVE SMOOTH"
);
}
);
width = 633;
},
{
layerId = "43C446DC-37EE-4C34-A65A-9E71F2AC18B3";
paths = (
{
closed = 1;
nodes = (
"255 874 LINE",
"289 874 LINE",
"411 748 LINE",
"378 748 LINE",
"272 846 LINE",
"166 748 LINE",
"133 748 LINE"
);
},
{
closed = 1;
nodes = (
"487 247 OFFCURVE",
"431 281 OFFCURVE",
"320 319 CURVE SMOOTH",
"225 352 LINE SMOOTH",
"142 381 OFFCURVE",
"56 419 OFFCURVE",
"56 527 CURVE",
"56 640 OFFCURVE",
"154 698 OFFCURVE",
"272 698 CURVE",
"369 698 OFFCURVE",
"449 665 OFFCURVE",
"489 633 CURVE",
"489 597 LINE",
"446 630 OFFCURVE",
"369 670 OFFCURVE",
"272 670 CURVE",
"149 670 OFFCURVE",
"86 608 OFFCURVE",
"86 529 CURVE",
"86 434 OFFCURVE",
"160 404 OFFCURVE",
"252 372 CURVE SMOOTH",
"327 346 LINE SMOOTH",
"452 303 OFFCURVE",
"517 267 OFFCURVE",
"517 157 CURVE",
"517 47 OFFCURVE",
"429 -10 OFFCURVE",
"308 -10 CURVE",
"209 -10 OFFCURVE",
"116 24 OFFCURVE",
"54 65 CURVE",
"54 98 LINE",
"114 58 OFFCURVE",
"204 18 OFFCURVE",
"305 18 CURVE",
"429 18 OFFCURVE",
"487 75 OFFCURVE",
"487 157 CURVE SMOOTH"
);
}
);
width = 571;
}
);
unicode = 015C;
},
{
glyphname = Scedilla;
layers = (
{
layerId = "9C3819CB-81CB-4535-9429-AFFD112764D7";
paths = (
{
closed = 1;
nodes = (
"433 162 OFFCURVE",
"411 147 OFFCURVE",
"341 147 CURVE SMOOTH",
"250 147 OFFCURVE",
"126 188 OFFCURVE",
"58 238 CURVE",
"58 63 LINE",
"104 30 OFFCURVE",
"205 -10 OFFCURVE",
"330 -10 CURVE SMOOTH",
"489 -10 OFFCURVE",
"608 64 OFFCURVE",
"608 200 CURVE SMOOTH",
"608 344 OFFCURVE",
"498 382 OFFCURVE",
"394 410 CURVE SMOOTH",
"320 430 LINE SMOOTH",
"252 448 OFFCURVE",
"211 459 OFFCURVE",
"211 494 CURVE SMOOTH",
"211 524 OFFCURVE",
"242 537 OFFCURVE",
"294 537 CURVE SMOOTH",
"382 537 OFFCURVE",
"492 498 OFFCURVE",
"559 456 CURVE",
"559 637 LINE",
"514 663 OFFCURVE",
"431 700 OFFCURVE",
"300 700 CURVE SMOOTH",
"152 700 OFFCURVE",
"29 622 OFFCURVE",
"29 481 CURVE SMOOTH",
"29 341 OFFCURVE",
"133 299 OFFCURVE",
"249 270 CURVE SMOOTH",
"334 249 LINE SMOOTH",
"393 234 OFFCURVE",
"433 223 OFFCURVE",
"433 189 CURVE SMOOTH"
);
},
{
closed = 1;
nodes = (
"283 0 LINE",
"183 -146 LINE",
"311 -196 LINE",
"386 0 LINE"
);
}
);
width = 633;
},
{
layerId = "43C446DC-37EE-4C34-A65A-9E71F2AC18B3";
paths = (
{
closed = 1;
nodes = (
"487 75 OFFCURVE",
"429 18 OFFCURVE",
"305 18 CURVE",
"204 18 OFFCURVE",
"114 58 OFFCURVE",
"54 98 CURVE",
"54 65 LINE",
"116 24 OFFCURVE",
"209 -10 OFFCURVE",
"308 -10 CURVE",
"429 -10 OFFCURVE",
"517 47 OFFCURVE",
"517 157 CURVE",
"517 267 OFFCURVE",
"452 303 OFFCURVE",
"327 346 CURVE SMOOTH",
"252 372 LINE SMOOTH",
"160 404 OFFCURVE",
"86 434 OFFCURVE",
"86 529 CURVE",
"86 608 OFFCURVE",
"149 670 OFFCURVE",
"272 670 CURVE",
"369 670 OFFCURVE",
"446 630 OFFCURVE",
"489 597 CURVE",
"489 633 LINE",
"449 665 OFFCURVE",
"369 698 OFFCURVE",
"272 698 CURVE",
"154 698 OFFCURVE",
"56 640 OFFCURVE",
"56 527 CURVE",
"56 419 OFFCURVE",
"142 381 OFFCURVE",
"225 352 CURVE SMOOTH",
"320 319 LINE SMOOTH",
"431 281 OFFCURVE",
"487 247 OFFCURVE",
"487 157 CURVE SMOOTH"
);
},
{
closed = 1;
nodes = (
"313 0 LINE",
"230 -154 LINE",
"262 -168 LINE",
"341 0 LINE"
);
}
);
width = 571;
}
);
unicode = 015E;
},
{
glyphname = Scaron;
layers = (
{
layerId = "9C3819CB-81CB-4535-9429-AFFD112764D7";
paths = (
{
closed = 1;
nodes = (
"433 162 OFFCURVE",
"411 147 OFFCURVE",
"341 147 CURVE SMOOTH",
"250 147 OFFCURVE",
"126 188 OFFCURVE",
"58 238 CURVE",
"58 63 LINE",
"104 30 OFFCURVE",
"205 -10 OFFCURVE",
"330 -10 CURVE SMOOTH",
"489 -10 OFFCURVE",
"608 64 OFFCURVE",
"608 200 CURVE SMOOTH",
"608 344 OFFCURVE",
"498 382 OFFCURVE",
"394 410 CURVE SMOOTH",
"320 430 LINE SMOOTH",
"252 448 OFFCURVE",
"211 459 OFFCURVE",
"211 494 CURVE SMOOTH",
"211 524 OFFCURVE",
"242 537 OFFCURVE",
"294 537 CURVE SMOOTH",
"382 537 OFFCURVE",
"492 498 OFFCURVE",
"559 456 CURVE",
"559 637 LINE",
"514 663 OFFCURVE",
"431 700 OFFCURVE",
"300 700 CURVE SMOOTH",
"152 700 OFFCURVE",
"29 622 OFFCURVE",
"29 481 CURVE SMOOTH",
"29 341 OFFCURVE",
"133 299 OFFCURVE",
"249 270 CURVE SMOOTH",
"334 249 LINE SMOOTH",
"393 234 OFFCURVE",
"433 223 OFFCURVE",
"433 189 CURVE SMOOTH"
);
},
{
closed = 1;
nodes = (
"390 748 LINE",
"507 874 LINE",
"356 874 LINE",
"318 827 LINE",
"280 874 LINE",
"129 874 LINE",
"246 748 LINE"
);
}
);
width = 633;
},
{
layerId = "43C446DC-37EE-4C34-A65A-9E71F2AC18B3";
paths = (
{
closed = 1;
nodes = (
"487 75 OFFCURVE",
"429 18 OFFCURVE",
"305 18 CURVE",
"204 18 OFFCURVE",
"114 58 OFFCURVE",
"54 98 CURVE",
"54 65 LINE",
"116 24 OFFCURVE",
"209 -10 OFFCURVE",
"308 -10 CURVE",
"429 -10 OFFCURVE",
"517 47 OFFCURVE",
"517 157 CURVE",
"517 267 OFFCURVE",
"452 303 OFFCURVE",
"327 346 CURVE SMOOTH",
"252 372 LINE SMOOTH",
"160 404 OFFCURVE",
"86 434 OFFCURVE",
"86 529 CURVE",
"86 608 OFFCURVE",
"149 670 OFFCURVE",
"272 670 CURVE",
"369 670 OFFCURVE",
"446 630 OFFCURVE",
"489 597 CURVE",
"489 633 LINE",
"449 665 OFFCURVE",
"369 698 OFFCURVE",
"272 698 CURVE",
"154 698 OFFCURVE",
"56 640 OFFCURVE",
"56 527 CURVE",
"56 419 OFFCURVE",
"142 381 OFFCURVE",
"225 352 CURVE SMOOTH",
"320 319 LINE SMOOTH",
"431 281 OFFCURVE",
"487 247 OFFCURVE",
"487 157 CURVE SMOOTH"
);
},
{
closed = 1;
nodes = (
"302 748 LINE",
"424 874 LINE",
"391 874 LINE",
"285 776 LINE",
"179 874 LINE",
"146 874 LINE",
"268 748 LINE"
);
}
);
width = 571;
}
);
unicode = 0160;
},
{
glyphname = Scommaaccent;
layers = (
{
layerId = "9C3819CB-81CB-4535-9429-AFFD112764D7";
paths = (
{
closed = 1;
nodes = (
"433 162 OFFCURVE",
"411 147 OFFCURVE",
"341 147 CURVE SMOOTH",
"250 147 OFFCURVE",
"126 188 OFFCURVE",
"58 238 CURVE",
"58 63 LINE",
"104 30 OFFCURVE",
"205 -10 OFFCURVE",
"330 -10 CURVE SMOOTH",
"489 -10 OFFCURVE",
"608 64 OFFCURVE",
"608 200 CURVE SMOOTH",
"608 344 OFFCURVE",
"498 382 OFFCURVE",
"394 410 CURVE SMOOTH",
"320 430 LINE SMOOTH",
"252 448 OFFCURVE",
"211 459 OFFCURVE",
"211 494 CURVE SMOOTH",
"211 524 OFFCURVE",
"242 537 OFFCURVE",
"294 537 CURVE SMOOTH",
"382 537 OFFCURVE",
"492 498 OFFCURVE",
"559 456 CURVE",
"559 637 LINE",
"514 663 OFFCURVE",
"431 700 OFFCURVE",
"300 700 CURVE SMOOTH",
"152 700 OFFCURVE",
"29 622 OFFCURVE",
"29 481 CURVE SMOOTH",
"29 341 OFFCURVE",
"133 299 OFFCURVE",
"249 270 CURVE SMOOTH",
"334 249 LINE SMOOTH",
"393 234 OFFCURVE",
"433 223 OFFCURVE",
"433 189 CURVE SMOOTH"
);
},
{
closed = 1;
nodes = (
"391 -51 LINE",
"236 -51 LINE",
"206 -211 LINE",
"331 -211 LINE"
);
}
);
width = 633;
},
{
layerId = "43C446DC-37EE-4C34-A65A-9E71F2AC18B3";
paths = (
{
closed = 1;
nodes = (
"487 75 OFFCURVE",
"429 18 OFFCURVE",
"305 18 CURVE",
"204 18 OFFCURVE",
"114 58 OFFCURVE",
"54 98 CURVE",
"54 65 LINE",
"116 24 OFFCURVE",
"209 -10 OFFCURVE",
"308 -10 CURVE",
"429 -10 OFFCURVE",
"517 47 OFFCURVE",
"517 157 CURVE",
"517 267 OFFCURVE",
"452 303 OFFCURVE",
"327 346 CURVE SMOOTH",
"252 372 LINE SMOOTH",
"160 404 OFFCURVE",
"86 434 OFFCURVE",
"86 529 CURVE",
"86 608 OFFCURVE",
"149 670 OFFCURVE",
"272 670 CURVE",
"369 670 OFFCURVE",
"446 630 OFFCURVE",
"489 597 CURVE",
"489 633 LINE",
"449 665 OFFCURVE",
"369 698 OFFCURVE",
"272 698 CURVE",
"154 698 OFFCURVE",
"56 640 OFFCURVE",
"56 527 CURVE",
"56 419 OFFCURVE",
"142 381 OFFCURVE",
"225 352 CURVE SMOOTH",
"320 319 LINE SMOOTH",
"431 281 OFFCURVE",
"487 247 OFFCURVE",
"487 157 CURVE SMOOTH"
);
},
{
closed = 1;
nodes = (
"314 -51 LINE",
"275 -51 LINE",
"237 -178 LINE",
"264 -178 LINE"
);
}
);
width = 571;
}
);
unicode = 0218;
},
{
glyphname = T;
layers = (
{
layerId = "9C3819CB-81CB-4535-9429-AFFD112764D7";
paths = (
{
closed = 1;
nodes = (
"216 688 LINE",
"216 0 LINE",
"386 0 LINE",
"386 688 LINE"
);
},
{
closed = 1;
nodes = (
"10 528 LINE",
"592 528 LINE",
"592 688 LINE",
"10 688 LINE"
);
}
);
width = 602;
},
{
layerId = "43C446DC-37EE-4C34-A65A-9E71F2AC18B3";
paths = (
{
closed = 1;
nodes = (
"262 688 LINE",
"262 0 LINE",
"292 0 LINE",
"292 688 LINE"
);
},
{
closed = 1;
nodes = (
"9 660 LINE",
"545 660 LINE",
"545 688 LINE",
"9 688 LINE"
);
}
);
width = 554;
}
);
unicode = 0054;
},
{
glyphname = Tcommaaccent;
layers = (
{
layerId = "9C3819CB-81CB-4535-9429-AFFD112764D7";
paths = (
{
closed = 1;
nodes = (
"216 688 LINE",
"216 0 LINE",
"386 0 LINE",
"386 688 LINE"
);
},
{
closed = 1;
nodes = (
"10 528 LINE",
"592 528 LINE",
"592 688 LINE",
"10 688 LINE"
);
},
{
closed = 1;
nodes = (
"374 -51 LINE",
"219 -51 LINE",
"189 -211 LINE",
"314 -211 LINE"
);
}
);
width = 602;
},
{
layerId = "43C446DC-37EE-4C34-A65A-9E71F2AC18B3";
paths = (
{
closed = 1;
nodes = (
"262 688 LINE",
"262 0 LINE",
"292 0 LINE",
"292 688 LINE"
);
},
{
closed = 1;
nodes = (
"9 660 LINE",
"545 660 LINE",
"545 688 LINE",
"9 688 LINE"
);
},
{
closed = 1;
nodes = (
"296 -51 LINE",
"257 -51 LINE",
"219 -178 LINE",
"246 -178 LINE"
);
}
);
width = 554;
}
);
unicode = 021A;
},
{
glyphname = Tcaron;
layers = (
{
layerId = "9C3819CB-81CB-4535-9429-AFFD112764D7";
paths = (
{
closed = 1;
nodes = (
"216 688 LINE",
"216 0 LINE",
"386 0 LINE",
"386 688 LINE"
);
},
{
closed = 1;
nodes = (
"10 528 LINE",
"592 528 LINE",
"592 688 LINE",
"10 688 LINE"
);
},
{
closed = 1;
nodes = (
"373 748 LINE",
"490 874 LINE",
"339 874 LINE",
"301 827 LINE",
"263 874 LINE",
"112 874 LINE",
"229 748 LINE"
);
}
);
width = 602;
},
{
layerId = "43C446DC-37EE-4C34-A65A-9E71F2AC18B3";
paths = (
{
closed = 1;
nodes = (
"262 688 LINE",
"262 0 LINE",
"292 0 LINE",
"292 688 LINE"
);
},
{
closed = 1;
nodes = (
"9 660 LINE",
"545 660 LINE",
"545 688 LINE",
"9 688 LINE"
);
},
{
closed = 1;
nodes = (
"294 748 LINE",
"416 874 LINE",
"383 874 LINE",
"277 776 LINE",
"171 874 LINE",
"138 874 LINE",
"260 748 LINE"
);
}
);
width = 554;
}
);
unicode = 0164;
},
{
glyphname = U;
layers = (
{
guideLines = (
{
angle = 90;
position = "{348, 0}";
}
);
layerId = "9C3819CB-81CB-4535-9429-AFFD112764D7";
paths = (
{
closed = 1;
nodes = (
"661 688 LINE",
"481 688 LINE",
"481 282 LINE SMOOTH",
"481 198 OFFCURVE",
"440 160 OFFCURVE",
"358 160 CURVE SMOOTH",
"276 160 OFFCURVE",
"235 198 OFFCURVE",
"235 282 CURVE SMOOTH",
"235 688 LINE",
"55 688 LINE",
"55 285 LINE SMOOTH",
"55 108 OFFCURVE",
"145 -10 OFFCURVE",
"358 -10 CURVE SMOOTH",
"571 -10 OFFCURVE",
"661 108 OFFCURVE",
"661 285 CURVE SMOOTH"
);
}
);
width = 716;
},
{
layerId = "43C446DC-37EE-4C34-A65A-9E71F2AC18B3";
paths = (
{
closed = 1;
nodes = (
"634 688 LINE",
"604 688 LINE",
"604 285 LINE SMOOTH",
"604 129 OFFCURVE",
"531 18 OFFCURVE",
"364 18 CURVE SMOOTH",
"197 18 OFFCURVE",
"124 129 OFFCURVE",
"124 285 CURVE SMOOTH",
"124 688 LINE",
"94 688 LINE",
"94 285 LINE SMOOTH",
"94 112 OFFCURVE",
"177 -10 OFFCURVE",
"364 -10 CURVE SMOOTH",
"551 -10 OFFCURVE",
"634 112 OFFCURVE",
"634 285 CURVE SMOOTH"
);
}
);
width = 728;
}
);
unicode = 0055;
},
{
glyphname = Ugrave;
layers = (
{
layerId = "9C3819CB-81CB-4535-9429-AFFD112764D7";
paths = (
{
closed = 1;
nodes = (
"661 688 LINE",
"481 688 LINE",
"481 282 LINE SMOOTH",
"481 198 OFFCURVE",
"440 160 OFFCURVE",
"358 160 CURVE SMOOTH",
"276 160 OFFCURVE",
"235 198 OFFCURVE",
"235 282 CURVE SMOOTH",
"235 688 LINE",
"55 688 LINE",
"55 285 LINE SMOOTH",
"55 108 OFFCURVE",
"145 -10 OFFCURVE",
"358 -10 CURVE SMOOTH",
"571 -10 OFFCURVE",
"661 108 OFFCURVE",
"661 285 CURVE SMOOTH"
);
},
{
closed = 1;
nodes = (
"343 874 LINE",
"155 874 LINE",
"295 747 LINE",
"295 747 OFFCURVE",
"441 747 OFFCURVE",
"441 747 CURVE"
);
}
);
width = 716;
},
{
layerId = "43C446DC-37EE-4C34-A65A-9E71F2AC18B3";
paths = (
{
closed = 1;
nodes = (
"634 688 LINE",
"604 688 LINE",
"604 285 LINE SMOOTH",
"604 129 OFFCURVE",
"531 18 OFFCURVE",
"364 18 CURVE SMOOTH",
"197 18 OFFCURVE",
"124 129 OFFCURVE",
"124 285 CURVE SMOOTH",
"124 688 LINE",
"94 688 LINE",
"94 285 LINE SMOOTH",
"94 112 OFFCURVE",
"177 -10 OFFCURVE",
"364 -10 CURVE SMOOTH",
"551 -10 OFFCURVE",
"634 112 OFFCURVE",
"634 285 CURVE SMOOTH"
);
},
{
closed = 1;
nodes = (
"287 874 LINE",
"244 874 LINE",
"354 748 LINE",
"354 748 OFFCURVE",
"385 748 OFFCURVE",
"385 748 CURVE"
);
}
);
width = 728;
}
);
unicode = 00D9;
},
{
glyphname = Uacute;
layers = (
{
layerId = "9C3819CB-81CB-4535-9429-AFFD112764D7";
paths = (
{
closed = 1;
nodes = (
"661 688 LINE",
"481 688 LINE",
"481 282 LINE SMOOTH",
"481 198 OFFCURVE",
"440 160 OFFCURVE",
"358 160 CURVE SMOOTH",
"276 160 OFFCURVE",
"235 198 OFFCURVE",
"235 282 CURVE SMOOTH",
"235 688 LINE",
"55 688 LINE",
"55 285 LINE SMOOTH",
"55 108 OFFCURVE",
"145 -10 OFFCURVE",
"358 -10 CURVE SMOOTH",
"571 -10 OFFCURVE",
"661 108 OFFCURVE",
"661 285 CURVE SMOOTH"
);
},
{
closed = 1;
nodes = (
"373 874 LINE",
"275 747 LINE",
"275 747 OFFCURVE",
"421 747 OFFCURVE",
"421 747 CURVE",
"561 874 LINE"
);
}
);
width = 716;
},
{
layerId = "43C446DC-37EE-4C34-A65A-9E71F2AC18B3";
paths = (
{
closed = 1;
nodes = (
"634 688 LINE",
"604 688 LINE",
"604 285 LINE SMOOTH",
"604 129 OFFCURVE",
"531 18 OFFCURVE",
"364 18 CURVE SMOOTH",
"197 18 OFFCURVE",
"124 129 OFFCURVE",
"124 285 CURVE SMOOTH",
"124 688 LINE",
"94 688 LINE",
"94 285 LINE SMOOTH",
"94 112 OFFCURVE",
"177 -10 OFFCURVE",
"364 -10 CURVE SMOOTH",
"551 -10 OFFCURVE",
"634 112 OFFCURVE",
"634 285 CURVE SMOOTH"
);
},
{
closed = 1;
nodes = (
"442 874 LINE",
"344 748 LINE",
"344 748 OFFCURVE",
"375 748 OFFCURVE",
"375 748 CURVE",
"485 874 LINE"
);
}
);
width = 728;
}
);
unicode = 00DA;
},
{
glyphname = Ucircumflex;
layers = (
{
layerId = "9C3819CB-81CB-4535-9429-AFFD112764D7";
paths = (
{
closed = 1;
nodes = (
"661 688 LINE",
"481 688 LINE",
"481 282 LINE SMOOTH",
"481 198 OFFCURVE",
"440 160 OFFCURVE",
"358 160 CURVE SMOOTH",
"276 160 OFFCURVE",
"235 198 OFFCURVE",
"235 282 CURVE SMOOTH",
"235 688 LINE",
"55 688 LINE",
"55 285 LINE SMOOTH",
"55 108 OFFCURVE",
"145 -10 OFFCURVE",
"358 -10 CURVE SMOOTH",
"571 -10 OFFCURVE",
"661 108 OFFCURVE",
"661 285 CURVE SMOOTH"
);
},
{
closed = 1;
nodes = (
"169 748 LINE",
"320 748 LINE",
"358 795 LINE",
"396 748 LINE",
"547 748 LINE",
"430 874 LINE",
"286 874 LINE"
);
}
);
width = 716;
},
{
layerId = "43C446DC-37EE-4C34-A65A-9E71F2AC18B3";
paths = (
{
closed = 1;
nodes = (
"634 688 LINE",
"604 688 LINE",
"604 285 LINE SMOOTH",
"604 129 OFFCURVE",
"531 18 OFFCURVE",
"364 18 CURVE SMOOTH",
"197 18 OFFCURVE",
"124 129 OFFCURVE",
"124 285 CURVE SMOOTH",
"124 688 LINE",
"94 688 LINE",
"94 285 LINE SMOOTH",
"94 112 OFFCURVE",
"177 -10 OFFCURVE",
"364 -10 CURVE SMOOTH",
"551 -10 OFFCURVE",
"634 112 OFFCURVE",
"634 285 CURVE SMOOTH"
);
},
{
closed = 1;
nodes = (
"225 748 LINE",
"258 748 LINE",
"364 846 LINE",
"470 748 LINE",
"503 748 LINE",
"381 874 LINE",
"347 874 LINE"
);
}
);
width = 728;
}
);
unicode = 00DB;
},
{
glyphname = Udieresis;
layers = (
{
layerId = "9C3819CB-81CB-4535-9429-AFFD112764D7";
paths = (
{
closed = 1;
nodes = (
"661 688 LINE",
"481 688 LINE",
"481 282 LINE SMOOTH",
"481 198 OFFCURVE",
"440 160 OFFCURVE",
"358 160 CURVE SMOOTH",
"276 160 OFFCURVE",
"235 198 OFFCURVE",
"235 282 CURVE SMOOTH",
"235 688 LINE",
"55 688 LINE",
"55 285 LINE SMOOTH",
"55 108 OFFCURVE",
"145 -10 OFFCURVE",
"358 -10 CURVE SMOOTH",
"571 -10 OFFCURVE",
"661 108 OFFCURVE",
"661 285 CURVE SMOOTH"
);
},
{
closed = 1;
nodes = (
"303 738 OFFCURVE",
"340 765 OFFCURVE",
"340 809 CURVE SMOOTH",
"340 855 OFFCURVE",
"303 882 OFFCURVE",
"258 882 CURVE SMOOTH",
"213 882 OFFCURVE",
"177 855 OFFCURVE",
"177 809 CURVE SMOOTH",
"177 765 OFFCURVE",
"213 738 OFFCURVE",
"258 738 CURVE SMOOTH"
);
},
{
closed = 1;
nodes = (
"503 738 OFFCURVE",
"540 765 OFFCURVE",
"540 809 CURVE SMOOTH",
"540 855 OFFCURVE",
"503 882 OFFCURVE",
"458 882 CURVE SMOOTH",
"413 882 OFFCURVE",
"377 855 OFFCURVE",
"377 809 CURVE SMOOTH",
"377 765 OFFCURVE",
"413 738 OFFCURVE",
"458 738 CURVE SMOOTH"
);
}
);
width = 716;
},
{
layerId = "43C446DC-37EE-4C34-A65A-9E71F2AC18B3";
paths = (
{
closed = 1;
nodes = (
"634 688 LINE",
"604 688 LINE",
"604 285 LINE SMOOTH",
"604 129 OFFCURVE",
"531 18 OFFCURVE",
"364 18 CURVE SMOOTH",
"197 18 OFFCURVE",
"124 129 OFFCURVE",
"124 285 CURVE SMOOTH",
"124 688 LINE",
"94 688 LINE",
"94 285 LINE SMOOTH",
"94 112 OFFCURVE",
"177 -10 OFFCURVE",
"364 -10 CURVE SMOOTH",
"551 -10 OFFCURVE",
"634 112 OFFCURVE",
"634 285 CURVE SMOOTH"
);
},
{
closed = 1;
nodes = (
"299 784 OFFCURVE",
"311 796 OFFCURVE",
"311 811 CURVE SMOOTH",
"311 825 OFFCURVE",
"299 838 OFFCURVE",
"284 838 CURVE SMOOTH",
"269 838 OFFCURVE",
"257 825 OFFCURVE",
"257 811 CURVE SMOOTH",
"257 796 OFFCURVE",
"269 784 OFFCURVE",
"284 784 CURVE SMOOTH"
);
},
{
closed = 1;
nodes = (
"459 784 OFFCURVE",
"471 796 OFFCURVE",
"471 811 CURVE SMOOTH",
"471 825 OFFCURVE",
"459 838 OFFCURVE",
"444 838 CURVE SMOOTH",
"429 838 OFFCURVE",
"417 825 OFFCURVE",
"417 811 CURVE SMOOTH",
"417 796 OFFCURVE",
"429 784 OFFCURVE",
"444 784 CURVE SMOOTH"
);
}
);
width = 728;
}
);
unicode = 00DC;
},
{
glyphname = Utilde;
layers = (
{
layerId = "9C3819CB-81CB-4535-9429-AFFD112764D7";
paths = (
{
closed = 1;
nodes = (
"661 688 LINE",
"481 688 LINE",
"481 282 LINE SMOOTH",
"481 198 OFFCURVE",
"440 160 OFFCURVE",
"358 160 CURVE SMOOTH",
"276 160 OFFCURVE",
"235 198 OFFCURVE",
"235 282 CURVE SMOOTH",
"235 688 LINE",
"55 688 LINE",
"55 285 LINE SMOOTH",
"55 108 OFFCURVE",
"145 -10 OFFCURVE",
"358 -10 CURVE SMOOTH",
"571 -10 OFFCURVE",
"661 108 OFFCURVE",
"661 285 CURVE SMOOTH"
);
},
{
closed = 1;
nodes = (
"469 738 OFFCURVE",
"504 759 OFFCURVE",
"536 806 CURVE",
"536 896 LINE",
"513 870 OFFCURVE",
"480 833 OFFCURVE",
"435 833 CURVE SMOOTH",
"388 833 OFFCURVE",
"333 884 OFFCURVE",
"284 884 CURVE SMOOTH",
"247 884 OFFCURVE",
"212 863 OFFCURVE",
"180 816 CURVE",
"180 726 LINE",
"203 752 OFFCURVE",
"236 789 OFFCURVE",
"281 789 CURVE SMOOTH",
"328 789 OFFCURVE",
"383 738 OFFCURVE",
"433 738 CURVE SMOOTH"
);
}
);
width = 716;
},
{
layerId = "43C446DC-37EE-4C34-A65A-9E71F2AC18B3";
paths = (
{
closed = 1;
nodes = (
"634 688 LINE",
"604 688 LINE",
"604 285 LINE SMOOTH",
"604 129 OFFCURVE",
"531 18 OFFCURVE",
"364 18 CURVE SMOOTH",
"197 18 OFFCURVE",
"124 129 OFFCURVE",
"124 285 CURVE SMOOTH",
"124 688 LINE",
"94 688 LINE",
"94 285 LINE SMOOTH",
"94 112 OFFCURVE",
"177 -10 OFFCURVE",
"364 -10 CURVE SMOOTH",
"551 -10 OFFCURVE",
"634 112 OFFCURVE",
"634 285 CURVE SMOOTH"
);
},
{
closed = 1;
nodes = (
"456 767 OFFCURVE",
"478 779 OFFCURVE",
"496 805 CURVE",
"496 848 LINE",
"483 817 OFFCURVE",
"462 797 OFFCURVE",
"433 797 CURVE SMOOTH",
"383 797 OFFCURVE",
"359 855 OFFCURVE",
"300 855 CURVE SMOOTH",
"274 855 OFFCURVE",
"252 842 OFFCURVE",
"233 815 CURVE",
"233 774 LINE",
"248 805 OFFCURVE",
"269 825 OFFCURVE",
"296 825 CURVE SMOOTH",
"346 825 OFFCURVE",
"372 767 OFFCURVE",
"431 767 CURVE SMOOTH"
);
}
);
width = 728;
}
);
unicode = 0168;
},
{
glyphname = Umacron;
layers = (
{
layerId = "9C3819CB-81CB-4535-9429-AFFD112764D7";
paths = (
{
closed = 1;
nodes = (
"661 688 LINE",
"481 688 LINE",
"481 282 LINE SMOOTH",
"481 198 OFFCURVE",
"440 160 OFFCURVE",
"358 160 CURVE SMOOTH",
"276 160 OFFCURVE",
"235 198 OFFCURVE",
"235 282 CURVE SMOOTH",
"235 688 LINE",
"55 688 LINE",
"55 285 LINE SMOOTH",
"55 108 OFFCURVE",
"145 -10 OFFCURVE",
"358 -10 CURVE SMOOTH",
"571 -10 OFFCURVE",
"661 108 OFFCURVE",
"661 285 CURVE SMOOTH"
);
},
{
closed = 1;
nodes = (
"201 864 LINE",
"201 864 OFFCURVE",
"201 759 OFFCURVE",
"201 759 CURVE",
"516 759 LINE",
"516 864 LINE"
);
}
);
width = 716;
},
{
layerId = "43C446DC-37EE-4C34-A65A-9E71F2AC18B3";
paths = (
{
closed = 1;
nodes = (
"634 688 LINE",
"604 688 LINE",
"604 285 LINE SMOOTH",
"604 129 OFFCURVE",
"531 18 OFFCURVE",
"364 18 CURVE SMOOTH",
"197 18 OFFCURVE",
"124 129 OFFCURVE",
"124 285 CURVE SMOOTH",
"124 688 LINE",
"94 688 LINE",
"94 285 LINE SMOOTH",
"94 112 OFFCURVE",
"177 -10 OFFCURVE",
"364 -10 CURVE SMOOTH",
"551 -10 OFFCURVE",
"634 112 OFFCURVE",
"634 285 CURVE SMOOTH"
);
},
{
closed = 1;
nodes = (
"237 826 LINE",
"237 826 OFFCURVE",
"237 796 OFFCURVE",
"237 796 CURVE",
"492 796 LINE",
"492 826 LINE"
);
}
);
width = 728;
}
);
unicode = 016A;
},
{
glyphname = Ubreve;
layers = (
{
layerId = "9C3819CB-81CB-4535-9429-AFFD112764D7";
paths = (
{
closed = 1;
nodes = (
"661 688 LINE",
"481 688 LINE",
"481 282 LINE SMOOTH",
"481 198 OFFCURVE",
"440 160 OFFCURVE",
"358 160 CURVE SMOOTH",
"276 160 OFFCURVE",
"235 198 OFFCURVE",
"235 282 CURVE SMOOTH",
"235 688 LINE",
"55 688 LINE",
"55 285 LINE SMOOTH",
"55 108 OFFCURVE",
"145 -10 OFFCURVE",
"358 -10 CURVE SMOOTH",
"571 -10 OFFCURVE",
"661 108 OFFCURVE",
"661 285 CURVE SMOOTH"
);
},
{
closed = 1;
nodes = (
"451 738 OFFCURVE",
"519 797 OFFCURVE",
"519 874 CURVE",
"409 874 LINE",
"409 851 OFFCURVE",
"396 840 OFFCURVE",
"358 840 CURVE SMOOTH",
"320 840 OFFCURVE",
"307 851 OFFCURVE",
"307 874 CURVE",
"198 874 LINE",
"198 797 OFFCURVE",
"266 738 OFFCURVE",
"358 738 CURVE SMOOTH"
);
}
);
width = 716;
},
{
layerId = "43C446DC-37EE-4C34-A65A-9E71F2AC18B3";
paths = (
{
closed = 1;
nodes = (
"634 688 LINE",
"604 688 LINE",
"604 285 LINE SMOOTH",
"604 129 OFFCURVE",
"531 18 OFFCURVE",
"364 18 CURVE SMOOTH",
"197 18 OFFCURVE",
"124 129 OFFCURVE",
"124 285 CURVE SMOOTH",
"124 688 LINE",
"94 688 LINE",
"94 285 LINE SMOOTH",
"94 112 OFFCURVE",
"177 -10 OFFCURVE",
"364 -10 CURVE SMOOTH",
"551 -10 OFFCURVE",
"634 112 OFFCURVE",
"634 285 CURVE SMOOTH"
);
},
{
closed = 1;
nodes = (
"431 748 OFFCURVE",
"475 793 OFFCURVE",
"475 874 CURVE",
"446 874 LINE",
"446 805 OFFCURVE",
"409 775 OFFCURVE",
"364 775 CURVE SMOOTH",
"319 775 OFFCURVE",
"283 805 OFFCURVE",
"283 874 CURVE",
"254 874 LINE",
"254 793 OFFCURVE",
"298 748 OFFCURVE",
"364 748 CURVE SMOOTH"
);
}
);
width = 728;
}
);
unicode = 016C;
},
{
glyphname = Uring;
layers = (
{
layerId = "9C3819CB-81CB-4535-9429-AFFD112764D7";
paths = (
{
closed = 1;
nodes = (
"661 688 LINE",
"481 688 LINE",
"481 282 LINE SMOOTH",
"481 198 OFFCURVE",
"440 160 OFFCURVE",
"358 160 CURVE SMOOTH",
"276 160 OFFCURVE",
"235 198 OFFCURVE",
"235 282 CURVE SMOOTH",
"235 688 LINE",
"55 688 LINE",
"55 285 LINE SMOOTH",
"55 108 OFFCURVE",
"145 -10 OFFCURVE",
"358 -10 CURVE SMOOTH",
"571 -10 OFFCURVE",
"661 108 OFFCURVE",
"661 285 CURVE SMOOTH"
);
},
{
closed = 1;
nodes = (
"434 738 OFFCURVE",
"475 768 OFFCURVE",
"475 812 CURVE SMOOTH",
"475 856 OFFCURVE",
"434 886 OFFCURVE",
"358 886 CURVE SMOOTH",
"282 886 OFFCURVE",
"241 856 OFFCURVE",
"241 812 CURVE SMOOTH",
"241 768 OFFCURVE",
"282 738 OFFCURVE",
"358 738 CURVE SMOOTH"
);
},
{
closed = 1;
nodes = (
"334 795 OFFCURVE",
"327 802 OFFCURVE",
"327 812 CURVE SMOOTH",
"327 822 OFFCURVE",
"334 829 OFFCURVE",
"359 829 CURVE SMOOTH",
"384 829 OFFCURVE",
"391 822 OFFCURVE",
"391 812 CURVE SMOOTH",
"391 802 OFFCURVE",
"384 795 OFFCURVE",
"359 795 CURVE SMOOTH"
);
}
);
width = 716;
},
{
layerId = "43C446DC-37EE-4C34-A65A-9E71F2AC18B3";
paths = (
{
closed = 1;
nodes = (
"634 688 LINE",
"604 688 LINE",
"604 285 LINE SMOOTH",
"604 129 OFFCURVE",
"531 18 OFFCURVE",
"364 18 CURVE SMOOTH",
"197 18 OFFCURVE",
"124 129 OFFCURVE",
"124 285 CURVE SMOOTH",
"124 688 LINE",
"94 688 LINE",
"94 285 LINE SMOOTH",
"94 112 OFFCURVE",
"177 -10 OFFCURVE",
"364 -10 CURVE SMOOTH",
"551 -10 OFFCURVE",
"634 112 OFFCURVE",
"634 285 CURVE SMOOTH"
);
},
{
closed = 1;
nodes = (
"423 711 OFFCURVE",
"467 756 OFFCURVE",
"467 811 CURVE SMOOTH",
"467 866 OFFCURVE",
"423 911 OFFCURVE",
"364 911 CURVE SMOOTH",
"306 911 OFFCURVE",
"261 866 OFFCURVE",
"261 811 CURVE SMOOTH",
"261 756 OFFCURVE",
"306 711 OFFCURVE",
"364 711 CURVE SMOOTH"
);
},
{
closed = 1;
nodes = (
"325 738 OFFCURVE",
"289 768 OFFCURVE",
"289 811 CURVE SMOOTH",
"289 854 OFFCURVE",
"325 885 OFFCURVE",
"365 885 CURVE SMOOTH",
"405 885 OFFCURVE",
"439 854 OFFCURVE",
"439 811 CURVE SMOOTH",
"439 768 OFFCURVE",
"405 738 OFFCURVE",
"365 738 CURVE SMOOTH"
);
}
);
width = 728;
}
);
unicode = 016E;
},
{
glyphname = Uhungarumlaut;
layers = (
{
layerId = "9C3819CB-81CB-4535-9429-AFFD112764D7";
paths = (
{
closed = 1;
nodes = (
"661 688 LINE",
"481 688 LINE",
"481 282 LINE SMOOTH",
"481 198 OFFCURVE",
"440 160 OFFCURVE",
"358 160 CURVE SMOOTH",
"276 160 OFFCURVE",
"235 198 OFFCURVE",
"235 282 CURVE SMOOTH",
"235 688 LINE",
"55 688 LINE",
"55 285 LINE SMOOTH",
"55 108 OFFCURVE",
"145 -10 OFFCURVE",
"358 -10 CURVE SMOOTH",
"571 -10 OFFCURVE",
"661 108 OFFCURVE",
"661 285 CURVE SMOOTH"
);
},
{
closed = 1;
nodes = (
"285 874 LINE",
"187 747 LINE",
"187 747 OFFCURVE",
"308 747 OFFCURVE",
"308 747 CURVE",
"438 874 LINE"
);
},
{
closed = 1;
nodes = (
"486 874 LINE",
"388 747 LINE",
"388 747 OFFCURVE",
"509 747 OFFCURVE",
"509 747 CURVE",
"649 874 LINE"
);
}
);
width = 716;
},
{
layerId = "43C446DC-37EE-4C34-A65A-9E71F2AC18B3";
paths = (
{
closed = 1;
nodes = (
"634 688 LINE",
"604 688 LINE",
"604 285 LINE SMOOTH",
"604 129 OFFCURVE",
"531 18 OFFCURVE",
"364 18 CURVE SMOOTH",
"197 18 OFFCURVE",
"124 129 OFFCURVE",
"124 285 CURVE SMOOTH",
"124 688 LINE",
"94 688 LINE",
"94 285 LINE SMOOTH",
"94 112 OFFCURVE",
"177 -10 OFFCURVE",
"364 -10 CURVE SMOOTH",
"551 -10 OFFCURVE",
"634 112 OFFCURVE",
"634 285 CURVE SMOOTH"
);
},
{
closed = 1;
nodes = (
"371 874 LINE",
"273 748 LINE",
"273 748 OFFCURVE",
"304 748 OFFCURVE",
"304 748 CURVE",
"414 874 LINE"
);
},
{
closed = 1;
nodes = (
"492 874 LINE",
"394 748 LINE",
"394 748 OFFCURVE",
"425 748 OFFCURVE",
"425 748 CURVE",
"535 874 LINE"
);
}
);
width = 728;
}
);
unicode = 0170;
},
{
glyphname = Uogonek;
layers = (
{
layerId = "9C3819CB-81CB-4535-9429-AFFD112764D7";
paths = (
{
closed = 1;
nodes = (
"661 688 LINE",
"481 688 LINE",
"481 282 LINE SMOOTH",
"481 198 OFFCURVE",
"440 160 OFFCURVE",
"358 160 CURVE SMOOTH",
"276 160 OFFCURVE",
"235 198 OFFCURVE",
"235 282 CURVE SMOOTH",
"235 688 LINE",
"55 688 LINE",
"55 285 LINE SMOOTH",
"55 108 OFFCURVE",
"145 -10 OFFCURVE",
"358 -10 CURVE SMOOTH",
"571 -10 OFFCURVE",
"661 108 OFFCURVE",
"661 285 CURVE SMOOTH"
);
},
{
closed = 1;
nodes = (
"334 0 LINE",
"294 -23 OFFCURVE",
"269 -58 OFFCURVE",
"269 -94 CURVE SMOOTH",
"269 -152 OFFCURVE",
"317 -178 OFFCURVE",
"375 -178 CURVE SMOOTH",
"402 -178 OFFCURVE",
"429 -169 OFFCURVE",
"447 -158 CURVE",
"447 -69 LINE",
"431 -81 OFFCURVE",
"413 -87 OFFCURVE",
"398 -87 CURVE SMOOTH",
"382 -87 OFFCURVE",
"365 -83 OFFCURVE",
"365 -63 CURVE SMOOTH",
"365 -44 OFFCURVE",
"387 -21 OFFCURVE",
"416 0 CURVE"
);
}
);
width = 716;
},
{
layerId = "43C446DC-37EE-4C34-A65A-9E71F2AC18B3";
paths = (
{
closed = 1;
nodes = (
"634 688 LINE",
"604 688 LINE",
"604 285 LINE SMOOTH",
"604 129 OFFCURVE",
"531 18 OFFCURVE",
"364 18 CURVE SMOOTH",
"197 18 OFFCURVE",
"124 129 OFFCURVE",
"124 285 CURVE SMOOTH",
"124 688 LINE",
"94 688 LINE",
"94 285 LINE SMOOTH",
"94 112 OFFCURVE",
"177 -10 OFFCURVE",
"364 -10 CURVE SMOOTH",
"551 -10 OFFCURVE",
"634 112 OFFCURVE",
"634 285 CURVE SMOOTH"
);
},
{
closed = 1;
nodes = (
"387 0 LINE",
"326 -31 OFFCURVE",
"285 -63 OFFCURVE",
"285 -102 CURVE SMOOTH",
"285 -145 OFFCURVE",
"317 -168 OFFCURVE",
"364 -168 CURVE SMOOTH",
"396 -168 OFFCURVE",
"422 -157 OFFCURVE",
"441 -143 CURVE",
"441 -109 LINE",
"418 -130 OFFCURVE",
"391 -138 OFFCURVE",
"366 -138 CURVE SMOOTH",
"337 -138 OFFCURVE",
"317 -121 OFFCURVE",
"317 -98 CURVE",
"317 -67 OFFCURVE",
"357 -36 OFFCURVE",
"415 0 CURVE"
);
}
);
width = 728;
}
);
unicode = 0172;
},
{
glyphname = V;
layers = (
{
guideLines = (
{
angle = 90;
position = "{379, 0}";
}
);
layerId = "9C3819CB-81CB-4535-9429-AFFD112764D7";
paths = (
{
closed = 1;
nodes = (
"274 0 LINE",
"485 0 LINE",
"756 688 LINE",
"558 688 LINE",
"381 171 LINE",
"206 688 LINE",
"5 688 LINE"
);
}
);
width = 761;
},
{
layerId = "43C446DC-37EE-4C34-A65A-9E71F2AC18B3";
paths = (
{
closed = 1;
nodes = (
"314 0 LINE",
"346 0 LINE",
"650 688 LINE",
"618 688 LINE",
"330 32 LINE",
"42 688 LINE",
"10 688 LINE"
);
}
);
width = 660;
}
);
unicode = 0056;
},
{
glyphname = W;
layers = (
{
layerId = "9C3819CB-81CB-4535-9429-AFFD112764D7";
paths = (
{
closed = 1;
nodes = (
"177 0 LINE",
"406 0 LINE",
"516 481 LINE",
"626 0 LINE",
"855 0 LINE",
"1017 688 LINE",
"812 688 LINE",
"738 177 LINE",
"614 688 LINE",
"419 688 LINE",
"294 177 LINE",
"220 688 LINE",
"15 688 LINE"
);
}
);
width = 1032;
},
{
layerId = "43C446DC-37EE-4C34-A65A-9E71F2AC18B3";
paths = (
{
closed = 1;
nodes = (
"229 0 LINE",
"262 0 LINE",
"504 654 LINE",
"746 0 LINE",
"778 0 LINE",
"982 688 LINE",
"950 688 LINE",
"761 41 LINE",
"522 688 LINE",
"485 688 LINE",
"246 39 LINE",
"57 688 LINE",
"25 688 LINE"
);
}
);
width = 1007;
}
);
unicode = 0057;
},
{
glyphname = Wcircumflex;
layers = (
{
layerId = "9C3819CB-81CB-4535-9429-AFFD112764D7";
paths = (
{
closed = 1;
nodes = (
"177 0 LINE",
"406 0 LINE",
"516 481 LINE",
"626 0 LINE",
"855 0 LINE",
"1017 688 LINE",
"812 688 LINE",
"738 177 LINE",
"614 688 LINE",
"419 688 LINE",
"294 177 LINE",
"220 688 LINE",
"15 688 LINE"
);
},
{
closed = 1;
nodes = (
"327 748 LINE",
"478 748 LINE",
"516 795 LINE",
"554 748 LINE",
"705 748 LINE",
"588 874 LINE",
"444 874 LINE"
);
}
);
width = 1032;
},
{
layerId = "43C446DC-37EE-4C34-A65A-9E71F2AC18B3";
paths = (
{
closed = 1;
nodes = (
"229 0 LINE",
"262 0 LINE",
"504 654 LINE",
"746 0 LINE",
"778 0 LINE",
"982 688 LINE",
"950 688 LINE",
"761 41 LINE",
"522 688 LINE",
"485 688 LINE",
"246 39 LINE",
"57 688 LINE",
"25 688 LINE"
);
},
{
closed = 1;
nodes = (
"364 748 LINE",
"397 748 LINE",
"503 846 LINE",
"609 748 LINE",
"642 748 LINE",
"520 874 LINE",
"486 874 LINE"
);
}
);
width = 1007;
}
);
unicode = 0174;
},
{
glyphname = Wgrave;
layers = (
{
layerId = "9C3819CB-81CB-4535-9429-AFFD112764D7";
paths = (
{
closed = 1;
nodes = (
"177 0 LINE",
"406 0 LINE",
"516 481 LINE",
"626 0 LINE",
"855 0 LINE",
"1017 688 LINE",
"812 688 LINE",
"738 177 LINE",
"614 688 LINE",
"419 688 LINE",
"294 177 LINE",
"220 688 LINE",
"15 688 LINE"
);
},
{
closed = 1;
nodes = (
"501 874 LINE",
"313 874 LINE",
"453 747 LINE",
"453 747 OFFCURVE",
"599 747 OFFCURVE",
"599 747 CURVE"
);
}
);
width = 1032;
},
{
layerId = "43C446DC-37EE-4C34-A65A-9E71F2AC18B3";
paths = (
{
closed = 1;
nodes = (
"229 0 LINE",
"262 0 LINE",
"504 654 LINE",
"746 0 LINE",
"778 0 LINE",
"982 688 LINE",
"950 688 LINE",
"761 41 LINE",
"522 688 LINE",
"485 688 LINE",
"246 39 LINE",
"57 688 LINE",
"25 688 LINE"
);
},
{
closed = 1;
nodes = (
"426 874 LINE",
"383 874 LINE",
"493 748 LINE",
"493 748 OFFCURVE",
"524 748 OFFCURVE",
"524 748 CURVE"
);
}
);
width = 1007;
}
);
unicode = 1E80;
},
{
glyphname = Wacute;
layers = (
{
layerId = "9C3819CB-81CB-4535-9429-AFFD112764D7";
paths = (
{
closed = 1;
nodes = (
"177 0 LINE",
"406 0 LINE",
"516 481 LINE",
"626 0 LINE",
"855 0 LINE",
"1017 688 LINE",
"812 688 LINE",
"738 177 LINE",
"614 688 LINE",
"419 688 LINE",
"294 177 LINE",
"220 688 LINE",
"15 688 LINE"
);
},
{
closed = 1;
nodes = (
"531 874 LINE",
"433 747 LINE",
"433 747 OFFCURVE",
"579 747 OFFCURVE",
"579 747 CURVE",
"719 874 LINE"
);
}
);
width = 1032;
},
{
layerId = "43C446DC-37EE-4C34-A65A-9E71F2AC18B3";
paths = (
{
closed = 1;
nodes = (
"229 0 LINE",
"262 0 LINE",
"504 654 LINE",
"746 0 LINE",
"778 0 LINE",
"982 688 LINE",
"950 688 LINE",
"761 41 LINE",
"522 688 LINE",
"485 688 LINE",
"246 39 LINE",
"57 688 LINE",
"25 688 LINE"
);
},
{
closed = 1;
nodes = (
"581 874 LINE",
"483 748 LINE",
"483 748 OFFCURVE",
"514 748 OFFCURVE",
"514 748 CURVE",
"624 874 LINE"
);
}
);
width = 1007;
}
);
unicode = 1E82;
},
{
glyphname = Wdieresis;
layers = (
{
layerId = "9C3819CB-81CB-4535-9429-AFFD112764D7";
paths = (
{
closed = 1;
nodes = (
"177 0 LINE",
"406 0 LINE",
"516 481 LINE",
"626 0 LINE",
"855 0 LINE",
"1017 688 LINE",
"812 688 LINE",
"738 177 LINE",
"614 688 LINE",
"419 688 LINE",
"294 177 LINE",
"220 688 LINE",
"15 688 LINE"
);
},
{
closed = 1;
nodes = (
"461 738 OFFCURVE",
"498 765 OFFCURVE",
"498 809 CURVE SMOOTH",
"498 855 OFFCURVE",
"461 882 OFFCURVE",
"416 882 CURVE SMOOTH",
"371 882 OFFCURVE",
"335 855 OFFCURVE",
"335 809 CURVE SMOOTH",
"335 765 OFFCURVE",
"371 738 OFFCURVE",
"416 738 CURVE SMOOTH"
);
},
{
closed = 1;
nodes = (
"661 738 OFFCURVE",
"698 765 OFFCURVE",
"698 809 CURVE SMOOTH",
"698 855 OFFCURVE",
"661 882 OFFCURVE",
"616 882 CURVE SMOOTH",
"571 882 OFFCURVE",
"535 855 OFFCURVE",
"535 809 CURVE SMOOTH",
"535 765 OFFCURVE",
"571 738 OFFCURVE",
"616 738 CURVE SMOOTH"
);
}
);
width = 1032;
},
{
layerId = "43C446DC-37EE-4C34-A65A-9E71F2AC18B3";
paths = (
{
closed = 1;
nodes = (
"229 0 LINE",
"262 0 LINE",
"504 654 LINE",
"746 0 LINE",
"778 0 LINE",
"982 688 LINE",
"950 688 LINE",
"761 41 LINE",
"522 688 LINE",
"485 688 LINE",
"246 39 LINE",
"57 688 LINE",
"25 688 LINE"
);
},
{
closed = 1;
nodes = (
"438 784 OFFCURVE",
"450 796 OFFCURVE",
"450 811 CURVE SMOOTH",
"450 825 OFFCURVE",
"438 838 OFFCURVE",
"423 838 CURVE SMOOTH",
"408 838 OFFCURVE",
"396 825 OFFCURVE",
"396 811 CURVE SMOOTH",
"396 796 OFFCURVE",
"408 784 OFFCURVE",
"423 784 CURVE SMOOTH"
);
},
{
closed = 1;
nodes = (
"598 784 OFFCURVE",
"610 796 OFFCURVE",
"610 811 CURVE SMOOTH",
"610 825 OFFCURVE",
"598 838 OFFCURVE",
"583 838 CURVE SMOOTH",
"568 838 OFFCURVE",
"556 825 OFFCURVE",
"556 811 CURVE SMOOTH",
"556 796 OFFCURVE",
"568 784 OFFCURVE",
"583 784 CURVE SMOOTH"
);
}
);
width = 1007;
}
);
unicode = 1E84;
},
{
glyphname = X;
layers = (
{
guideLines = (
{
position = "{0, 375}";
}
);
layerId = "9C3819CB-81CB-4535-9429-AFFD112764D7";
paths = (
{
closed = 1;
nodes = (
"200 0 LINE",
"388 320 LINE",
"446 314 LINE",
"691 688 LINE",
"498 688 LINE",
"310 368 LINE",
"252 374 LINE",
"7 0 LINE"
);
},
{
closed = 1;
nodes = (
"494 0 LINE",
"689 0 LINE",
"443 374 LINE",
"399 370 LINE",
"200 688 LINE",
"5 688 LINE",
"251 314 LINE",
"295 318 LINE"
);
}
);
width = 696;
},
{
guideLines = (
{
position = "{0, 375}";
}
);
layerId = "43C446DC-37EE-4C34-A65A-9E71F2AC18B3";
paths = (
{
closed = 1;
nodes = (
"53 0 LINE",
"300 340 LINE",
"309 340 LINE",
"572 688 LINE",
"535 688 LINE",
"294 367 LINE",
"281 361 LINE",
"20 0 LINE"
);
},
{
closed = 1;
nodes = (
"539 0 LINE",
"572 0 LINE",
"311 361 LINE",
"300 367 LINE",
"57 688 LINE",
"20 688 LINE",
"283 340 LINE",
"290 340 LINE"
);
}
);
width = 592;
}
);
unicode = 0058;
},
{
glyphname = Y;
layers = (
{
layerId = "9C3819CB-81CB-4535-9429-AFFD112764D7";
paths = (
{
closed = 1;
nodes = (
"443 241 LINE",
"715 688 LINE",
"522 688 LINE",
"360 395 LINE",
"195 688 LINE",
"0 688 LINE",
"273 239 LINE",
"273 0 LINE",
"443 0 LINE"
);
}
);
width = 715;
},
{
layerId = "43C446DC-37EE-4C34-A65A-9E71F2AC18B3";
paths = (
{
closed = 1;
nodes = (
"300 293 LINE",
"565 688 LINE",
"532 688 LINE",
"285 322 LINE",
"38 688 LINE",
"5 688 LINE",
"270 293 LINE",
"270 0 LINE",
"300 0 LINE"
);
}
);
width = 570;
}
);
unicode = 0059;
},
{
glyphname = Yacute;
layers = (
{
layerId = "9C3819CB-81CB-4535-9429-AFFD112764D7";
paths = (
{
closed = 1;
nodes = (
"443 241 LINE",
"715 688 LINE",
"522 688 LINE",
"360 395 LINE",
"195 688 LINE",
"0 688 LINE",
"273 239 LINE",
"273 0 LINE",
"443 0 LINE"
);
},
{
closed = 1;
nodes = (
"372 874 LINE",
"274 747 LINE",
"274 747 OFFCURVE",
"420 747 OFFCURVE",
"420 747 CURVE",
"560 874 LINE"
);
}
);
width = 715;
},
{
layerId = "43C446DC-37EE-4C34-A65A-9E71F2AC18B3";
paths = (
{
closed = 1;
nodes = (
"300 293 LINE",
"565 688 LINE",
"532 688 LINE",
"285 322 LINE",
"38 688 LINE",
"5 688 LINE",
"270 293 LINE",
"270 0 LINE",
"300 0 LINE"
);
},
{
closed = 1;
nodes = (
"363 874 LINE",
"265 748 LINE",
"265 748 OFFCURVE",
"296 748 OFFCURVE",
"296 748 CURVE",
"406 874 LINE"
);
}
);
width = 570;
}
);
unicode = 00DD;
},
{
glyphname = Ycircumflex;
layers = (
{
layerId = "9C3819CB-81CB-4535-9429-AFFD112764D7";
paths = (
{
closed = 1;
nodes = (
"443 241 LINE",
"715 688 LINE",
"522 688 LINE",
"360 395 LINE",
"195 688 LINE",
"0 688 LINE",
"273 239 LINE",
"273 0 LINE",
"443 0 LINE"
);
},
{
closed = 1;
nodes = (
"168 748 LINE",
"319 748 LINE",
"357 795 LINE",
"395 748 LINE",
"546 748 LINE",
"429 874 LINE",
"285 874 LINE"
);
}
);
width = 715;
},
{
layerId = "43C446DC-37EE-4C34-A65A-9E71F2AC18B3";
paths = (
{
closed = 1;
nodes = (
"300 293 LINE",
"565 688 LINE",
"532 688 LINE",
"285 322 LINE",
"38 688 LINE",
"5 688 LINE",
"270 293 LINE",
"270 0 LINE",
"300 0 LINE"
);
},
{
closed = 1;
nodes = (
"146 748 LINE",
"179 748 LINE",
"285 846 LINE",
"391 748 LINE",
"424 748 LINE",
"302 874 LINE",
"268 874 LINE"
);
}
);
width = 570;
}
);
unicode = 0176;
},
{
glyphname = Ydieresis;
layers = (
{
layerId = "9C3819CB-81CB-4535-9429-AFFD112764D7";
paths = (
{
closed = 1;
nodes = (
"443 241 LINE",
"715 688 LINE",
"522 688 LINE",
"360 395 LINE",
"195 688 LINE",
"0 688 LINE",
"273 239 LINE",
"273 0 LINE",
"443 0 LINE"
);
},
{
closed = 1;
nodes = (
"302 738 OFFCURVE",
"339 765 OFFCURVE",
"339 809 CURVE SMOOTH",
"339 855 OFFCURVE",
"302 882 OFFCURVE",
"257 882 CURVE SMOOTH",
"212 882 OFFCURVE",
"176 855 OFFCURVE",
"176 809 CURVE SMOOTH",
"176 765 OFFCURVE",
"212 738 OFFCURVE",
"257 738 CURVE SMOOTH"
);
},
{
closed = 1;
nodes = (
"502 738 OFFCURVE",
"539 765 OFFCURVE",
"539 809 CURVE SMOOTH",
"539 855 OFFCURVE",
"502 882 OFFCURVE",
"457 882 CURVE SMOOTH",
"412 882 OFFCURVE",
"376 855 OFFCURVE",
"376 809 CURVE SMOOTH",
"376 765 OFFCURVE",
"412 738 OFFCURVE",
"457 738 CURVE SMOOTH"
);
}
);
width = 715;
},
{
layerId = "43C446DC-37EE-4C34-A65A-9E71F2AC18B3";
paths = (
{
closed = 1;
nodes = (
"300 293 LINE",
"565 688 LINE",
"532 688 LINE",
"285 322 LINE",
"38 688 LINE",
"5 688 LINE",
"270 293 LINE",
"270 0 LINE",
"300 0 LINE"
);
},
{
closed = 1;
nodes = (
"220 784 OFFCURVE",
"232 796 OFFCURVE",
"232 811 CURVE SMOOTH",
"232 825 OFFCURVE",
"220 838 OFFCURVE",
"205 838 CURVE SMOOTH",
"190 838 OFFCURVE",
"178 825 OFFCURVE",
"178 811 CURVE SMOOTH",
"178 796 OFFCURVE",
"190 784 OFFCURVE",
"205 784 CURVE SMOOTH"
);
},
{
closed = 1;
nodes = (
"380 784 OFFCURVE",
"392 796 OFFCURVE",
"392 811 CURVE SMOOTH",
"392 825 OFFCURVE",
"380 838 OFFCURVE",
"365 838 CURVE SMOOTH",
"350 838 OFFCURVE",
"338 825 OFFCURVE",
"338 811 CURVE SMOOTH",
"338 796 OFFCURVE",
"350 784 OFFCURVE",
"365 784 CURVE SMOOTH"
);
}
);
width = 570;
}
);
unicode = 0178;
},
{
glyphname = Ygrave;
layers = (
{
layerId = "9C3819CB-81CB-4535-9429-AFFD112764D7";
paths = (
{
closed = 1;
nodes = (
"443 241 LINE",
"715 688 LINE",
"522 688 LINE",
"360 395 LINE",
"195 688 LINE",
"0 688 LINE",
"273 239 LINE",
"273 0 LINE",
"443 0 LINE"
);
},
{
closed = 1;
nodes = (
"342 874 LINE",
"154 874 LINE",
"294 747 LINE",
"294 747 OFFCURVE",
"440 747 OFFCURVE",
"440 747 CURVE"
);
}
);
width = 715;
},
{
layerId = "43C446DC-37EE-4C34-A65A-9E71F2AC18B3";
paths = (
{
closed = 1;
nodes = (
"300 293 LINE",
"565 688 LINE",
"532 688 LINE",
"285 322 LINE",
"38 688 LINE",
"5 688 LINE",
"270 293 LINE",
"270 0 LINE",
"300 0 LINE"
);
},
{
closed = 1;
nodes = (
"208 874 LINE",
"165 874 LINE",
"275 748 LINE",
"275 748 OFFCURVE",
"306 748 OFFCURVE",
"306 748 CURVE"
);
}
);
width = 570;
}
);
unicode = 1EF2;
},
{
glyphname = Ytilde;
layers = (
{
layerId = "9C3819CB-81CB-4535-9429-AFFD112764D7";
paths = (
{
closed = 1;
nodes = (
"443 241 LINE",
"715 688 LINE",
"522 688 LINE",
"360 395 LINE",
"195 688 LINE",
"0 688 LINE",
"273 239 LINE",
"273 0 LINE",
"443 0 LINE"
);
},
{
closed = 1;
nodes = (
"468 738 OFFCURVE",
"503 759 OFFCURVE",
"535 806 CURVE",
"535 896 LINE",
"512 870 OFFCURVE",
"479 833 OFFCURVE",
"434 833 CURVE SMOOTH",
"387 833 OFFCURVE",
"332 884 OFFCURVE",
"283 884 CURVE SMOOTH",
"246 884 OFFCURVE",
"211 863 OFFCURVE",
"179 816 CURVE",
"179 726 LINE",
"202 752 OFFCURVE",
"235 789 OFFCURVE",
"280 789 CURVE SMOOTH",
"327 789 OFFCURVE",
"382 738 OFFCURVE",
"432 738 CURVE SMOOTH"
);
}
);
width = 715;
},
{
layerId = "43C446DC-37EE-4C34-A65A-9E71F2AC18B3";
paths = (
{
closed = 1;
nodes = (
"300 293 LINE",
"565 688 LINE",
"532 688 LINE",
"285 322 LINE",
"38 688 LINE",
"5 688 LINE",
"270 293 LINE",
"270 0 LINE",
"300 0 LINE"
);
},
{
closed = 1;
nodes = (
"377 767 OFFCURVE",
"399 779 OFFCURVE",
"417 805 CURVE",
"417 848 LINE",
"404 817 OFFCURVE",
"383 797 OFFCURVE",
"354 797 CURVE SMOOTH",
"304 797 OFFCURVE",
"280 855 OFFCURVE",
"221 855 CURVE SMOOTH",
"195 855 OFFCURVE",
"173 842 OFFCURVE",
"154 815 CURVE",
"154 774 LINE",
"169 805 OFFCURVE",
"190 825 OFFCURVE",
"217 825 CURVE SMOOTH",
"267 825 OFFCURVE",
"293 767 OFFCURVE",
"352 767 CURVE SMOOTH"
);
}
);
width = 570;
}
);
unicode = 1EF8;
},
{
glyphname = Z;
layers = (
{
layerId = "9C3819CB-81CB-4535-9429-AFFD112764D7";
paths = (
{
closed = 1;
nodes = (
"35 140 LINE",
"35 0 LINE",
"628 0 LINE",
"628 160 LINE",
"255 160 LINE",
"608 548 LINE",
"608 688 LINE",
"55 688 LINE",
"55 528 LINE",
"387 528 LINE"
);
}
);
width = 663;
},
{
layerId = "43C446DC-37EE-4C34-A65A-9E71F2AC18B3";
paths = (
{
closed = 1;
nodes = (
"39 26 LINE",
"39 0 LINE",
"620 0 LINE",
"620 28 LINE",
"75 28 LINE",
"590 662 LINE",
"590 688 LINE",
"78 688 LINE",
"78 660 LINE",
"551 660 LINE"
);
}
);
width = 659;
}
);
unicode = 005A;
},
{
glyphname = Zacute;
layers = (
{
layerId = "9C3819CB-81CB-4535-9429-AFFD112764D7";
paths = (
{
closed = 1;
nodes = (
"35 140 LINE",
"35 0 LINE",
"628 0 LINE",
"628 160 LINE",
"255 160 LINE",
"608 548 LINE",
"608 688 LINE",
"55 688 LINE",
"55 528 LINE",
"387 528 LINE"
);
},
{
closed = 1;
nodes = (
"346 874 LINE",
"248 747 LINE",
"248 747 OFFCURVE",
"394 747 OFFCURVE",
"394 747 CURVE",
"534 874 LINE"
);
}
);
width = 663;
},
{
layerId = "43C446DC-37EE-4C34-A65A-9E71F2AC18B3";
paths = (
{
closed = 1;
nodes = (
"39 26 LINE",
"39 0 LINE",
"620 0 LINE",
"620 28 LINE",
"75 28 LINE",
"590 662 LINE",
"590 688 LINE",
"78 688 LINE",
"78 660 LINE",
"551 660 LINE"
);
},
{
closed = 1;
nodes = (
"407 874 LINE",
"309 748 LINE",
"309 748 OFFCURVE",
"340 748 OFFCURVE",
"340 748 CURVE",
"450 874 LINE"
);
}
);
width = 659;
}
);
unicode = 0179;
},
{
glyphname = Zdotaccent;
layers = (
{
layerId = "9C3819CB-81CB-4535-9429-AFFD112764D7";
paths = (
{
closed = 1;
nodes = (
"35 140 LINE",
"35 0 LINE",
"628 0 LINE",
"628 160 LINE",
"255 160 LINE",
"608 548 LINE",
"608 688 LINE",
"55 688 LINE",
"55 528 LINE",
"387 528 LINE"
);
},
{
closed = 1;
nodes = (
"391 738 OFFCURVE",
"422 770 OFFCURVE",
"422 810 CURVE SMOOTH",
"422 850 OFFCURVE",
"391 883 OFFCURVE",
"331 883 CURVE SMOOTH",
"271 883 OFFCURVE",
"241 850 OFFCURVE",
"241 810 CURVE SMOOTH",
"241 770 OFFCURVE",
"271 738 OFFCURVE",
"331 738 CURVE SMOOTH"
);
}
);
width = 663;
},
{
layerId = "43C446DC-37EE-4C34-A65A-9E71F2AC18B3";
paths = (
{
closed = 1;
nodes = (
"39 26 LINE",
"39 0 LINE",
"620 0 LINE",
"620 28 LINE",
"75 28 LINE",
"590 662 LINE",
"590 688 LINE",
"78 688 LINE",
"78 660 LINE",
"551 660 LINE"
);
},
{
closed = 1;
nodes = (
"344 784 OFFCURVE",
"356 796 OFFCURVE",
"356 811 CURVE SMOOTH",
"356 825 OFFCURVE",
"344 838 OFFCURVE",
"329 838 CURVE SMOOTH",
"314 838 OFFCURVE",
"302 825 OFFCURVE",
"302 811 CURVE SMOOTH",
"302 796 OFFCURVE",
"314 784 OFFCURVE",
"329 784 CURVE SMOOTH"
);
}
);
width = 659;
}
);
unicode = 017B;
},
{
glyphname = Zcaron;
layers = (
{
layerId = "9C3819CB-81CB-4535-9429-AFFD112764D7";
paths = (
{
closed = 1;
nodes = (
"35 140 LINE",
"35 0 LINE",
"628 0 LINE",
"628 160 LINE",
"255 160 LINE",
"608 548 LINE",
"608 688 LINE",
"55 688 LINE",
"55 528 LINE",
"387 528 LINE"
);
},
{
closed = 1;
nodes = (
"403 748 LINE",
"520 874 LINE",
"369 874 LINE",
"331 827 LINE",
"293 874 LINE",
"142 874 LINE",
"259 748 LINE"
);
}
);
width = 663;
},
{
layerId = "43C446DC-37EE-4C34-A65A-9E71F2AC18B3";
paths = (
{
closed = 1;
nodes = (
"39 26 LINE",
"39 0 LINE",
"620 0 LINE",
"620 28 LINE",
"75 28 LINE",
"590 662 LINE",
"590 688 LINE",
"78 688 LINE",
"78 660 LINE",
"551 660 LINE"
);
},
{
closed = 1;
nodes = (
"346 748 LINE",
"468 874 LINE",
"435 874 LINE",
"329 776 LINE",
"223 874 LINE",
"190 874 LINE",
"312 748 LINE"
);
}
);
width = 659;
}
);
unicode = 017D;
},
{
glyphname = AE;
layers = (
{
layerId = "9C3819CB-81CB-4535-9429-AFFD112764D7";
paths = (
{
closed = 1;
nodes = (
"523 688 LINE",
"523 0 LINE",
"693 0 LINE",
"693 688 LINE"
);
},
{
closed = 1;
nodes = (
"556 528 LINE",
"1069 528 LINE",
"1069 688 LINE",
"556 688 LINE"
);
},
{
closed = 1;
nodes = (
"556 0 LINE",
"1069 0 LINE",
"1069 160 LINE",
"556 160 LINE"
);
},
{
closed = 1;
nodes = (
"556 266 LINE",
"1019 266 LINE",
"1019 426 LINE",
"556 426 LINE"
);
},
{
closed = 1;
nodes = (
"527 553 LINE",
"537 688 LINE",
"420 688 LINE",
"0 0 LINE",
"209 0 LINE"
);
},
{
closed = 1;
nodes = (
"236 166 LINE",
"532 166 LINE",
"532 316 LINE",
"236 316 LINE"
);
}
);
width = 1104;
},
{
layerId = "43C446DC-37EE-4C34-A65A-9E71F2AC18B3";
paths = (
{
closed = 1;
nodes = (
"521 688 LINE",
"521 0 LINE",
"551 0 LINE",
"551 688 LINE"
);
},
{
closed = 1;
nodes = (
"537 660 LINE",
"972 660 LINE",
"972 688 LINE",
"537 688 LINE"
);
},
{
closed = 1;
nodes = (
"537 0 LINE",
"972 0 LINE",
"972 28 LINE",
"537 28 LINE"
);
},
{
closed = 1;
nodes = (
"537 335 LINE",
"922 335 LINE",
"922 363 LINE",
"537 363 LINE"
);
},
{
closed = 1;
nodes = (
"544 680 LINE",
"525 688 LINE",
"516 688 LINE",
"4 0 LINE",
"39 0 LINE"
);
},
{
closed = 1;
nodes = (
"242 283 LINE",
"527 283 LINE",
"527 311 LINE",
"242 311 LINE"
);
}
);
width = 1026;
}
);
unicode = 00C6;
},
{
glyphname = AEacute;
layers = (
{
layerId = "9C3819CB-81CB-4535-9429-AFFD112764D7";
paths = (
{
closed = 1;
nodes = (
"523 688 LINE",
"523 0 LINE",
"693 0 LINE",
"693 688 LINE"
);
},
{
closed = 1;
nodes = (
"556 528 LINE",
"1069 528 LINE",
"1069 688 LINE",
"556 688 LINE"
);
},
{
closed = 1;
nodes = (
"556 0 LINE",
"1069 0 LINE",
"1069 160 LINE",
"556 160 LINE"
);
},
{
closed = 1;
nodes = (
"556 266 LINE",
"1019 266 LINE",
"1019 426 LINE",
"556 426 LINE"
);
},
{
closed = 1;
nodes = (
"527 553 LINE",
"537 688 LINE",
"420 688 LINE",
"0 0 LINE",
"209 0 LINE"
);
},
{
closed = 1;
nodes = (
"236 166 LINE",
"532 166 LINE",
"532 316 LINE",
"236 316 LINE"
);
},
{
closed = 1;
nodes = (
"549 874 LINE",
"451 747 LINE",
"451 747 OFFCURVE",
"597 747 OFFCURVE",
"597 747 CURVE",
"737 874 LINE"
);
}
);
width = 1104;
},
{
layerId = "43C446DC-37EE-4C34-A65A-9E71F2AC18B3";
paths = (
{
closed = 1;
nodes = (
"521 688 LINE",
"521 0 LINE",
"551 0 LINE",
"551 688 LINE"
);
},
{
closed = 1;
nodes = (
"537 660 LINE",
"972 660 LINE",
"972 688 LINE",
"537 688 LINE"
);
},
{
closed = 1;
nodes = (
"537 0 LINE",
"972 0 LINE",
"972 28 LINE",
"537 28 LINE"
);
},
{
closed = 1;
nodes = (
"537 335 LINE",
"922 335 LINE",
"922 363 LINE",
"537 363 LINE"
);
},
{
closed = 1;
nodes = (
"544 680 LINE",
"525 688 LINE",
"516 688 LINE",
"4 0 LINE",
"39 0 LINE"
);
},
{
closed = 1;
nodes = (
"242 283 LINE",
"527 283 LINE",
"527 311 LINE",
"242 311 LINE"
);
},
{
closed = 1;
nodes = (
"626 874 LINE",
"528 748 LINE",
"528 748 OFFCURVE",
"559 748 OFFCURVE",
"559 748 CURVE",
"669 874 LINE"
);
}
);
width = 1026;
}
);
unicode = 01FC;
},
{
glyphname = Eth;
layers = (
{
layerId = "9C3819CB-81CB-4535-9429-AFFD112764D7";
paths = (
{
closed = 1;
nodes = (
"10 274 LINE",
"437 274 LINE",
"437 414 LINE",
"10 414 LINE"
);
},
{
closed = 1;
nodes = (
"80 688 LINE",
"80 0 LINE",
"250 0 LINE",
"250 688 LINE"
);
},
{
closed = 1;
nodes = (
"210 160 LINE",
"210 0 LINE",
"360 0 LINE SMOOTH",
"564 0 OFFCURVE",
"715 142 OFFCURVE",
"715 343 CURVE SMOOTH",
"715 546 OFFCURVE",
"564 688 OFFCURVE",
"360 688 CURVE SMOOTH",
"210 688 LINE",
"210 528 LINE",
"360 528 LINE SMOOTH",
"466 528 OFFCURVE",
"545 457 OFFCURVE",
"545 343 CURVE SMOOTH",
"545 230 OFFCURVE",
"466 160 OFFCURVE",
"360 160 CURVE SMOOTH"
);
}
);
width = 745;
},
{
layerId = "43C446DC-37EE-4C34-A65A-9E71F2AC18B3";
paths = (
{
closed = 1;
nodes = (
"9 330 LINE",
"399 330 LINE",
"399 358 LINE",
"9 358 LINE"
);
},
{
closed = 1;
nodes = (
"99 688 LINE",
"99 0 LINE",
"129 0 LINE",
"129 688 LINE"
);
},
{
closed = 1;
nodes = (
"117 28 LINE",
"117 0 LINE",
"307 0 LINE SMOOTH",
"534 0 OFFCURVE",
"683 136 OFFCURVE",
"683 343 CURVE SMOOTH",
"683 552 OFFCURVE",
"534 688 OFFCURVE",
"307 688 CURVE SMOOTH",
"117 688 LINE",
"117 660 LINE",
"307 660 LINE SMOOTH",
"516 660 OFFCURVE",
"653 534 OFFCURVE",
"653 343 CURVE SMOOTH",
"653 154 OFFCURVE",
"516 28 OFFCURVE",
"307 28 CURVE SMOOTH"
);
}
);
width = 747;
}
);
unicode = 00D0;
},
{
glyphname = Oslash;
layers = (
{
guideLines = (
{
angle = 90;
position = "{30, 0}";
},
{
angle = 90;
position = "{741, 0}";
}
);
layerId = "9C3819CB-81CB-4535-9429-AFFD112764D7";
paths = (
{
closed = 1;
nodes = (
"231 -10 OFFCURVE",
"80 136 OFFCURVE",
"80 343 CURVE SMOOTH",
"80 552 OFFCURVE",
"231 698 OFFCURVE",
"436 698 CURVE SMOOTH",
"640 698 OFFCURVE",
"791 552 OFFCURVE",
"791 343 CURVE SMOOTH",
"791 136 OFFCURVE",
"640 -10 OFFCURVE",
"436 -10 CURVE SMOOTH"
);
},
{
closed = 1;
nodes = (
"892 688 LINE",
"181 0 LINE",
"-20 0 LINE",
"691 688 LINE"
);
},
{
closed = 1;
nodes = (
"542 150 OFFCURVE",
"621 224 OFFCURVE",
"621 343 CURVE SMOOTH",
"621 463 OFFCURVE",
"542 538 OFFCURVE",
"436 538 CURVE SMOOTH",
"329 538 OFFCURVE",
"250 463 OFFCURVE",
"250 343 CURVE SMOOTH",
"250 224 OFFCURVE",
"330 150 OFFCURVE",
"436 150 CURVE SMOOTH"
);
}
);
width = 872;
},
{
guideLines = (
{
angle = 90;
position = "{75, 0}";
},
{
position = "{0, -10}";
},
{
angle = 90;
position = "{826, 0}";
},
{
position = "{0, 760}";
}
);
layerId = "43C446DC-37EE-4C34-A65A-9E71F2AC18B3";
paths = (
{
closed = 1;
nodes = (
"232 -10 OFFCURVE",
"82 136 OFFCURVE",
"82 343 CURVE SMOOTH",
"82 552 OFFCURVE",
"232 698 OFFCURVE",
"428 698 CURVE SMOOTH",
"623 698 OFFCURVE",
"773 552 OFFCURVE",
"773 343 CURVE SMOOTH",
"773 136 OFFCURVE",
"623 -10 OFFCURVE",
"428 -10 CURVE SMOOTH"
);
},
{
closed = 1;
nodes = (
"801 688 LINE",
"92 0 LINE",
"54 0 LINE",
"764 688 LINE"
);
},
{
closed = 1;
nodes = (
"607 20 OFFCURVE",
"743 154 OFFCURVE",
"743 343 CURVE SMOOTH",
"743 534 OFFCURVE",
"607 668 OFFCURVE",
"428 668 CURVE SMOOTH",
"248 668 OFFCURVE",
"112 534 OFFCURVE",
"112 343 CURVE SMOOTH",
"112 154 OFFCURVE",
"248 20 OFFCURVE",
"428 20 CURVE SMOOTH"
);
}
);
width = 855;
}
);
unicode = 00D8;
},
{
glyphname = Oslashacute;
layers = (
{
layerId = "9C3819CB-81CB-4535-9429-AFFD112764D7";
paths = (
{
closed = 1;
nodes = (
"231 -10 OFFCURVE",
"80 136 OFFCURVE",
"80 343 CURVE SMOOTH",
"80 552 OFFCURVE",
"231 698 OFFCURVE",
"436 698 CURVE SMOOTH",
"640 698 OFFCURVE",
"791 552 OFFCURVE",
"791 343 CURVE SMOOTH",
"791 136 OFFCURVE",
"640 -10 OFFCURVE",
"436 -10 CURVE SMOOTH"
);
},
{
closed = 1;
nodes = (
"892 688 LINE",
"181 0 LINE",
"-20 0 LINE",
"691 688 LINE"
);
},
{
closed = 1;
nodes = (
"542 150 OFFCURVE",
"621 224 OFFCURVE",
"621 343 CURVE SMOOTH",
"621 463 OFFCURVE",
"542 538 OFFCURVE",
"436 538 CURVE SMOOTH",
"329 538 OFFCURVE",
"250 463 OFFCURVE",
"250 343 CURVE SMOOTH",
"250 224 OFFCURVE",
"330 150 OFFCURVE",
"436 150 CURVE SMOOTH"
);
},
{
closed = 1;
nodes = (
"643 874 LINE",
"503 747 LINE",
"503 747 OFFCURVE",
"357 747 OFFCURVE",
"357 747 CURVE",
"455 874 LINE"
);
}
);
width = 872;
},
{
layerId = "43C446DC-37EE-4C34-A65A-9E71F2AC18B3";
paths = (
{
closed = 1;
nodes = (
"232 -10 OFFCURVE",
"82 136 OFFCURVE",
"82 343 CURVE SMOOTH",
"82 552 OFFCURVE",
"232 698 OFFCURVE",
"428 698 CURVE SMOOTH",
"623 698 OFFCURVE",
"773 552 OFFCURVE",
"773 343 CURVE SMOOTH",
"773 136 OFFCURVE",
"623 -10 OFFCURVE",
"428 -10 CURVE SMOOTH"
);
},
{
closed = 1;
nodes = (
"801 688 LINE",
"92 0 LINE",
"54 0 LINE",
"764 688 LINE"
);
},
{
closed = 1;
nodes = (
"607 20 OFFCURVE",
"743 154 OFFCURVE",
"743 343 CURVE SMOOTH",
"743 534 OFFCURVE",
"607 668 OFFCURVE",
"428 668 CURVE SMOOTH",
"248 668 OFFCURVE",
"112 534 OFFCURVE",
"112 343 CURVE SMOOTH",
"112 154 OFFCURVE",
"248 20 OFFCURVE",
"428 20 CURVE SMOOTH"
);
},
{
closed = 1;
nodes = (
"550 874 LINE",
"440 748 LINE",
"440 748 OFFCURVE",
"409 748 OFFCURVE",
"409 748 CURVE",
"507 874 LINE"
);
}
);
width = 855;
}
);
unicode = 01FE;
},
{
glyphname = Thorn;
layers = (
{
layerId = "9C3819CB-81CB-4535-9429-AFFD112764D7";
paths = (
{
closed = 1;
nodes = (
"60 688 LINE",
"60 0 LINE",
"230 0 LINE",
"230 688 LINE"
);
},
{
closed = 1;
nodes = (
"190 257 LINE",
"190 97 LINE",
"366 97 LINE SMOOTH",
"535 97 OFFCURVE",
"650 184 OFFCURVE",
"650 344 CURVE SMOOTH",
"650 508 OFFCURVE",
"535 592 OFFCURVE",
"366 592 CURVE SMOOTH",
"190 592 LINE",
"190 432 LINE",
"351 432 LINE SMOOTH",
"424 432 OFFCURVE",
"470 407 OFFCURVE",
"470 344 CURVE SMOOTH",
"470 283 OFFCURVE",
"424 257 OFFCURVE",
"351 257 CURVE SMOOTH"
);
}
);
width = 670;
},
{
layerId = "43C446DC-37EE-4C34-A65A-9E71F2AC18B3";
paths = (
{
closed = 1;
nodes = (
"104 688 LINE",
"104 0 LINE",
"134 0 LINE",
"134 688 LINE"
);
},
{
closed = 1;
nodes = (
"124 145 LINE",
"124 117 LINE",
"338 117 LINE SMOOTH",
"485 117 OFFCURVE",
"593 193 OFFCURVE",
"593 342 CURVE SMOOTH",
"593 501 OFFCURVE",
"485 572 OFFCURVE",
"338 572 CURVE SMOOTH",
"124 572 LINE",
"124 544 LINE",
"338 544 LINE SMOOTH",
"469 544 OFFCURVE",
"563 485 OFFCURVE",
"563 342 CURVE SMOOTH",
"563 208 OFFCURVE",
"468 145 OFFCURVE",
"338 145 CURVE SMOOTH"
);
}
);
width = 637;
}
);
unicode = 00DE;
},
{
glyphname = Dcroat;
layers = (
{
layerId = "9C3819CB-81CB-4535-9429-AFFD112764D7";
paths = (
{
closed = 1;
nodes = (
"10 274 LINE",
"437 274 LINE",
"437 414 LINE",
"10 414 LINE"
);
},
{
closed = 1;
nodes = (
"80 688 LINE",
"80 0 LINE",
"250 0 LINE",
"250 688 LINE"
);
},
{
closed = 1;
nodes = (
"210 160 LINE",
"210 0 LINE",
"360 0 LINE SMOOTH",
"564 0 OFFCURVE",
"715 142 OFFCURVE",
"715 343 CURVE SMOOTH",
"715 546 OFFCURVE",
"564 688 OFFCURVE",
"360 688 CURVE SMOOTH",
"210 688 LINE",
"210 528 LINE",
"360 528 LINE SMOOTH",
"466 528 OFFCURVE",
"545 457 OFFCURVE",
"545 343 CURVE SMOOTH",
"545 230 OFFCURVE",
"466 160 OFFCURVE",
"360 160 CURVE SMOOTH"
);
}
);
width = 745;
},
{
layerId = "43C446DC-37EE-4C34-A65A-9E71F2AC18B3";
paths = (
{
closed = 1;
nodes = (
"9 330 LINE",
"399 330 LINE",
"399 358 LINE",
"9 358 LINE"
);
},
{
closed = 1;
nodes = (
"99 688 LINE",
"99 0 LINE",
"129 0 LINE",
"129 688 LINE"
);
},
{
closed = 1;
nodes = (
"117 28 LINE",
"117 0 LINE",
"307 0 LINE SMOOTH",
"534 0 OFFCURVE",
"683 136 OFFCURVE",
"683 343 CURVE SMOOTH",
"683 552 OFFCURVE",
"534 688 OFFCURVE",
"307 688 CURVE SMOOTH",
"117 688 LINE",
"117 660 LINE",
"307 660 LINE SMOOTH",
"516 660 OFFCURVE",
"653 534 OFFCURVE",
"653 343 CURVE SMOOTH",
"653 154 OFFCURVE",
"516 28 OFFCURVE",
"307 28 CURVE SMOOTH"
);
}
);
width = 747;
}
);
unicode = 0110;
},
{
glyphname = Hbar;
layers = (
{
layerId = "9C3819CB-81CB-4535-9429-AFFD112764D7";
paths = (
{
closed = 1;
nodes = (
"510 688 LINE",
"510 0 LINE",
"680 0 LINE",
"680 688 LINE"
);
},
{
closed = 1;
nodes = (
"60 688 LINE",
"60 0 LINE",
"230 0 LINE",
"230 688 LINE"
);
},
{
closed = 1;
nodes = (
"123 266 LINE",
"586 266 LINE",
"586 426 LINE",
"123 426 LINE"
);
},
{
closed = 1;
nodes = (
"10 484 LINE",
"750 484 LINE",
"750 624 LINE",
"10 624 LINE"
);
}
);
width = 760;
},
{
layerId = "43C446DC-37EE-4C34-A65A-9E71F2AC18B3";
paths = (
{
closed = 1;
nodes = (
"646 688 LINE",
"646 0 LINE",
"676 0 LINE",
"676 688 LINE"
);
},
{
closed = 1;
nodes = (
"149 688 LINE",
"149 0 LINE",
"179 0 LINE",
"179 688 LINE"
);
},
{
closed = 1;
nodes = (
"167 341 LINE",
"660 341 LINE",
"660 369 LINE",
"167 369 LINE"
);
},
{
closed = 1;
nodes = (
"49 519 LINE",
"776 519 LINE",
"776 547 LINE",
"49 547 LINE"
);
}
);
width = 825;
}
);
unicode = 0126;
},
{
glyphname = IJ;
layers = (
{
layerId = "9C3819CB-81CB-4535-9429-AFFD112764D7";
paths = (
{
closed = 1;
nodes = (
"60 688 LINE",
"60 0 LINE",
"230 0 LINE",
"230 688 LINE"
);
},
{
closed = 1;
nodes = (
"300 236 LINE",
"367 177 OFFCURVE",
"447 148 OFFCURVE",
"516 148 CURVE SMOOTH",
"572 148 OFFCURVE",
"611 171 OFFCURVE",
"611 236 CURVE SMOOTH",
"611 688 LINE",
"781 688 LINE",
"781 230 LINE SMOOTH",
"781 89 OFFCURVE",
"693 -12 OFFCURVE",
"520 -12 CURVE SMOOTH",
"409 -12 OFFCURVE",
"343 31 OFFCURVE",
"300 61 CURVE"
);
}
);
width = 836;
},
{
layerId = "43C446DC-37EE-4C34-A65A-9E71F2AC18B3";
paths = (
{
closed = 1;
nodes = (
"104 688 LINE",
"104 0 LINE",
"134 0 LINE",
"134 688 LINE"
);
},
{
closed = 1;
nodes = (
"269 102 LINE",
"307 65 OFFCURVE",
"388 20 OFFCURVE",
"479 20 CURVE SMOOTH",
"574 20 OFFCURVE",
"650 68 OFFCURVE",
"650 191 CURVE",
"650 688 LINE",
"680 688 LINE",
"680 193 LINE",
"680 45 OFFCURVE",
"585 -10 OFFCURVE",
"479 -10 CURVE SMOOTH",
"395 -10 OFFCURVE",
"317 26 OFFCURVE",
"269 65 CURVE"
);
}
);
width = 774;
}
);
unicode = 0132;
},
{
glyphname = Ldot;
layers = (
{
layerId = "9C3819CB-81CB-4535-9429-AFFD112764D7";
paths = (
{
closed = 1;
nodes = (
"60 688 LINE",
"60 0 LINE",
"230 0 LINE",
"230 688 LINE"
);
},
{
closed = 1;
nodes = (
"93 0 LINE",
"566 0 LINE",
"566 160 LINE",
"93 160 LINE"
);
},
{
closed = 1;
nodes = (
"535 272 OFFCURVE",
"566 304 OFFCURVE",
"566 344 CURVE SMOOTH",
"566 384 OFFCURVE",
"535 417 OFFCURVE",
"475 417 CURVE SMOOTH",
"415 417 OFFCURVE",
"385 384 OFFCURVE",
"385 344 CURVE SMOOTH",
"385 304 OFFCURVE",
"415 272 OFFCURVE",
"475 272 CURVE SMOOTH"
);
}
);
width = 586;
},
{
layerId = "43C446DC-37EE-4C34-A65A-9E71F2AC18B3";
paths = (
{
closed = 1;
nodes = (
"104 688 LINE",
"104 0 LINE",
"134 0 LINE",
"134 688 LINE"
);
},
{
closed = 1;
nodes = (
"120 0 LINE",
"555 0 LINE",
"555 28 LINE",
"120 28 LINE"
);
},
{
closed = 1;
nodes = (
"433 317 OFFCURVE",
"445 329 OFFCURVE",
"445 344 CURVE SMOOTH",
"445 358 OFFCURVE",
"433 371 OFFCURVE",
"418 371 CURVE SMOOTH",
"403 371 OFFCURVE",
"391 358 OFFCURVE",
"391 344 CURVE SMOOTH",
"391 329 OFFCURVE",
"403 317 OFFCURVE",
"418 317 CURVE SMOOTH"
);
}
);
width = 574;
}
);
unicode = 013F;
},
{
glyphname = Lslash;
layers = (
{
layerId = "9C3819CB-81CB-4535-9429-AFFD112764D7";
paths = (
{
closed = 1;
nodes = (
"10 295 LINE",
"382 410 LINE",
"382 540 LINE",
"10 425 LINE"
);
},
{
closed = 1;
nodes = (
"80 688 LINE",
"80 0 LINE",
"250 0 LINE",
"250 688 LINE"
);
},
{
closed = 1;
nodes = (
"113 0 LINE",
"586 0 LINE",
"586 160 LINE",
"113 160 LINE"
);
}
);
width = 606;
},
{
layerId = "43C446DC-37EE-4C34-A65A-9E71F2AC18B3";
paths = (
{
closed = 1;
nodes = (
"24 356 LINE",
"324 516 LINE",
"324 549 LINE",
"24 389 LINE"
);
},
{
closed = 1;
nodes = (
"119 688 LINE",
"119 0 LINE",
"149 0 LINE",
"149 688 LINE"
);
},
{
closed = 1;
nodes = (
"135 0 LINE",
"570 0 LINE",
"570 28 LINE",
"135 28 LINE"
);
}
);
width = 589;
}
);
unicode = 0141;
},
{
glyphname = Eng;
layers = (
{
layerId = "9C3819CB-81CB-4535-9429-AFFD112764D7";
paths = (
{
closed = 1;
nodes = (
"657 688 LINE",
"487 688 LINE",
"487 299 LINE",
"220 688 LINE",
"50 688 LINE",
"50 0 LINE",
"220 0 LINE",
"220 394 LINE",
"497 28 LINE",
"497 24 LINE SMOOTH",
"497 -6 OFFCURVE",
"470 -23 OFFCURVE",
"402 -39 CURVE",
"441 -168 LINE",
"566 -156 OFFCURVE",
"657 -86 OFFCURVE",
"657 57 CURVE SMOOTH"
);
}
);
width = 717;
},
{
layerId = "43C446DC-37EE-4C34-A65A-9E71F2AC18B3";
paths = (
{
closed = 1;
nodes = (
"631 688 LINE",
"601 688 LINE",
"601 54 LINE",
"132 688 LINE",
"104 688 LINE",
"104 0 LINE",
"134 0 LINE",
"134 634 LINE",
"601 3 LINE",
"601 -40 LINE",
"601 -89 OFFCURVE",
"578 -122 OFFCURVE",
"534 -143 CURVE",
"552 -168 LINE",
"595 -145 OFFCURVE",
"631 -107 OFFCURVE",
"631 -38 CURVE"
);
}
);
width = 735;
}
);
unicode = 014A;
},
{
glyphname = OE;
layers = (
{
layerId = "9C3819CB-81CB-4535-9429-AFFD112764D7";
paths = (
{
closed = 1;
nodes = (
"181 -10 OFFCURVE",
"30 136 OFFCURVE",
"30 343 CURVE SMOOTH",
"30 552 OFFCURVE",
"181 698 OFFCURVE",
"386 698 CURVE SMOOTH",
"590 698 OFFCURVE",
"741 552 OFFCURVE",
"741 343 CURVE SMOOTH",
"741 136 OFFCURVE",
"590 -10 OFFCURVE",
"386 -10 CURVE SMOOTH"
);
},
{
closed = 1;
nodes = (
"492 150 OFFCURVE",
"571 224 OFFCURVE",
"571 343 CURVE SMOOTH",
"571 463 OFFCURVE",
"492 538 OFFCURVE",
"386 538 CURVE SMOOTH",
"279 538 OFFCURVE",
"200 463 OFFCURVE",
"200 343 CURVE SMOOTH",
"200 224 OFFCURVE",
"280 150 OFFCURVE",
"386 150 CURVE SMOOTH"
);
},
{
closed = 1;
nodes = (
"456 528 LINE",
"456 688 LINE",
"1067 688 LINE",
"1067 528 LINE"
);
},
{
closed = 1;
nodes = (
"456 0 LINE",
"456 160 LINE",
"1067 160 LINE",
"1067 0 LINE"
);
},
{
closed = 1;
nodes = (
"604 265 LINE",
"604 425 LINE",
"1017 425 LINE",
"1017 265 LINE"
);
}
);
width = 1102;
},
{
layerId = "43C446DC-37EE-4C34-A65A-9E71F2AC18B3";
paths = (
{
closed = 1;
nodes = (
"214 -10 OFFCURVE",
"64 136 OFFCURVE",
"64 343 CURVE SMOOTH",
"64 552 OFFCURVE",
"214 698 OFFCURVE",
"410 698 CURVE SMOOTH",
"605 698 OFFCURVE",
"755 552 OFFCURVE",
"755 343 CURVE SMOOTH",
"755 136 OFFCURVE",
"605 -10 OFFCURVE",
"410 -10 CURVE SMOOTH"
);
},
{
closed = 1;
nodes = (
"589 20 OFFCURVE",
"725 154 OFFCURVE",
"725 343 CURVE SMOOTH",
"725 534 OFFCURVE",
"589 668 OFFCURVE",
"410 668 CURVE SMOOTH",
"230 668 OFFCURVE",
"94 534 OFFCURVE",
"94 343 CURVE SMOOTH",
"94 154 OFFCURVE",
"230 20 OFFCURVE",
"410 20 CURVE SMOOTH"
);
},
{
closed = 1;
nodes = (
"490 660 LINE",
"490 688 LINE",
"1106 688 LINE",
"1106 660 LINE"
);
},
{
closed = 1;
nodes = (
"490 0 LINE",
"490 28 LINE",
"1106 28 LINE",
"1106 0 LINE"
);
},
{
closed = 1;
nodes = (
"739 336 LINE",
"739 364 LINE",
"1056 364 LINE",
"1056 336 LINE"
);
}
);
width = 1160;
}
);
unicode = 0152;
},
{
glyphname = Tbar;
layers = (
{
layerId = "9C3819CB-81CB-4535-9429-AFFD112764D7";
paths = (
{
closed = 1;
nodes = (
"216 688 LINE",
"216 0 LINE",
"386 0 LINE",
"386 688 LINE"
);
},
{
closed = 1;
nodes = (
"10 528 LINE",
"592 528 LINE",
"592 688 LINE",
"10 688 LINE"
);
},
{
closed = 1;
nodes = (
"88 274 LINE",
"514 274 LINE",
"514 414 LINE",
"88 414 LINE"
);
}
);
width = 602;
},
{
layerId = "43C446DC-37EE-4C34-A65A-9E71F2AC18B3";
paths = (
{
closed = 1;
nodes = (
"262 688 LINE",
"262 0 LINE",
"292 0 LINE",
"292 688 LINE"
);
},
{
closed = 1;
nodes = (
"9 660 LINE",
"545 660 LINE",
"545 688 LINE",
"9 688 LINE"
);
},
{
closed = 1;
nodes = (
"92 330 LINE",
"462 330 LINE",
"462 358 LINE",
"92 358 LINE"
);
}
);
width = 554;
}
);
unicode = 0166;
},
{
glyphname = a;
layers = (
{
guideLines = (
{
position = "{0, 540}";
}
);
layerId = "9C3819CB-81CB-4535-9429-AFFD112764D7";
paths = (
{
closed = 1;
nodes = (
"346 135 LINE",
"321 120 OFFCURVE",
"272 110 OFFCURVE",
"233 110 CURVE SMOOTH",
"197 110 OFFCURVE",
"172 121 OFFCURVE",
"172 151 CURVE SMOOTH",
"172 184 OFFCURVE",
"212 198 OFFCURVE",
"271 198 CURVE SMOOTH",
"301 198 OFFCURVE",
"336 192 OFFCURVE",
"358 184 CURVE",
"352 278 LINE",
"333 289 OFFCURVE",
"293 303 OFFCURVE",
"236 303 CURVE SMOOTH",
"121 303 OFFCURVE",
"25 242 OFFCURVE",
"25 142 CURVE SMOOTH",
"25 42 OFFCURVE",
"96 -10 OFFCURVE",
"201 -10 CURVE SMOOTH",
"276 -10 OFFCURVE",
"332 25 OFFCURVE",
"357 58 CURVE"
);
},
{
closed = 1;
nodes = (
"339 103 LINE",
"349 89 LINE",
"349 0 LINE",
"499 0 LINE",
"499 302 LINE SMOOTH",
"499 473 OFFCURVE",
"393 540 OFFCURVE",
"261 540 CURVE SMOOTH",
"159 540 OFFCURVE",
"72 498 OFFCURVE",
"36 464 CURVE",
"36 301 LINE",
"82 345 OFFCURVE",
"164 380 OFFCURVE",
"238 380 CURVE SMOOTH",
"297 380 OFFCURVE",
"339 353 OFFCURVE",
"339 293 CURVE SMOOTH"
);
}
);
width = 546;
},
{
guideLines = (
{
position = "{0, 540}";
}
);
layerId = "43C446DC-37EE-4C34-A65A-9E71F2AC18B3";
paths = (
{
closed = 1;
nodes = (
"437 131 LINE",
"380 71 OFFCURVE",
"307 18 OFFCURVE",
"218 18 CURVE",
"147 18 OFFCURVE",
"89 48 OFFCURVE",
"89 122 CURVE",
"89 197 OFFCURVE",
"157 257 OFFCURVE",
"306 257 CURVE",
"357 257 OFFCURVE",
"411 245 OFFCURVE",
"435 235 CURVE",
"433 263 LINE",
"407 272 OFFCURVE",
"357 283 OFFCURVE",
"294 283 CURVE",
"138 283 OFFCURVE",
"59 209 OFFCURVE",
"59 122 CURVE",
"59 46 OFFCURVE",
"109 -10 OFFCURVE",
"218 -10 CURVE",
"315 -10 OFFCURVE",
"391 47 OFFCURVE",
"439 105 CURVE"
);
},
{
closed = 1;
nodes = (
"425 108 LINE",
"427 104 LINE",
"427 0 LINE",
"455 0 LINE",
"455 344 LINE",
"455 488 OFFCURVE",
"361 540 OFFCURVE",
"262 540 CURVE",
"168 540 OFFCURVE",
"93 491 OFFCURVE",
"60 453 CURVE",
"60 418 LINE",
"104 467 OFFCURVE",
"170 512 OFFCURVE",
"262 512 CURVE",
"345 512 OFFCURVE",
"425 469 OFFCURVE",
"425 349 CURVE"
);
}
);
width = 539;
}
);
unicode = 0061;
},
{
glyphname = agrave;
layers = (
{
layerId = "9C3819CB-81CB-4535-9429-AFFD112764D7";
paths = (
{
closed = 1;
nodes = (
"346 135 LINE",
"321 120 OFFCURVE",
"272 110 OFFCURVE",
"233 110 CURVE SMOOTH",
"197 110 OFFCURVE",
"172 121 OFFCURVE",
"172 151 CURVE SMOOTH",
"172 184 OFFCURVE",
"212 198 OFFCURVE",
"271 198 CURVE SMOOTH",
"301 198 OFFCURVE",
"336 192 OFFCURVE",
"358 184 CURVE",
"352 278 LINE",
"333 289 OFFCURVE",
"293 303 OFFCURVE",
"236 303 CURVE SMOOTH",
"121 303 OFFCURVE",
"25 242 OFFCURVE",
"25 142 CURVE SMOOTH",
"25 42 OFFCURVE",
"96 -10 OFFCURVE",
"201 -10 CURVE SMOOTH",
"276 -10 OFFCURVE",
"332 25 OFFCURVE",
"357 58 CURVE"
);
},
{
closed = 1;
nodes = (
"339 103 LINE",
"349 89 LINE",
"349 0 LINE",
"499 0 LINE",
"499 302 LINE SMOOTH",
"499 473 OFFCURVE",
"393 540 OFFCURVE",
"261 540 CURVE SMOOTH",
"159 540 OFFCURVE",
"72 498 OFFCURVE",
"36 464 CURVE",
"36 301 LINE",
"82 345 OFFCURVE",
"164 380 OFFCURVE",
"238 380 CURVE SMOOTH",
"297 380 OFFCURVE",
"339 353 OFFCURVE",
"339 293 CURVE SMOOTH"
);
},
{
closed = 1;
nodes = (
"247 756 LINE",
"59 756 LINE",
"199 600 LINE",
"199 600 OFFCURVE",
"345 600 OFFCURVE",
"345 600 CURVE"
);
}
);
width = 546;
},
{
layerId = "43C446DC-37EE-4C34-A65A-9E71F2AC18B3";
paths = (
{
closed = 1;
nodes = (
"437 131 LINE",
"380 71 OFFCURVE",
"307 18 OFFCURVE",
"218 18 CURVE",
"147 18 OFFCURVE",
"89 48 OFFCURVE",
"89 122 CURVE",
"89 197 OFFCURVE",
"157 257 OFFCURVE",
"306 257 CURVE",
"357 257 OFFCURVE",
"411 245 OFFCURVE",
"435 235 CURVE",
"433 263 LINE",
"407 272 OFFCURVE",
"357 283 OFFCURVE",
"294 283 CURVE",
"138 283 OFFCURVE",
"59 209 OFFCURVE",
"59 122 CURVE",
"59 46 OFFCURVE",
"109 -10 OFFCURVE",
"218 -10 CURVE",
"315 -10 OFFCURVE",
"391 47 OFFCURVE",
"439 105 CURVE"
);
},
{
closed = 1;
nodes = (
"425 108 LINE",
"427 104 LINE",
"427 0 LINE",
"455 0 LINE",
"455 344 LINE",
"455 488 OFFCURVE",
"361 540 OFFCURVE",
"262 540 CURVE",
"168 540 OFFCURVE",
"93 491 OFFCURVE",
"60 453 CURVE",
"60 418 LINE",
"104 467 OFFCURVE",
"170 512 OFFCURVE",
"262 512 CURVE",
"345 512 OFFCURVE",
"425 469 OFFCURVE",
"425 349 CURVE"
);
},
{
closed = 1;
nodes = (
"180 756 LINE",
"137 756 LINE",
"247 600 LINE",
"247 600 OFFCURVE",
"278 600 OFFCURVE",
"278 600 CURVE"
);
}
);
width = 539;
}
);
unicode = 00E0;
},
{
glyphname = aacute;
layers = (
{
layerId = "9C3819CB-81CB-4535-9429-AFFD112764D7";
paths = (
{
closed = 1;
nodes = (
"346 135 LINE",
"321 120 OFFCURVE",
"272 110 OFFCURVE",
"233 110 CURVE SMOOTH",
"197 110 OFFCURVE",
"172 121 OFFCURVE",
"172 151 CURVE SMOOTH",
"172 184 OFFCURVE",
"212 198 OFFCURVE",
"271 198 CURVE SMOOTH",
"301 198 OFFCURVE",
"336 192 OFFCURVE",
"358 184 CURVE",
"352 278 LINE",
"333 289 OFFCURVE",
"293 303 OFFCURVE",
"236 303 CURVE SMOOTH",
"121 303 OFFCURVE",
"25 242 OFFCURVE",
"25 142 CURVE SMOOTH",
"25 42 OFFCURVE",
"96 -10 OFFCURVE",
"201 -10 CURVE SMOOTH",
"276 -10 OFFCURVE",
"332 25 OFFCURVE",
"357 58 CURVE"
);
},
{
closed = 1;
nodes = (
"339 103 LINE",
"349 89 LINE",
"349 0 LINE",
"499 0 LINE",
"499 302 LINE SMOOTH",
"499 473 OFFCURVE",
"393 540 OFFCURVE",
"261 540 CURVE SMOOTH",
"159 540 OFFCURVE",
"72 498 OFFCURVE",
"36 464 CURVE",
"36 301 LINE",
"82 345 OFFCURVE",
"164 380 OFFCURVE",
"238 380 CURVE SMOOTH",
"297 380 OFFCURVE",
"339 353 OFFCURVE",
"339 293 CURVE SMOOTH"
);
},
{
closed = 1;
nodes = (
"277 756 LINE",
"179 600 LINE",
"179 600 OFFCURVE",
"325 600 OFFCURVE",
"325 600 CURVE",
"465 756 LINE"
);
}
);
width = 546;
},
{
layerId = "43C446DC-37EE-4C34-A65A-9E71F2AC18B3";
paths = (
{
closed = 1;
nodes = (
"437 131 LINE",
"380 71 OFFCURVE",
"307 18 OFFCURVE",
"218 18 CURVE",
"147 18 OFFCURVE",
"89 48 OFFCURVE",
"89 122 CURVE",
"89 197 OFFCURVE",
"157 257 OFFCURVE",
"306 257 CURVE",
"357 257 OFFCURVE",
"411 245 OFFCURVE",
"435 235 CURVE",
"433 263 LINE",
"407 272 OFFCURVE",
"357 283 OFFCURVE",
"294 283 CURVE",
"138 283 OFFCURVE",
"59 209 OFFCURVE",
"59 122 CURVE",
"59 46 OFFCURVE",
"109 -10 OFFCURVE",
"218 -10 CURVE",
"315 -10 OFFCURVE",
"391 47 OFFCURVE",
"439 105 CURVE"
);
},
{
closed = 1;
nodes = (
"425 108 LINE",
"427 104 LINE",
"427 0 LINE",
"455 0 LINE",
"455 344 LINE",
"455 488 OFFCURVE",
"361 540 OFFCURVE",
"262 540 CURVE",
"168 540 OFFCURVE",
"93 491 OFFCURVE",
"60 453 CURVE",
"60 418 LINE",
"104 467 OFFCURVE",
"170 512 OFFCURVE",
"262 512 CURVE",
"345 512 OFFCURVE",
"425 469 OFFCURVE",
"425 349 CURVE"
);
},
{
closed = 1;
nodes = (
"336 756 LINE",
"238 600 LINE",
"238 600 OFFCURVE",
"269 600 OFFCURVE",
"269 600 CURVE",
"379 756 LINE"
);
}
);
width = 539;
}
);
unicode = 00E1;
},
{
glyphname = acircumflex;
layers = (
{
layerId = "9C3819CB-81CB-4535-9429-AFFD112764D7";
paths = (
{
closed = 1;
nodes = (
"346 135 LINE",
"321 120 OFFCURVE",
"272 110 OFFCURVE",
"233 110 CURVE SMOOTH",
"197 110 OFFCURVE",
"172 121 OFFCURVE",
"172 151 CURVE SMOOTH",
"172 184 OFFCURVE",
"212 198 OFFCURVE",
"271 198 CURVE SMOOTH",
"301 198 OFFCURVE",
"336 192 OFFCURVE",
"358 184 CURVE",
"352 278 LINE",
"333 289 OFFCURVE",
"293 303 OFFCURVE",
"236 303 CURVE SMOOTH",
"121 303 OFFCURVE",
"25 242 OFFCURVE",
"25 142 CURVE SMOOTH",
"25 42 OFFCURVE",
"96 -10 OFFCURVE",
"201 -10 CURVE SMOOTH",
"276 -10 OFFCURVE",
"332 25 OFFCURVE",
"357 58 CURVE"
);
},
{
closed = 1;
nodes = (
"339 103 LINE",
"349 89 LINE",
"349 0 LINE",
"499 0 LINE",
"499 302 LINE SMOOTH",
"499 473 OFFCURVE",
"393 540 OFFCURVE",
"261 540 CURVE SMOOTH",
"159 540 OFFCURVE",
"72 498 OFFCURVE",
"36 464 CURVE",
"36 301 LINE",
"82 345 OFFCURVE",
"164 380 OFFCURVE",
"238 380 CURVE SMOOTH",
"297 380 OFFCURVE",
"339 353 OFFCURVE",
"339 293 CURVE SMOOTH"
);
},
{
closed = 1;
nodes = (
"73 600 LINE",
"224 600 LINE",
"262 667 LINE",
"300 600 LINE",
"451 600 LINE",
"334 756 LINE",
"190 756 LINE"
);
}
);
width = 546;
},
{
layerId = "43C446DC-37EE-4C34-A65A-9E71F2AC18B3";
paths = (
{
closed = 1;
nodes = (
"437 131 LINE",
"380 71 OFFCURVE",
"307 18 OFFCURVE",
"218 18 CURVE",
"147 18 OFFCURVE",
"89 48 OFFCURVE",
"89 122 CURVE",
"89 197 OFFCURVE",
"157 257 OFFCURVE",
"306 257 CURVE",
"357 257 OFFCURVE",
"411 245 OFFCURVE",
"435 235 CURVE",
"433 263 LINE",
"407 272 OFFCURVE",
"357 283 OFFCURVE",
"294 283 CURVE",
"138 283 OFFCURVE",
"59 209 OFFCURVE",
"59 122 CURVE",
"59 46 OFFCURVE",
"109 -10 OFFCURVE",
"218 -10 CURVE",
"315 -10 OFFCURVE",
"391 47 OFFCURVE",
"439 105 CURVE"
);
},
{
closed = 1;
nodes = (
"425 108 LINE",
"427 104 LINE",
"427 0 LINE",
"455 0 LINE",
"455 344 LINE",
"455 488 OFFCURVE",
"361 540 OFFCURVE",
"262 540 CURVE",
"168 540 OFFCURVE",
"93 491 OFFCURVE",
"60 453 CURVE",
"60 418 LINE",
"104 467 OFFCURVE",
"170 512 OFFCURVE",
"262 512 CURVE",
"345 512 OFFCURVE",
"425 469 OFFCURVE",
"425 349 CURVE"
);
},
{
closed = 1;
nodes = (
"118 600 LINE",
"151 600 LINE",
"257 728 LINE",
"363 600 LINE",
"396 600 LINE",
"274 756 LINE",
"240 756 LINE"
);
}
);
width = 539;
}
);
unicode = 00E2;
},
{
glyphname = atilde;
layers = (
{
layerId = "9C3819CB-81CB-4535-9429-AFFD112764D7";
paths = (
{
closed = 1;
nodes = (
"346 135 LINE",
"321 120 OFFCURVE",
"272 110 OFFCURVE",
"233 110 CURVE SMOOTH",
"197 110 OFFCURVE",
"172 121 OFFCURVE",
"172 151 CURVE SMOOTH",
"172 184 OFFCURVE",
"212 198 OFFCURVE",
"271 198 CURVE SMOOTH",
"301 198 OFFCURVE",
"336 192 OFFCURVE",
"358 184 CURVE",
"352 278 LINE",
"333 289 OFFCURVE",
"293 303 OFFCURVE",
"236 303 CURVE SMOOTH",
"121 303 OFFCURVE",
"25 242 OFFCURVE",
"25 142 CURVE SMOOTH",
"25 42 OFFCURVE",
"96 -10 OFFCURVE",
"201 -10 CURVE SMOOTH",
"276 -10 OFFCURVE",
"332 25 OFFCURVE",
"357 58 CURVE"
);
},
{
closed = 1;
nodes = (
"339 103 LINE",
"349 89 LINE",
"349 0 LINE",
"499 0 LINE",
"499 302 LINE SMOOTH",
"499 473 OFFCURVE",
"393 540 OFFCURVE",
"261 540 CURVE SMOOTH",
"159 540 OFFCURVE",
"72 498 OFFCURVE",
"36 464 CURVE",
"36 301 LINE",
"82 345 OFFCURVE",
"164 380 OFFCURVE",
"238 380 CURVE SMOOTH",
"297 380 OFFCURVE",
"339 353 OFFCURVE",
"339 293 CURVE SMOOTH"
);
},
{
closed = 1;
nodes = (
"373 590 OFFCURVE",
"408 611 OFFCURVE",
"440 658 CURVE",
"440 762 LINE",
"417 736 OFFCURVE",
"384 699 OFFCURVE",
"339 699 CURVE SMOOTH",
"292 699 OFFCURVE",
"237 750 OFFCURVE",
"188 750 CURVE SMOOTH",
"151 750 OFFCURVE",
"116 729 OFFCURVE",
"84 682 CURVE",
"84 578 LINE",
"107 604 OFFCURVE",
"140 641 OFFCURVE",
"185 641 CURVE SMOOTH",
"232 641 OFFCURVE",
"287 590 OFFCURVE",
"337 590 CURVE SMOOTH"
);
}
);
width = 546;
},
{
layerId = "43C446DC-37EE-4C34-A65A-9E71F2AC18B3";
paths = (
{
closed = 1;
nodes = (
"437 131 LINE",
"380 71 OFFCURVE",
"307 18 OFFCURVE",
"218 18 CURVE",
"147 18 OFFCURVE",
"89 48 OFFCURVE",
"89 122 CURVE",
"89 197 OFFCURVE",
"157 257 OFFCURVE",
"306 257 CURVE",
"357 257 OFFCURVE",
"411 245 OFFCURVE",
"435 235 CURVE",
"433 263 LINE",
"407 272 OFFCURVE",
"357 283 OFFCURVE",
"294 283 CURVE",
"138 283 OFFCURVE",
"59 209 OFFCURVE",
"59 122 CURVE",
"59 46 OFFCURVE",
"109 -10 OFFCURVE",
"218 -10 CURVE",
"315 -10 OFFCURVE",
"391 47 OFFCURVE",
"439 105 CURVE"
);
},
{
closed = 1;
nodes = (
"425 108 LINE",
"427 104 LINE",
"427 0 LINE",
"455 0 LINE",
"455 344 LINE",
"455 488 OFFCURVE",
"361 540 OFFCURVE",
"262 540 CURVE",
"168 540 OFFCURVE",
"93 491 OFFCURVE",
"60 453 CURVE",
"60 418 LINE",
"104 467 OFFCURVE",
"170 512 OFFCURVE",
"262 512 CURVE",
"345 512 OFFCURVE",
"425 469 OFFCURVE",
"425 349 CURVE"
);
},
{
closed = 1;
nodes = (
"349 634 OFFCURVE",
"371 646 OFFCURVE",
"389 672 CURVE",
"389 715 LINE",
"376 684 OFFCURVE",
"355 664 OFFCURVE",
"326 664 CURVE SMOOTH",
"276 664 OFFCURVE",
"252 722 OFFCURVE",
"193 722 CURVE SMOOTH",
"167 722 OFFCURVE",
"145 709 OFFCURVE",
"126 682 CURVE",
"126 641 LINE",
"141 672 OFFCURVE",
"162 692 OFFCURVE",
"189 692 CURVE SMOOTH",
"239 692 OFFCURVE",
"265 634 OFFCURVE",
"324 634 CURVE SMOOTH"
);
}
);
width = 539;
}
);
unicode = 00E3;
},
{
glyphname = adieresis;
layers = (
{
layerId = "9C3819CB-81CB-4535-9429-AFFD112764D7";
paths = (
{
closed = 1;
nodes = (
"346 135 LINE",
"321 120 OFFCURVE",
"272 110 OFFCURVE",
"233 110 CURVE SMOOTH",
"197 110 OFFCURVE",
"172 121 OFFCURVE",
"172 151 CURVE SMOOTH",
"172 184 OFFCURVE",
"212 198 OFFCURVE",
"271 198 CURVE SMOOTH",
"301 198 OFFCURVE",
"336 192 OFFCURVE",
"358 184 CURVE",
"352 278 LINE",
"333 289 OFFCURVE",
"293 303 OFFCURVE",
"236 303 CURVE SMOOTH",
"121 303 OFFCURVE",
"25 242 OFFCURVE",
"25 142 CURVE SMOOTH",
"25 42 OFFCURVE",
"96 -10 OFFCURVE",
"201 -10 CURVE SMOOTH",
"276 -10 OFFCURVE",
"332 25 OFFCURVE",
"357 58 CURVE"
);
},
{
closed = 1;
nodes = (
"339 103 LINE",
"349 89 LINE",
"349 0 LINE",
"499 0 LINE",
"499 302 LINE SMOOTH",
"499 473 OFFCURVE",
"393 540 OFFCURVE",
"261 540 CURVE SMOOTH",
"159 540 OFFCURVE",
"72 498 OFFCURVE",
"36 464 CURVE",
"36 301 LINE",
"82 345 OFFCURVE",
"164 380 OFFCURVE",
"238 380 CURVE SMOOTH",
"297 380 OFFCURVE",
"339 353 OFFCURVE",
"339 293 CURVE SMOOTH"
);
},
{
closed = 1;
nodes = (
"207 590 OFFCURVE",
"244 626 OFFCURVE",
"244 671 CURVE SMOOTH",
"244 716 OFFCURVE",
"207 753 OFFCURVE",
"162 753 CURVE SMOOTH",
"117 753 OFFCURVE",
"81 716 OFFCURVE",
"81 671 CURVE SMOOTH",
"81 626 OFFCURVE",
"117 590 OFFCURVE",
"162 590 CURVE SMOOTH"
);
},
{
closed = 1;
nodes = (
"407 590 OFFCURVE",
"444 626 OFFCURVE",
"444 671 CURVE SMOOTH",
"444 716 OFFCURVE",
"407 753 OFFCURVE",
"362 753 CURVE SMOOTH",
"317 753 OFFCURVE",
"281 716 OFFCURVE",
"281 671 CURVE SMOOTH",
"281 626 OFFCURVE",
"317 590 OFFCURVE",
"362 590 CURVE SMOOTH"
);
}
);
width = 546;
},
{
layerId = "43C446DC-37EE-4C34-A65A-9E71F2AC18B3";
paths = (
{
closed = 1;
nodes = (
"437 131 LINE",
"380 71 OFFCURVE",
"307 18 OFFCURVE",
"218 18 CURVE",
"147 18 OFFCURVE",
"89 48 OFFCURVE",
"89 122 CURVE",
"89 197 OFFCURVE",
"157 257 OFFCURVE",
"306 257 CURVE",
"357 257 OFFCURVE",
"411 245 OFFCURVE",
"435 235 CURVE",
"433 263 LINE",
"407 272 OFFCURVE",
"357 283 OFFCURVE",
"294 283 CURVE",
"138 283 OFFCURVE",
"59 209 OFFCURVE",
"59 122 CURVE",
"59 46 OFFCURVE",
"109 -10 OFFCURVE",
"218 -10 CURVE",
"315 -10 OFFCURVE",
"391 47 OFFCURVE",
"439 105 CURVE"
);
},
{
closed = 1;
nodes = (
"425 108 LINE",
"427 104 LINE",
"427 0 LINE",
"455 0 LINE",
"455 344 LINE",
"455 488 OFFCURVE",
"361 540 OFFCURVE",
"262 540 CURVE",
"168 540 OFFCURVE",
"93 491 OFFCURVE",
"60 453 CURVE",
"60 418 LINE",
"104 467 OFFCURVE",
"170 512 OFFCURVE",
"262 512 CURVE",
"345 512 OFFCURVE",
"425 469 OFFCURVE",
"425 349 CURVE"
);
},
{
closed = 1;
nodes = (
"192 651 OFFCURVE",
"204 663 OFFCURVE",
"204 678 CURVE SMOOTH",
"204 692 OFFCURVE",
"192 705 OFFCURVE",
"177 705 CURVE SMOOTH",
"162 705 OFFCURVE",
"150 692 OFFCURVE",
"150 678 CURVE SMOOTH",
"150 663 OFFCURVE",
"162 651 OFFCURVE",
"177 651 CURVE SMOOTH"
);
},
{
closed = 1;
nodes = (
"352 651 OFFCURVE",
"364 663 OFFCURVE",
"364 678 CURVE SMOOTH",
"364 692 OFFCURVE",
"352 705 OFFCURVE",
"337 705 CURVE SMOOTH",
"322 705 OFFCURVE",
"310 692 OFFCURVE",
"310 678 CURVE SMOOTH",
"310 663 OFFCURVE",
"322 651 OFFCURVE",
"337 651 CURVE SMOOTH"
);
}
);
width = 539;
}
);
unicode = 00E4;
},
{
glyphname = aring;
layers = (
{
layerId = "9C3819CB-81CB-4535-9429-AFFD112764D7";
paths = (
{
closed = 1;
nodes = (
"346 135 LINE",
"321 120 OFFCURVE",
"272 110 OFFCURVE",
"233 110 CURVE SMOOTH",
"197 110 OFFCURVE",
"172 121 OFFCURVE",
"172 151 CURVE SMOOTH",
"172 184 OFFCURVE",
"212 198 OFFCURVE",
"271 198 CURVE SMOOTH",
"301 198 OFFCURVE",
"336 192 OFFCURVE",
"358 184 CURVE",
"352 278 LINE",
"333 289 OFFCURVE",
"293 303 OFFCURVE",
"236 303 CURVE SMOOTH",
"121 303 OFFCURVE",
"25 242 OFFCURVE",
"25 142 CURVE SMOOTH",
"25 42 OFFCURVE",
"96 -10 OFFCURVE",
"201 -10 CURVE SMOOTH",
"276 -10 OFFCURVE",
"332 25 OFFCURVE",
"357 58 CURVE"
);
},
{
closed = 1;
nodes = (
"339 103 LINE",
"349 89 LINE",
"349 0 LINE",
"499 0 LINE",
"499 302 LINE SMOOTH",
"499 473 OFFCURVE",
"393 540 OFFCURVE",
"261 540 CURVE SMOOTH",
"159 540 OFFCURVE",
"72 498 OFFCURVE",
"36 464 CURVE",
"36 301 LINE",
"82 345 OFFCURVE",
"164 380 OFFCURVE",
"238 380 CURVE SMOOTH",
"297 380 OFFCURVE",
"339 353 OFFCURVE",
"339 293 CURVE SMOOTH"
);
},
{
closed = 1;
nodes = (
"334 590 OFFCURVE",
"389 645 OFFCURVE",
"389 713 CURVE SMOOTH",
"389 781 OFFCURVE",
"334 836 OFFCURVE",
"262 836 CURVE SMOOTH",
"190 836 OFFCURVE",
"135 781 OFFCURVE",
"135 713 CURVE SMOOTH",
"135 645 OFFCURVE",
"190 590 OFFCURVE",
"262 590 CURVE SMOOTH"
);
},
{
closed = 1;
nodes = (
"240 669 OFFCURVE",
"221 688 OFFCURVE",
"221 713 CURVE SMOOTH",
"221 738 OFFCURVE",
"240 757 OFFCURVE",
"263 757 CURVE SMOOTH",
"286 757 OFFCURVE",
"305 738 OFFCURVE",
"305 713 CURVE SMOOTH",
"305 688 OFFCURVE",
"286 669 OFFCURVE",
"263 669 CURVE SMOOTH"
);
}
);
width = 546;
},
{
layerId = "43C446DC-37EE-4C34-A65A-9E71F2AC18B3";
paths = (
{
closed = 1;
nodes = (
"437 131 LINE",
"380 71 OFFCURVE",
"307 18 OFFCURVE",
"218 18 CURVE",
"147 18 OFFCURVE",
"89 48 OFFCURVE",
"89 122 CURVE",
"89 197 OFFCURVE",
"157 257 OFFCURVE",
"306 257 CURVE",
"357 257 OFFCURVE",
"411 245 OFFCURVE",
"435 235 CURVE",
"433 263 LINE",
"407 272 OFFCURVE",
"357 283 OFFCURVE",
"294 283 CURVE",
"138 283 OFFCURVE",
"59 209 OFFCURVE",
"59 122 CURVE",
"59 46 OFFCURVE",
"109 -10 OFFCURVE",
"218 -10 CURVE",
"315 -10 OFFCURVE",
"391 47 OFFCURVE",
"439 105 CURVE"
);
},
{
closed = 1;
nodes = (
"425 108 LINE",
"427 104 LINE",
"427 0 LINE",
"455 0 LINE",
"455 344 LINE",
"455 488 OFFCURVE",
"361 540 OFFCURVE",
"262 540 CURVE",
"168 540 OFFCURVE",
"93 491 OFFCURVE",
"60 453 CURVE",
"60 418 LINE",
"104 467 OFFCURVE",
"170 512 OFFCURVE",
"262 512 CURVE",
"345 512 OFFCURVE",
"425 469 OFFCURVE",
"425 349 CURVE"
);
},
{
closed = 1;
nodes = (
"326 578 OFFCURVE",
"370 623 OFFCURVE",
"370 678 CURVE SMOOTH",
"370 733 OFFCURVE",
"326 778 OFFCURVE",
"267 778 CURVE SMOOTH",
"209 778 OFFCURVE",
"164 733 OFFCURVE",
"164 678 CURVE SMOOTH",
"164 623 OFFCURVE",
"209 578 OFFCURVE",
"267 578 CURVE SMOOTH"
);
},
{
closed = 1;
nodes = (
"228 605 OFFCURVE",
"192 635 OFFCURVE",
"192 678 CURVE SMOOTH",
"192 721 OFFCURVE",
"228 752 OFFCURVE",
"268 752 CURVE SMOOTH",
"308 752 OFFCURVE",
"342 721 OFFCURVE",
"342 678 CURVE SMOOTH",
"342 635 OFFCURVE",
"308 605 OFFCURVE",
"268 605 CURVE SMOOTH"
);
}
);
width = 539;
}
);
unicode = 00E5;
},
{
glyphname = amacron;
layers = (
{
layerId = "9C3819CB-81CB-4535-9429-AFFD112764D7";
paths = (
{
closed = 1;
nodes = (
"346 135 LINE",
"321 120 OFFCURVE",
"272 110 OFFCURVE",
"233 110 CURVE SMOOTH",
"197 110 OFFCURVE",
"172 121 OFFCURVE",
"172 151 CURVE SMOOTH",
"172 184 OFFCURVE",
"212 198 OFFCURVE",
"271 198 CURVE SMOOTH",
"301 198 OFFCURVE",
"336 192 OFFCURVE",
"358 184 CURVE",
"352 278 LINE",
"333 289 OFFCURVE",
"293 303 OFFCURVE",
"236 303 CURVE SMOOTH",
"121 303 OFFCURVE",
"25 242 OFFCURVE",
"25 142 CURVE SMOOTH",
"25 42 OFFCURVE",
"96 -10 OFFCURVE",
"201 -10 CURVE SMOOTH",
"276 -10 OFFCURVE",
"332 25 OFFCURVE",
"357 58 CURVE"
);
},
{
closed = 1;
nodes = (
"339 103 LINE",
"349 89 LINE",
"349 0 LINE",
"499 0 LINE",
"499 302 LINE SMOOTH",
"499 473 OFFCURVE",
"393 540 OFFCURVE",
"261 540 CURVE SMOOTH",
"159 540 OFFCURVE",
"72 498 OFFCURVE",
"36 464 CURVE",
"36 301 LINE",
"82 345 OFFCURVE",
"164 380 OFFCURVE",
"238 380 CURVE SMOOTH",
"297 380 OFFCURVE",
"339 353 OFFCURVE",
"339 293 CURVE SMOOTH"
);
},
{
closed = 1;
nodes = (
"105 736 LINE",
"105 736 OFFCURVE",
"105 621 OFFCURVE",
"105 621 CURVE",
"420 621 LINE",
"420 736 LINE"
);
}
);
width = 546;
},
{
layerId = "43C446DC-37EE-4C34-A65A-9E71F2AC18B3";
paths = (
{
closed = 1;
nodes = (
"437 131 LINE",
"380 71 OFFCURVE",
"307 18 OFFCURVE",
"218 18 CURVE",
"147 18 OFFCURVE",
"89 48 OFFCURVE",
"89 122 CURVE",
"89 197 OFFCURVE",
"157 257 OFFCURVE",
"306 257 CURVE",
"357 257 OFFCURVE",
"411 245 OFFCURVE",
"435 235 CURVE",
"433 263 LINE",
"407 272 OFFCURVE",
"357 283 OFFCURVE",
"294 283 CURVE",
"138 283 OFFCURVE",
"59 209 OFFCURVE",
"59 122 CURVE",
"59 46 OFFCURVE",
"109 -10 OFFCURVE",
"218 -10 CURVE",
"315 -10 OFFCURVE",
"391 47 OFFCURVE",
"439 105 CURVE"
);
},
{
closed = 1;
nodes = (
"425 108 LINE",
"427 104 LINE",
"427 0 LINE",
"455 0 LINE",
"455 344 LINE",
"455 488 OFFCURVE",
"361 540 OFFCURVE",
"262 540 CURVE",
"168 540 OFFCURVE",
"93 491 OFFCURVE",
"60 453 CURVE",
"60 418 LINE",
"104 467 OFFCURVE",
"170 512 OFFCURVE",
"262 512 CURVE",
"345 512 OFFCURVE",
"425 469 OFFCURVE",
"425 349 CURVE"
);
},
{
closed = 1;
nodes = (
"130 693 LINE",
"130 693 OFFCURVE",
"130 663 OFFCURVE",
"130 663 CURVE",
"385 663 LINE",
"385 693 LINE"
);
}
);
width = 539;
}
);
unicode = 0101;
},
{
glyphname = abreve;
layers = (
{
layerId = "9C3819CB-81CB-4535-9429-AFFD112764D7";
paths = (
{
closed = 1;
nodes = (
"346 135 LINE",
"321 120 OFFCURVE",
"272 110 OFFCURVE",
"233 110 CURVE SMOOTH",
"197 110 OFFCURVE",
"172 121 OFFCURVE",
"172 151 CURVE SMOOTH",
"172 184 OFFCURVE",
"212 198 OFFCURVE",
"271 198 CURVE SMOOTH",
"301 198 OFFCURVE",
"336 192 OFFCURVE",
"358 184 CURVE",
"352 278 LINE",
"333 289 OFFCURVE",
"293 303 OFFCURVE",
"236 303 CURVE SMOOTH",
"121 303 OFFCURVE",
"25 242 OFFCURVE",
"25 142 CURVE SMOOTH",
"25 42 OFFCURVE",
"96 -10 OFFCURVE",
"201 -10 CURVE SMOOTH",
"276 -10 OFFCURVE",
"332 25 OFFCURVE",
"357 58 CURVE"
);
},
{
closed = 1;
nodes = (
"339 103 LINE",
"349 89 LINE",
"349 0 LINE",
"499 0 LINE",
"499 302 LINE SMOOTH",
"499 473 OFFCURVE",
"393 540 OFFCURVE",
"261 540 CURVE SMOOTH",
"159 540 OFFCURVE",
"72 498 OFFCURVE",
"36 464 CURVE",
"36 301 LINE",
"82 345 OFFCURVE",
"164 380 OFFCURVE",
"238 380 CURVE SMOOTH",
"297 380 OFFCURVE",
"339 353 OFFCURVE",
"339 293 CURVE SMOOTH"
);
},
{
closed = 1;
nodes = (
"355 590 OFFCURVE",
"423 662 OFFCURVE",
"423 756 CURVE",
"313 756 LINE",
"313 713 OFFCURVE",
"290 692 OFFCURVE",
"262 692 CURVE SMOOTH",
"234 692 OFFCURVE",
"211 713 OFFCURVE",
"211 756 CURVE",
"102 756 LINE",
"102 662 OFFCURVE",
"170 590 OFFCURVE",
"262 590 CURVE SMOOTH"
);
}
);
width = 546;
},
{
layerId = "43C446DC-37EE-4C34-A65A-9E71F2AC18B3";
paths = (
{
closed = 1;
nodes = (
"437 131 LINE",
"380 71 OFFCURVE",
"307 18 OFFCURVE",
"218 18 CURVE",
"147 18 OFFCURVE",
"89 48 OFFCURVE",
"89 122 CURVE",
"89 197 OFFCURVE",
"157 257 OFFCURVE",
"306 257 CURVE",
"357 257 OFFCURVE",
"411 245 OFFCURVE",
"435 235 CURVE",
"433 263 LINE",
"407 272 OFFCURVE",
"357 283 OFFCURVE",
"294 283 CURVE",
"138 283 OFFCURVE",
"59 209 OFFCURVE",
"59 122 CURVE",
"59 46 OFFCURVE",
"109 -10 OFFCURVE",
"218 -10 CURVE",
"315 -10 OFFCURVE",
"391 47 OFFCURVE",
"439 105 CURVE"
);
},
{
closed = 1;
nodes = (
"425 108 LINE",
"427 104 LINE",
"427 0 LINE",
"455 0 LINE",
"455 344 LINE",
"455 488 OFFCURVE",
"361 540 OFFCURVE",
"262 540 CURVE",
"168 540 OFFCURVE",
"93 491 OFFCURVE",
"60 453 CURVE",
"60 418 LINE",
"104 467 OFFCURVE",
"170 512 OFFCURVE",
"262 512 CURVE",
"345 512 OFFCURVE",
"425 469 OFFCURVE",
"425 349 CURVE"
);
},
{
closed = 1;
nodes = (
"324 615 OFFCURVE",
"368 660 OFFCURVE",
"368 741 CURVE",
"339 741 LINE",
"339 672 OFFCURVE",
"302 642 OFFCURVE",
"257 642 CURVE SMOOTH",
"212 642 OFFCURVE",
"176 672 OFFCURVE",
"176 741 CURVE",
"147 741 LINE",
"147 660 OFFCURVE",
"191 615 OFFCURVE",
"257 615 CURVE SMOOTH"
);
}
);
width = 539;
}
);
unicode = 0103;
},
{
glyphname = aogonek;
layers = (
{
layerId = "9C3819CB-81CB-4535-9429-AFFD112764D7";
paths = (
{
closed = 1;
nodes = (
"346 135 LINE",
"321 120 OFFCURVE",
"272 110 OFFCURVE",
"233 110 CURVE SMOOTH",
"197 110 OFFCURVE",
"172 121 OFFCURVE",
"172 151 CURVE SMOOTH",
"172 184 OFFCURVE",
"212 198 OFFCURVE",
"271 198 CURVE SMOOTH",
"301 198 OFFCURVE",
"336 192 OFFCURVE",
"358 184 CURVE",
"352 278 LINE",
"333 289 OFFCURVE",
"293 303 OFFCURVE",
"236 303 CURVE SMOOTH",
"121 303 OFFCURVE",
"25 242 OFFCURVE",
"25 142 CURVE SMOOTH",
"25 42 OFFCURVE",
"96 -10 OFFCURVE",
"201 -10 CURVE SMOOTH",
"276 -10 OFFCURVE",
"332 25 OFFCURVE",
"357 58 CURVE"
);
},
{
closed = 1;
nodes = (
"339 103 LINE",
"349 89 LINE",
"349 0 LINE",
"499 0 LINE",
"499 302 LINE SMOOTH",
"499 473 OFFCURVE",
"393 540 OFFCURVE",
"261 540 CURVE SMOOTH",
"159 540 OFFCURVE",
"72 498 OFFCURVE",
"36 464 CURVE",
"36 301 LINE",
"82 345 OFFCURVE",
"164 380 OFFCURVE",
"238 380 CURVE SMOOTH",
"297 380 OFFCURVE",
"339 353 OFFCURVE",
"339 293 CURVE SMOOTH"
);
},
{
closed = 1;
nodes = (
"349 0 LINE",
"309 -23 OFFCURVE",
"284 -58 OFFCURVE",
"284 -94 CURVE SMOOTH",
"284 -152 OFFCURVE",
"332 -178 OFFCURVE",
"390 -178 CURVE SMOOTH",
"417 -178 OFFCURVE",
"444 -169 OFFCURVE",
"462 -158 CURVE",
"462 -69 LINE",
"446 -81 OFFCURVE",
"428 -87 OFFCURVE",
"413 -87 CURVE SMOOTH",
"397 -87 OFFCURVE",
"380 -83 OFFCURVE",
"380 -63 CURVE SMOOTH",
"380 -44 OFFCURVE",
"402 -21 OFFCURVE",
"431 0 CURVE"
);
}
);
width = 546;
},
{
layerId = "43C446DC-37EE-4C34-A65A-9E71F2AC18B3";
paths = (
{
closed = 1;
nodes = (
"437 131 LINE",
"380 71 OFFCURVE",
"307 18 OFFCURVE",
"218 18 CURVE",
"147 18 OFFCURVE",
"89 48 OFFCURVE",
"89 122 CURVE",
"89 197 OFFCURVE",
"157 257 OFFCURVE",
"306 257 CURVE",
"357 257 OFFCURVE",
"411 245 OFFCURVE",
"435 235 CURVE",
"433 263 LINE",
"407 272 OFFCURVE",
"357 283 OFFCURVE",
"294 283 CURVE",
"138 283 OFFCURVE",
"59 209 OFFCURVE",
"59 122 CURVE",
"59 46 OFFCURVE",
"109 -10 OFFCURVE",
"218 -10 CURVE",
"315 -10 OFFCURVE",
"391 47 OFFCURVE",
"439 105 CURVE"
);
},
{
closed = 1;
nodes = (
"425 108 LINE",
"427 104 LINE",
"427 0 LINE",
"455 0 LINE",
"455 344 LINE",
"455 488 OFFCURVE",
"361 540 OFFCURVE",
"262 540 CURVE",
"168 540 OFFCURVE",
"93 491 OFFCURVE",
"60 453 CURVE",
"60 418 LINE",
"104 467 OFFCURVE",
"170 512 OFFCURVE",
"262 512 CURVE",
"345 512 OFFCURVE",
"425 469 OFFCURVE",
"425 349 CURVE"
);
},
{
closed = 1;
nodes = (
"427 0 LINE",
"366 -31 OFFCURVE",
"325 -63 OFFCURVE",
"325 -102 CURVE SMOOTH",
"325 -145 OFFCURVE",
"357 -168 OFFCURVE",
"404 -168 CURVE SMOOTH",
"436 -168 OFFCURVE",
"462 -157 OFFCURVE",
"481 -143 CURVE",
"481 -109 LINE",
"458 -130 OFFCURVE",
"431 -138 OFFCURVE",
"406 -138 CURVE SMOOTH",
"377 -138 OFFCURVE",
"357 -121 OFFCURVE",
"357 -98 CURVE",
"357 -67 OFFCURVE",
"397 -36 OFFCURVE",
"455 0 CURVE"
);
}
);
width = 539;
}
);
unicode = 0105;
},
{
glyphname = b;
layers = (
{
layerId = "9C3819CB-81CB-4535-9429-AFFD112764D7";
paths = (
{
closed = 1;
nodes = (
"210 708 LINE",
"210 128 LINE",
"185 149 LINE",
"207 141 OFFCURVE",
"236 133 OFFCURVE",
"271 133 CURVE SMOOTH",
"344 133 OFFCURVE",
"409 155 OFFCURVE",
"409 267 CURVE SMOOTH",
"409 363 OFFCURVE",
"354 394 OFFCURVE",
"299 394 CURVE SMOOTH",
"254 394 OFFCURVE",
"211 383 OFFCURVE",
"185 369 CURVE",
"185 487 LINE",
"222 516 OFFCURVE",
"281 540 OFFCURVE",
"351 540 CURVE SMOOTH",
"468 540 OFFCURVE",
"575 461 OFFCURVE",
"575 277 CURVE SMOOTH",
"575 71 OFFCURVE",
"425 -10 OFFCURVE",
"280 -10 CURVE SMOOTH",
"176 -10 OFFCURVE",
"105 17 OFFCURVE",
"50 37 CURVE",
"50 688 LINE"
);
}
);
width = 605;
},
{
layerId = "43C446DC-37EE-4C34-A65A-9E71F2AC18B3";
paths = (
{
closed = 1;
nodes = (
"119 698 LINE",
"119 27 LINE",
"99 53 LINE",
"150 35 OFFCURVE",
"208 18 OFFCURVE",
"284 18 CURVE SMOOTH",
"419 18 OFFCURVE",
"508 109 OFFCURVE",
"508 275 CURVE SMOOTH",
"508 416 OFFCURVE",
"431 512 OFFCURVE",
"307 512 CURVE",
"212 512 OFFCURVE",
"141 459 OFFCURVE",
"109 426 CURVE",
"109 457 LINE",
"137 487 OFFCURVE",
"212 540 OFFCURVE",
"307 540 CURVE",
"447 540 OFFCURVE",
"538 436 OFFCURVE",
"538 275 CURVE SMOOTH",
"538 91 OFFCURVE",
"432 -10 OFFCURVE",
"284 -10 CURVE SMOOTH",
"204 -10 OFFCURVE",
"142 8 OFFCURVE",
"89 27 CURVE",
"89 688 LINE"
);
}
);
width = 597;
}
);
unicode = 0062;
},
{
glyphname = c;
layers = (
{
anchors = (
{
name = center;
position = "{323, 265}";
}
);
guideLines = (
{
angle = 90;
position = "{463, 0}";
},
{
position = "{0, 265}";
}
);
layerId = "9C3819CB-81CB-4535-9429-AFFD112764D7";
paths = (
{
closed = 1;
nodes = (
"496 493 LINE",
"450 525 OFFCURVE",
"386 540 OFFCURVE",
"317 540 CURVE SMOOTH",
"154 540 OFFCURVE",
"30 426 OFFCURVE",
"30 265 CURVE SMOOTH",
"30 109 OFFCURVE",
"152 -10 OFFCURVE",
"315 -10 CURVE SMOOTH",
"385 -10 OFFCURVE",
"450 6 OFFCURVE",
"496 37 CURVE",
"496 196 LINE",
"444 160 OFFCURVE",
"384 140 OFFCURVE",
"322 140 CURVE SMOOTH",
"242 140 OFFCURVE",
"192 191 OFFCURVE",
"192 265 CURVE SMOOTH",
"192 342 OFFCURVE",
"242 390 OFFCURVE",
"323 390 CURVE SMOOTH",
"384 390 OFFCURVE",
"444 370 OFFCURVE",
"496 334 CURVE"
);
}
);
width = 526;
},
{
anchors = (
{
name = center;
position = "{320, 266}";
}
);
guideLines = (
{
angle = 90;
position = "{463, 0}";
}
);
layerId = "43C446DC-37EE-4C34-A65A-9E71F2AC18B3";
paths = (
{
closed = 1;
nodes = (
"482 506 LINE",
"448 529 OFFCURVE",
"398 542 OFFCURVE",
"344 542 CURVE SMOOTH",
"183 542 OFFCURVE",
"59 435 OFFCURVE",
"59 265 CURVE SMOOTH",
"59 99 OFFCURVE",
"183 -10 OFFCURVE",
"344 -10 CURVE SMOOTH",
"398 -10 OFFCURVE",
"448 5 OFFCURVE",
"482 27 CURVE",
"482 58 LINE",
"453 37 OFFCURVE",
"401 20 OFFCURVE",
"344 20 CURVE SMOOTH",
"200 20 OFFCURVE",
"89 117 OFFCURVE",
"89 265 CURVE SMOOTH",
"89 416 OFFCURVE",
"200 512 OFFCURVE",
"344 512 CURVE SMOOTH",
"401 512 OFFCURVE",
"454 497 OFFCURVE",
"482 475 CURVE"
);
}
);
width = 531;
}
);
unicode = 0063;
},
{
glyphname = ccedilla;
layers = (
{
layerId = "9C3819CB-81CB-4535-9429-AFFD112764D7";
paths = (
{
closed = 1;
nodes = (
"496 493 LINE",
"450 525 OFFCURVE",
"386 540 OFFCURVE",
"317 540 CURVE SMOOTH",
"154 540 OFFCURVE",
"30 426 OFFCURVE",
"30 265 CURVE SMOOTH",
"30 109 OFFCURVE",
"152 -10 OFFCURVE",
"315 -10 CURVE SMOOTH",
"385 -10 OFFCURVE",
"450 6 OFFCURVE",
"496 37 CURVE",
"496 196 LINE",
"444 160 OFFCURVE",
"384 140 OFFCURVE",
"322 140 CURVE SMOOTH",
"242 140 OFFCURVE",
"192 191 OFFCURVE",
"192 265 CURVE SMOOTH",
"192 342 OFFCURVE",
"242 390 OFFCURVE",
"323 390 CURVE SMOOTH",
"384 390 OFFCURVE",
"444 370 OFFCURVE",
"496 334 CURVE"
);
},
{
closed = 1;
nodes = (
"272 0 LINE",
"172 -146 LINE",
"300 -196 LINE",
"375 0 LINE"
);
}
);
width = 526;
},
{
layerId = "43C446DC-37EE-4C34-A65A-9E71F2AC18B3";
paths = (
{
closed = 1;
nodes = (
"482 506 LINE",
"448 529 OFFCURVE",
"398 542 OFFCURVE",
"344 542 CURVE SMOOTH",
"183 542 OFFCURVE",
"59 435 OFFCURVE",
"59 265 CURVE SMOOTH",
"59 99 OFFCURVE",
"183 -10 OFFCURVE",
"344 -10 CURVE SMOOTH",
"398 -10 OFFCURVE",
"448 5 OFFCURVE",
"482 27 CURVE",
"482 58 LINE",
"453 37 OFFCURVE",
"401 20 OFFCURVE",
"344 20 CURVE SMOOTH",
"200 20 OFFCURVE",
"89 117 OFFCURVE",
"89 265 CURVE SMOOTH",
"89 416 OFFCURVE",
"200 512 OFFCURVE",
"344 512 CURVE SMOOTH",
"401 512 OFFCURVE",
"454 497 OFFCURVE",
"482 475 CURVE"
);
},
{
closed = 1;
nodes = (
"348 0 LINE",
"265 -154 LINE",
"297 -168 LINE",
"376 0 LINE"
);
}
);
width = 531;
}
);
unicode = 00E7;
},
{
glyphname = cacute;
layers = (
{
layerId = "9C3819CB-81CB-4535-9429-AFFD112764D7";
paths = (
{
closed = 1;
nodes = (
"496 493 LINE",
"450 525 OFFCURVE",
"386 540 OFFCURVE",
"317 540 CURVE SMOOTH",
"154 540 OFFCURVE",
"30 426 OFFCURVE",
"30 265 CURVE SMOOTH",
"30 109 OFFCURVE",
"152 -10 OFFCURVE",
"315 -10 CURVE SMOOTH",
"385 -10 OFFCURVE",
"450 6 OFFCURVE",
"496 37 CURVE",
"496 196 LINE",
"444 160 OFFCURVE",
"384 140 OFFCURVE",
"322 140 CURVE SMOOTH",
"242 140 OFFCURVE",
"192 191 OFFCURVE",
"192 265 CURVE SMOOTH",
"192 342 OFFCURVE",
"242 390 OFFCURVE",
"323 390 CURVE SMOOTH",
"384 390 OFFCURVE",
"444 370 OFFCURVE",
"496 334 CURVE"
);
},
{
closed = 1;
nodes = (
"338 756 LINE",
"240 600 LINE",
"240 600 OFFCURVE",
"386 600 OFFCURVE",
"386 600 CURVE",
"526 756 LINE"
);
}
);
width = 526;
},
{
layerId = "43C446DC-37EE-4C34-A65A-9E71F2AC18B3";
paths = (
{
closed = 1;
nodes = (
"482 506 LINE",
"448 529 OFFCURVE",
"398 542 OFFCURVE",
"344 542 CURVE SMOOTH",
"183 542 OFFCURVE",
"59 435 OFFCURVE",
"59 265 CURVE SMOOTH",
"59 99 OFFCURVE",
"183 -10 OFFCURVE",
"344 -10 CURVE SMOOTH",
"398 -10 OFFCURVE",
"448 5 OFFCURVE",
"482 27 CURVE",
"482 58 LINE",
"453 37 OFFCURVE",
"401 20 OFFCURVE",
"344 20 CURVE SMOOTH",
"200 20 OFFCURVE",
"89 117 OFFCURVE",
"89 265 CURVE SMOOTH",
"89 416 OFFCURVE",
"200 512 OFFCURVE",
"344 512 CURVE SMOOTH",
"401 512 OFFCURVE",
"454 497 OFFCURVE",
"482 475 CURVE"
);
},
{
closed = 1;
nodes = (
"399 756 LINE",
"301 600 LINE",
"301 600 OFFCURVE",
"332 600 OFFCURVE",
"332 600 CURVE",
"442 756 LINE"
);
}
);
width = 531;
}
);
unicode = 0107;
},
{
glyphname = cdotaccent;
layers = (
{
layerId = "9C3819CB-81CB-4535-9429-AFFD112764D7";
paths = (
{
closed = 1;
nodes = (
"496 493 LINE",
"450 525 OFFCURVE",
"386 540 OFFCURVE",
"317 540 CURVE SMOOTH",
"154 540 OFFCURVE",
"30 426 OFFCURVE",
"30 265 CURVE SMOOTH",
"30 109 OFFCURVE",
"152 -10 OFFCURVE",
"315 -10 CURVE SMOOTH",
"385 -10 OFFCURVE",
"450 6 OFFCURVE",
"496 37 CURVE",
"496 196 LINE",
"444 160 OFFCURVE",
"384 140 OFFCURVE",
"322 140 CURVE SMOOTH",
"242 140 OFFCURVE",
"192 191 OFFCURVE",
"192 265 CURVE SMOOTH",
"192 342 OFFCURVE",
"242 390 OFFCURVE",
"323 390 CURVE SMOOTH",
"384 390 OFFCURVE",
"444 370 OFFCURVE",
"496 334 CURVE"
);
},
{
closed = 1;
nodes = (
"373 590 OFFCURVE",
"414 630 OFFCURVE",
"414 680 CURVE SMOOTH",
"414 730 OFFCURVE",
"373 771 OFFCURVE",
"323 771 CURVE SMOOTH",
"273 771 OFFCURVE",
"233 730 OFFCURVE",
"233 680 CURVE SMOOTH",
"233 630 OFFCURVE",
"273 590 OFFCURVE",
"323 590 CURVE SMOOTH"
);
}
);
width = 526;
},
{
layerId = "43C446DC-37EE-4C34-A65A-9E71F2AC18B3";
paths = (
{
closed = 1;
nodes = (
"482 506 LINE",
"448 529 OFFCURVE",
"398 542 OFFCURVE",
"344 542 CURVE SMOOTH",
"183 542 OFFCURVE",
"59 435 OFFCURVE",
"59 265 CURVE SMOOTH",
"59 99 OFFCURVE",
"183 -10 OFFCURVE",
"344 -10 CURVE SMOOTH",
"398 -10 OFFCURVE",
"448 5 OFFCURVE",
"482 27 CURVE",
"482 58 LINE",
"453 37 OFFCURVE",
"401 20 OFFCURVE",
"344 20 CURVE SMOOTH",
"200 20 OFFCURVE",
"89 117 OFFCURVE",
"89 265 CURVE SMOOTH",
"89 416 OFFCURVE",
"200 512 OFFCURVE",
"344 512 CURVE SMOOTH",
"401 512 OFFCURVE",
"454 497 OFFCURVE",
"482 475 CURVE"
);
},
{
closed = 1;
nodes = (
"335 651 OFFCURVE",
"347 663 OFFCURVE",
"347 678 CURVE SMOOTH",
"347 692 OFFCURVE",
"335 705 OFFCURVE",
"320 705 CURVE SMOOTH",
"305 705 OFFCURVE",
"293 692 OFFCURVE",
"293 678 CURVE SMOOTH",
"293 663 OFFCURVE",
"305 651 OFFCURVE",
"320 651 CURVE SMOOTH"
);
}
);
width = 531;
}
);
unicode = 010B;
},
